<?xml version="1.0" standalone="no"?>
<!DOCTYPE svg PUBLIC "-//W3C//DTD SVG 1.1//EN" "http://www.w3.org/Graphics/SVG/1.1/DTD/svg11.dtd" >
<svg xmlns="http://www.w3.org/2000/svg" xmlns:xlink="http://www.w3.org/1999/xlink" version="1.1">
<metadata></metadata>
<defs>
<font id="style_scriptregular" horiz-adv-x="1456" >
<font-face units-per-em="2048" ascent="1638" descent="-410" />
<missing-glyph horiz-adv-x="389" />
<glyph unicode="&#xfb01;" horiz-adv-x="907" d="M49 276q0 33 35 46h2l4 151q2 90 8 204t19.5 233.5t35 233t53.5 204t78 143.5t107 53q51 0 82 -32.5t45 -79t14 -86.5q0 -94 -27.5 -213t-73.5 -246t-99 -250t-105 -227q-2 -16 -3 -35t-1 -35q47 -4 84 -23.5t68 -50.5q63 29 116.5 72t98.5 100q2 51 6 122t15.5 143.5 t31.5 125.5q10 25 38 43.5t73 18.5q31 0 61 -8q-12 -47 -27.5 -131t-26.5 -182.5t-13 -192.5v-58q0 -53 5 -114.5t20 -103.5t48 -42h2q16 0 36 16.5t42 61.5q16 29 29.5 69t27.5 85q8 18 17 18q10 0 10 -24v-9q-4 -53 -28.5 -120.5t-68.5 -116.5t-106 -49q-61 0 -99 38 t-58.5 97t-27.5 122.5t-7 114.5v15q-41 -45 -87 -81t-100 -58q47 -57 76 -134t42.5 -159t13.5 -156q0 -123 -25 -227.5t-73 -169t-118 -64.5q-74 0 -116.5 34t-65 86t-33 112.5t-14.5 115.5q-2 39 -4 139.5t-2 235.5v180q-2 0 -4 2q-31 12 -31 43zM215 20 q0 -186 12.5 -333.5t37 -232.5t57.5 -85q37 0 65.5 45t45 119t16.5 162q0 76 -7.5 173t-31 189.5t-76.5 153.5q-45 -12 -96 -12h-21q-2 -45 -2 -90.5v-88.5zM217 231q23 0 44.5 3.5t41.5 7.5q-35 29 -84 41v-26t-2 -26zM236 532q72 154 127 313t86 326q8 45 13 87t5 75 q0 41 -8 65.5t-25 26.5h-2q-25 0 -47.5 -44t-38.5 -115q-39 -174 -66.5 -362t-43.5 -372zM700 1135q0 41 29 69.5t70 28.5t69.5 -28.5t28.5 -69.5t-28.5 -70t-69.5 -29t-70 29t-29 70z" />
<glyph unicode="&#xfb02;" horiz-adv-x="978" d="M49 276q0 33 35 46h2l4 151q2 90 8 204t19.5 233.5t35 233t53.5 204t78 143.5t107 53q51 0 82 -32.5t45 -79t14 -86.5q0 -94 -27.5 -213t-73.5 -246t-99 -250t-105 -227q-2 -16 -3 -35t-1 -35q47 -4 84 -23.5t68 -50.5q59 27 110.5 69t96.5 93q-2 29 -2 54.5v47.5v101 q0 61 4 150t16 191.5t35.5 202t60.5 181.5t90.5 131t126.5 49q63 0 90 -45t27 -121q0 -84 -27.5 -193.5t-72.5 -223t-99 -214.5q-27 -53 -59.5 -108.5t-66.5 -108.5v-4q0 -25 4 -79t14 -118.5t28.5 -125t46 -98.5t66.5 -38q53 2 85 44t51.5 95.5t29.5 92.5q8 18 17 18 q10 0 10 -26q0 -39 -15.5 -91.5t-45 -101.5t-74.5 -81t-105 -32q-82 0 -129 60.5t-70.5 152t-31.5 183.5q-39 -43 -85 -78t-98 -57q47 -57 76 -134t42.5 -159t13.5 -156q0 -123 -25 -227.5t-73 -169t-118 -64.5q-74 0 -116.5 34t-65 86t-33 112.5t-14.5 115.5 q-2 39 -4 139.5t-2 235.5v180q-2 0 -4 2q-31 12 -31 43zM215 20q0 -186 12.5 -333.5t37 -232.5t57.5 -85q37 0 65.5 45t45 119t16.5 162q0 76 -7.5 173t-31 190.5t-76.5 154.5q-25 -6 -49.5 -10t-51.5 -4h-16q-2 -45 -2 -90.5v-88.5zM217 231q23 0 44.5 3.5t41.5 7.5 q-35 29 -84 41v-26t-2 -26zM236 532q72 154 127 313t86 326q8 45 13 87t5 75q0 41 -8 65.5t-25 26.5h-2q-25 0 -47.5 -44t-38.5 -115q-39 -174 -66.5 -362t-43.5 -372zM705 606q41 72 74.5 145.5t60.5 143.5q53 137 89 274.5t36 223.5q0 98 -47 98q-43 0 -77 -66.5 t-58.5 -172t-41 -226.5t-24.5 -232.5t-12 -187.5z" />
<glyph horiz-adv-x="0" />
<glyph horiz-adv-x="682" />
<glyph unicode=" "  horiz-adv-x="389" />
<glyph unicode="&#x09;" horiz-adv-x="389" />
<glyph unicode="&#xa0;" horiz-adv-x="389" />
<glyph unicode="!" horiz-adv-x="475" d="M203 88q0 41 28.5 69.5t69.5 28.5t69.5 -28.5t28.5 -69.5t-28.5 -69.5t-69.5 -28.5t-69.5 28.5t-28.5 69.5zM227 1331v4q0 35 30 51.5t65 16.5q37 0 68.5 -17.5t31.5 -48.5v-6l-100 -872q-1 -21 -21 -21t-20 21z" />
<glyph unicode="&#x22;" horiz-adv-x="745" d="M166 1409v2q-2 16 22.5 22.5t51.5 6.5q31 0 56.5 -7.5t25.5 -21.5v-2l-70 -383q-1 -8 -19 -8q-8 0 -13 4l-5 4zM418 1409v2q-2 16 22.5 22.5t51.5 6.5q31 0 56 -7.5t25 -21.5v-2l-69 -383q-1 -8 -19 -8q-8 0 -13 4l-5 4z" />
<glyph unicode="#" horiz-adv-x="1251" d="M72 461q0 8 4 20q4 10 14 23.5t29 13.5h250l51 279h-266q-29 0 -29 30q0 6 4 19q4 10 15.5 23.5t27.5 13.5h262l64 352q6 27 39 27q18 0 33.5 -9.5t15.5 -27.5v-6l-60 -336h314l63 352q6 27 39 27q18 0 33.5 -9.5t15.5 -27.5v-6l-59 -336h237q16 0 21.5 -9.5t5.5 -19.5 q0 -8 -4 -20q-2 -10 -13.5 -23.5t-27.5 -13.5h-236l-49 -279h248q16 0 22.5 -10t6.5 -21q0 -8 -4 -20q-4 -8 -15.5 -21.5t-27.5 -13.5h-246l-74 -418q-6 -27 -39 -26q-18 0 -33.5 9t-15.5 28v6l72 401h-316l-73 -418q-6 -26 -39 -26q-18 0 -33.5 9t-15.5 28v6l71 401h-256 q-14 0 -20 9.5t-6 19.5zM461 518h313l51 279h-315z" />
<glyph unicode="$" horiz-adv-x="1024" d="M8 254q0 72 40 127t112 55q18 0 18 -12q0 -8 -10 -16q-8 -8 -19.5 -34t-13.5 -42q-2 -8 -2 -15.5v-13.5q0 -106 78 -168.5t182 -81.5l60 559q-66 41 -127.5 86t-106.5 97q-45 53 -67.5 112.5t-22.5 120.5q0 102 58.5 195.5t164.5 150.5q88 45 187 56l10 104q2 16 12 24.5 t23 8.5q12 0 23 -8.5t9 -24.5l-12 -104q119 -6 196 -72t77 -207q0 -55 -28 -85t-56 -30q-20 0 -36 15.5t-16 48.5v13t2 15q6 29 7 58q0 70 -36 123t-116 61l-63 -620l106 -66q104 -63 168.5 -112.5t94.5 -101.5t30 -124q0 -8 -1 -15t-1 -16q-12 -139 -135 -235t-342 -107 l-13 -114q-2 -16 -12 -24.5t-22 -8.5t-23.5 9.5t-9.5 23.5l10 112h-24.5t-24.5 2q-166 14 -247 91t-81 190zM301 1061q0 -45 14.5 -90t46.5 -82q23 -27 50.5 -50t58.5 -46l59 571q-68 -14 -119 -60.5t-80.5 -110t-29.5 -132.5zM461 45h24q39 0 77 5t71 18q68 23 105.5 67.5 t45.5 83.5q6 25 7 47q0 63 -39 114.5t-101.5 98.5t-134.5 92z" />
<glyph unicode="%" horiz-adv-x="983" d="M61 909q0 66 30 130.5t87.5 107.5t134.5 43q80 0 125 -49q35 -14 67 -21.5t60 -7.5q66 0 121 25.5t100 64.5q8 14 34 21.5t52 7.5q25 0 43.5 -6t18.5 -17q0 -6 -2 -8q-76 -127 -169 -279.5t-190.5 -314.5t-187.5 -315.5t-160 -280.5q-8 -14 -24.5 -21t-32.5 -7 q-12 0 -22.5 5t-10.5 15q0 2 4 10q61 115 135 249t152 277.5t154.5 284t144.5 264.5q-80 -25 -160 -24q-23 0 -44 2t-42 6q12 -37 13 -78q0 -66 -28 -132t-80 -109t-126 -43q-102 0 -149.5 60t-47.5 140zM170 909q0 -57 20.5 -102t63.5 -45q45 0 73.5 33.5t43 85t14.5 102.5 q0 61 -19.5 108.5t-58.5 47.5q-45 0 -75.5 -35t-46 -88t-15.5 -107zM545 276q0 66 29.5 130.5t87 107.5t135.5 43q92 0 135 -58.5t43 -136.5q0 -66 -28.5 -132t-81 -109t-124.5 -43q-102 0 -149 60.5t-47 137.5zM653 276q0 -57 20.5 -102t63.5 -45q45 0 74 34t43 85t14 102 q0 61 -19.5 108.5t-57.5 47.5q-45 0 -76 -35t-46.5 -88t-15.5 -107z" />
<glyph unicode="&#x26;" horiz-adv-x="1511" d="M117 283q0 18 3 37.5t5 37.5q25 121 113 207t208.5 139.5t243.5 71.5q-53 10 -114.5 22.5t-115.5 37t-89 71.5t-35 129v25q6 84 56 148.5t128 109.5t168 68.5t176 23.5h27.5t26.5 -2q92 -8 139 -55t47 -103q0 -47 -34 -89t-105 -64q-8 -2 -14.5 -3t-14.5 -1q-23 0 -39 9 t-16 19v2q4 8 23.5 12.5t45.5 16.5q43 16 67.5 43t24.5 49q0 20 -20.5 35.5t-67.5 19.5q-14 2 -27.5 2.5t-25.5 0.5q-127 0 -221 -48.5t-145.5 -120t-51.5 -141.5q0 -74 62.5 -127t199.5 -53q84 0 195 25h6q43 0 43 -35q0 -23 -15.5 -50.5t-33.5 -47t-33 -19.5h-30 q-100 0 -202 -14.5t-190 -51t-149 -106.5q-45 -49 -67.5 -104.5t-22.5 -108.5q0 -74 46 -132t140 -81q55 -12 125 -12q96 0 202.5 22.5t201 68.5t154 114.5t59.5 160.5q0 49 -32 80t-87 31h-14.5t-14.5 -2q-10 -2 -18.5 -2h-12.5h-2q-59 -8 -122.5 -24.5t-105.5 -47.5 t-42 -82q0 -18 6 -37q2 -6 3 -12t1 -12q0 -27 -16.5 -42.5t-36.5 -15.5q-29 0 -43 33q-2 10 -3 18.5t-1 16.5q0 49 34.5 92t91 77t121 59.5t124.5 39.5q43 10 112.5 28.5t141 45.5t114.5 62q47 39 47 75q0 29 -30.5 50.5t-81.5 25.5q-12 2 -23.5 2h-23.5q-43 0 -80 -6 t-62 -6h-2q-10 0 -10 8q0 18 27 35q68 37 151 37q80 0 146.5 -39t66.5 -129q0 -49 -41 -96.5t-108 -75.5q-45 -20 -96.5 -33.5t-94.5 -24.5q49 -16 72.5 -53t23.5 -86q0 -72 -48 -157t-136 -162.5t-212 -130t-277 -56.5h-25q-111 0 -206 34t-156 103q-33 37 -54.5 94.5 t-21.5 125.5z" />
<glyph unicode="'" horiz-adv-x="215" d="M2 1358q0 41 28.5 69.5t69.5 28.5q61 0 85 -32.5t24 -80.5q0 -82 -33 -169t-88 -138q-15 -12 -25 -12q-12 0 -12 14q0 10 6 17q47 59 63.5 109t16.5 81q0 6 -1 11.5t-1 9.5q-14 -6 -35 -6q-41 0 -69.5 28.5t-28.5 69.5z" />
<glyph unicode="(" horiz-adv-x="591" d="M123 479v47q0 113 16.5 230.5t55 228.5t104.5 199t163 139t232 51q31 0 31 -12q0 -6 -9 -13.5t-20 -7.5q-113 0 -189.5 -68.5t-123.5 -177t-69.5 -232.5t-26.5 -234q0 -18 -1 -37t-1 -37q0 -111 12 -225.5t45 -213t91.5 -158.5t150.5 -60q25 0 24 -21q0 -8 -8 -18.5 t-20 -10.5q-131 0 -219.5 56.5t-138.5 148.5t-72.5 204t-26.5 222z" />
<glyph unicode=")" horiz-adv-x="591" d="M-10 1362q0 12 33 12q152 0 253 -65.5t159.5 -173t83 -237.5t24.5 -261q0 -41 -2 -80t-6 -78q-10 -111 -40 -222.5t-86.5 -203.5t-146.5 -148.5t-223 -56.5q-12 0 -19.5 9.5t-7.5 19.5q0 20 27 21q78 0 135 46t95 123.5t61.5 174t36 197t14.5 190.5v51q0 109 -17.5 224.5 t-58.5 215t-111.5 160.5t-177.5 61q-8 0 -17 6.5t-9 14.5z" />
<glyph unicode="*" horiz-adv-x="962" d="M137 715q0 16 10 37q16 29 47 39t60 12q49 4 111.5 15t97.5 48q-51 29 -108.5 45.5t-116.5 28.5q-33 6 -64 25.5t-31 58.5q0 35 21.5 61.5t58.5 26.5q35 0 57.5 -21.5t41.5 -46.5q29 -39 67.5 -86t85.5 -61v10q0 57 -13 113.5t-30 109.5q-10 31 -10 56q0 47 37 67 q25 12 49 13q20 0 38.5 -9.5t28.5 -29.5t11 -39q0 -20 -7.5 -41t-15.5 -37q-16 -37 -36.5 -85t-20.5 -95q0 -8 1 -15.5t3 -15.5q51 29 92 71t80 85q16 20 38.5 34.5t49.5 14.5q16 0 33 -8q47 -27 47 -76q0 -23 -10 -39q-16 -27 -47 -37t-60 -14q-45 -4 -105.5 -14.5 t-97.5 -45.5q51 -29 107.5 -45t114.5 -26q35 -8 65.5 -25.5t30.5 -58.5q0 -33 -21.5 -60.5t-58.5 -27.5q-33 0 -57.5 21.5t-40.5 45.5q-27 39 -68 86t-88 62v-11q0 -57 14.5 -111t30.5 -108q10 -27 10 -53q0 -20 -8 -39.5t-31 -32.5q-20 -12 -45 -12q-20 0 -40.5 10.5 t-30.5 30.5t-11 39q0 20 7.5 40.5t15.5 37.5q18 39 37.5 87t19.5 93q0 16 -2 23q-51 -29 -94 -71t-82 -87q-16 -20 -38.5 -34.5t-47.5 -14.5q-14 0 -35 10q-20 12 -33.5 32.5t-13.5 43.5z" />
<glyph unicode="+" horiz-adv-x="980" d="M143 614q0 10 4 23q4 10 15.5 24.5t32.5 14.5h264v264q0 20 14 31.5t25 15.5q12 4 22 4q12 0 22.5 -6t10.5 -22v-287h285q16 0 23 -10.5t7 -24.5q0 -8 -4 -20q-4 -10 -16 -24.5t-31 -14.5h-264v-265q0 -20 -15.5 -31.5t-25.5 -15.5q-12 -4 -20 -4q-12 0 -22.5 7.5 t-10.5 23.5v285h-287q-14 0 -21.5 10t-7.5 22z" />
<glyph unicode="," horiz-adv-x="407" d="M158 84q0 37 25.5 69.5t82.5 32.5q43 0 62.5 -36.5t19.5 -71.5q0 -4 -1 -8t-1 -9q-14 -92 -50 -175t-69 -111q-8 -8 -20 -8q-18 0 -19 16q0 6 2 10q16 39 33 88t29 90q-29 23 -45.5 30t-32.5 30t-16 53z" />
<glyph unicode="-" horiz-adv-x="735" d="M139 559q0 8 4 21q4 10 15.5 23t27.5 13h416q16 0 22.5 -10t6.5 -20q0 -8 -4 -21q-4 -8 -15.5 -22.5t-27.5 -14.5h-418q-27 0 -27 31z" />
<glyph unicode="." horiz-adv-x="407" d="M160 88q0 41 28.5 69.5t69.5 28.5t69.5 -28.5t28.5 -69.5t-28.5 -69.5t-69.5 -28.5t-69.5 28.5t-28.5 69.5z" />
<glyph unicode="/" horiz-adv-x="933" d="M47 -51q0 10 4 16l742 1356q16 29 53 29q16 0 27.5 -7.5t11.5 -19.5q0 -10 -4 -16l-740 -1358q-8 -14 -22.5 -20.5t-28.5 -6.5q-16 0 -29.5 7.5t-13.5 19.5z" />
<glyph unicode="0" horiz-adv-x="952" d="M33 657q0 139 30.5 273.5t93 243t157 173t223.5 64.5q33 0 32 -18q0 -25 -45 -27q-76 -2 -134 -68.5t-98 -173t-60.5 -236.5t-20.5 -263q0 -150 28.5 -283t86 -216t145.5 -83q72 0 126 55.5t90 146.5t54.5 204.5t18.5 230.5q0 106 -15.5 205.5t-46 178.5t-75.5 125 t-107 46q-18 0 -41 -6q-2 0 -5 -1t-5 -1q-23 0 -23 26q0 18 14.5 41t41.5 29q45 10 77 10q115 0 188 -77.5t108.5 -203.5t35.5 -274q0 -141 -30.5 -281.5t-91 -258t-148.5 -188t-201 -70.5q-98 0 -174 56t-127 153.5t-76.5 218t-25.5 249.5z" />
<glyph unicode="1" horiz-adv-x="679" d="M59 922q0 10 15 18q43 27 102.5 83t113.5 128t79 137q-8 10 -9 27q0 27 23 41q33 23 69 40l35 17q33 0 50.5 -31.5t17.5 -78.5v-24.5t-4 -25.5q-12 -59 -20.5 -118.5t-16.5 -118.5q-14 -117 -23.5 -257.5t-9.5 -271.5q0 -117 8.5 -214t25.5 -155.5t46 -58.5 q0 -27 -33.5 -44t-73 -26t-59.5 -9q-66 0 -65 208q0 12 1 25.5t1 28.5q8 195 26.5 387t32.5 387q2 31 3 61.5t1 57.5q-57 -70 -131 -135.5t-151 -102.5q-4 -2 -13 -2q-14 0 -27.5 8t-13.5 19z" />
<glyph unicode="2" horiz-adv-x="1009" d="M45 49q0 47 45 90q90 88 157.5 155.5t123 128t105.5 125t105.5 144.5t123.5 187q41 61 69.5 149t28.5 164q0 70 -30 116t-107 46h-11q-61 0 -139 -41t-149.5 -102.5t-117.5 -127t-46 -114.5q0 -31 20 -51q8 -8 8 -15q0 -6 -8 -6t-22 8t-40 41t-46.5 72t-20.5 65v11 q8 35 54.5 91t107.5 101q98 72 193.5 105.5t179.5 33.5q100 0 177 -41t121 -112.5t44 -165.5q0 -80 -38 -173t-122 -190q-100 -115 -206.5 -204.5t-209 -181t-192.5 -210.5q-12 -12 -17 -32q61 6 137 15t154 18.5t142.5 14.5t101.5 5h35q55 0 110.5 -6t91 -33t35.5 -88 v-15.5t-2 -15.5q-12 -82 -30 -82q-4 0 -7 11q-6 31 -33.5 56t-68.5 34q-51 12 -125 12q-88 0 -190.5 -13.5t-197.5 -28.5t-165 -24q-12 -23 -53 -22h-15.5t-17.5 2q-16 4 -24.5 20.5t-12.5 30.5q-6 23 -6 43z" />
<glyph unicode="3" horiz-adv-x="1064" d="M33 137q0 72 65.5 114t149.5 68q6 2 11 3.5t11 1.5q37 0 37 -29q0 -23 -43 -45q-55 -27 -97 -60.5t-42 -66.5q0 -20 26.5 -40t94.5 -22h26q186 0 314.5 56.5t195 140.5t66.5 166q0 47 -23.5 90t-74.5 70q-45 25 -105.5 42t-150.5 17q-18 -4 -44 -9t-46 -8l-21 -3 q-6 0 -6 10q0 6 4 14t10 10q66 14 140.5 55.5t146.5 100.5t125 129q33 41 55.5 103.5t22.5 119.5q0 66 -36 112t-126 46q-51 0 -113.5 -24.5t-125 -66.5t-116 -90t-86 -97.5t-32.5 -88.5q0 -31 16 -47q6 -6 6 -16q0 -8 -8 -8q-10 0 -22 10q-14 8 -38 40t-42.5 72t-18.5 66 q0 10 2 14q10 35 60.5 88.5t113.5 96.5q102 68 197.5 97.5t177.5 29.5q100 0 175 -37t118 -100.5t43 -143.5q0 -66 -34 -138.5t-109 -143.5q-45 -45 -110.5 -82t-137.5 -66q96 -2 180 -22q96 -23 147.5 -93.5t51.5 -160.5q0 -76 -40 -155t-122 -144.5t-210 -106.5t-306 -41 h-37q-127 4 -196.5 58.5t-69.5 113.5z" />
<glyph unicode="4" horiz-adv-x="1026" d="M2 475q0 27 20 51l19 25q27 16 88 77.5t140 147.5t160 181.5t144.5 183.5t94.5 149q-8 10 -9 23q0 14 8.5 24.5t18.5 18.5q31 20 66 38l34 19q35 0 52.5 -31.5t17.5 -78.5v-24.5t-4 -25.5q-12 -59 -21.5 -118.5t-17.5 -118.5q-12 -88 -18.5 -190.5t-10.5 -204.5l2 2 q27 4 55.5 6t55.5 2q78 0 139.5 -25.5t61.5 -101.5v-15.5t-2 -15.5q-12 -82 -35 -82q-6 0 -10 12q-8 29 -38 52.5t-73 38.5q-68 23 -158 22q2 -123 10.5 -226.5t27 -166t46.5 -62.5q0 -25 -34.5 -43t-75 -28t-60.5 -10q-63 0 -63 210v52q4 70 8 136t8 134 q-113 -8 -228.5 -26.5t-212.5 -34t-153 -15.5h-18q-35 2 -35 39zM135 549q82 2 175 10t184.5 20.5t162.5 22.5q10 102 19.5 205.5t15.5 208.5q2 29 3 57.5t1 54.5q-45 -66 -113.5 -146.5t-148.5 -163.5t-158 -153.5t-141 -115.5z" />
<glyph unicode="5" horiz-adv-x="1064" d="M16 203q0 68 48.5 136.5t144.5 113.5t244 45h8q45 0 45 -21q0 -12 -37 -16q-168 -8 -248 -81t-80 -157q0 -82 72 -147.5t207 -65.5q16 0 34.5 1t37.5 3q106 14 182 72.5t116.5 141.5t40.5 169q0 133 -52 205t-137 100.5t-183 28.5q-35 0 -71 -3t-71 -7q-14 -2 -26 -3 t-23 -3l-18 -4h-37q-45 0 -45 28q0 12 6 27q10 25 19.5 59.5t15.5 59.5q23 102 22 205q0 76 -12 131h-10q-8 0 -19.5 21.5t-11.5 43.5q0 16 9.5 29.5t29.5 15.5q8 2 17.5 2h19.5q72 0 178.5 -18.5t218.5 -18.5q53 0 106.5 7.5t102.5 25.5q41 16 72 40t39 54q4 12 10 13 q8 0 17.5 -20.5t11.5 -61.5v-19q0 -57 -34 -89t-86 -43t-108 -11q-20 0 -38.5 1t-36.5 3q-66 6 -153 19.5t-189 13.5v-25q0 -82 -12.5 -164t-20.5 -163q-2 -8 -2 -16.5v-16.5v-15.5t2 -15.5q61 10 124.5 14t123.5 4q152 0 249 -49t144 -128t47 -173q0 -106 -59.5 -213.5 t-173 -187.5t-279.5 -109q-74 -12 -135 -12q-117 0 -196 35t-120 91t-41 118z" />
<glyph unicode="6" horiz-adv-x="948" d="M59 565q0 16 1 30.5t1 29.5q10 207 61.5 354t126.5 239.5t161 135.5t165 43q111 0 178.5 -63.5t67.5 -176.5q0 -55 -22 -133q-8 -23 -39 -45.5t-70 -22.5q-16 0 -35 7q-16 6 -16 10t13.5 14t23.5 39q43 115 43 193q0 131 -111 131q-68 0 -144.5 -58.5t-139 -188.5 t-86.5 -347q-2 -33 -5.5 -79t-3.5 -99q0 -90 10.5 -188.5t38 -184.5t76.5 -139.5t127 -53.5q63 0 112.5 41t84.5 107.5t52.5 146.5t17.5 158q0 115 -41 200t-125 85h-17q-45 -4 -94 -35t-85 -95.5t-44 -175.5q-2 -51 -25 -51q-10 0 -19 19.5t-9 54.5q0 16 2 35.5t8 42.5 q35 127 116 198.5t195 83.5q10 2 19.5 2h17.5q90 0 149.5 -45t88 -119.5t28.5 -164.5q0 -158 -56 -283t-157.5 -197.5t-234.5 -72.5q-117 0 -194.5 57t-125 150.5t-67 202t-19.5 208.5z" />
<glyph unicode="7" horiz-adv-x="915" d="M10 1249v17.5t2 17.5q10 80 29 80q6 0 8 -10q8 -29 31.5 -53.5t60.5 -34.5q49 -12 117 -13q88 0 188.5 13.5t192.5 30t156 22.5q4 0 8 1t8 1q12 0 18 -2h21q25 -2 31 -27q4 -6 7 -13t5 -11q10 -31 10 -49q0 -43 -37 -78q-59 -59 -134 -146.5t-151.5 -190t-141 -211 t-103.5 -214t-39 -195.5q0 -41 13.5 -81t39.5 -40v-2q0 -16 -24.5 -36.5t-59 -34t-65.5 -13.5q-27 0 -43 13q-18 16 -27.5 53t-9.5 72v16q0 111 42 217.5t107 202.5q74 106 163 205.5t175 193.5t148 183q14 16 14 47q-61 -8 -138 -18.5t-155 -21t-142.5 -17.5t-98.5 -7 q-53 0 -105.5 6t-86.5 34t-34 93z" />
<glyph unicode="8" horiz-adv-x="925" d="M33 301v10q0 117 50 207t125 154.5t144 101.5q-53 33 -98 72t-72.5 98.5t-27.5 149.5q0 98 54 165.5t138 102.5t172 35q80 0 151.5 -30t115.5 -90t44 -157q0 -86 -63.5 -164.5t-153.5 -134.5q74 -41 137.5 -96t102.5 -128t39 -173v-10q0 -137 -68.5 -235.5t-178 -151 t-234.5 -52.5q-104 0 -190.5 37t-136.5 110t-50 179zM199 334q0 -92 40 -150.5t101 -86t127 -27.5q117 0 199 72.5t82 207.5v6q0 90 -47.5 154.5t-116 114t-131.5 90.5q-66 -43 -124.5 -97.5t-94 -123t-35.5 -154.5v-6zM301 1130q0 -139 174 -233q39 -18 76 -41 q78 53 120 114.5t42 141.5q0 111 -63.5 164t-139.5 53q-78 0 -143.5 -51t-65.5 -148z" />
<glyph unicode="9" horiz-adv-x="923" d="M29 887q0 147 53 263t149.5 181.5t223.5 65.5t207.5 -54.5t127 -142.5t63.5 -193.5t17 -209.5q0 -106 -16 -222t-54 -225.5t-100.5 -198t-157 -140.5t-223.5 -52q-49 0 -102 16.5t-93 49t-54 84.5q-2 10 -3 19t-1 17q0 33 13 54.5t27 21.5q16 0 25 -31q20 -82 73.5 -129 t110.5 -47q94 0 160 43t108 115t66.5 157t36.5 170t16 154q2 25 3.5 53.5t1.5 61.5q0 84 -10.5 181.5t-38 184.5t-81 142t-137.5 55q-80 0 -134 -62.5t-81.5 -157.5t-27.5 -196q0 -84 19.5 -157.5t60 -118.5t102.5 -45h16q49 4 109.5 44t89.5 122q12 33 27 33q14 0 14 -31 q0 -20 -12 -51q-37 -86 -107 -135.5t-164 -59.5q-8 -2 -17 -2h-20q-90 0 -151.5 46t-94 121t-38.5 163q0 10 -1 21.5t-1 21.5z" />
<glyph unicode=":" horiz-adv-x="452" d="M205 88q0 41 28.5 69.5t69.5 28.5t69.5 -28.5t28.5 -69.5t-28.5 -69.5t-69.5 -28.5t-69.5 28.5t-28.5 69.5zM213 645q0 41 28.5 69.5t69.5 28.5t70 -28.5t29 -69.5t-29 -69.5t-70 -28.5t-69.5 28.5t-28.5 69.5z" />
<glyph unicode=";" horiz-adv-x="454" d="M205 84q0 37 25.5 69.5t82.5 32.5q43 0 62.5 -36.5t19.5 -71.5q0 -4 -1 -8t-1 -9q-14 -92 -50 -175t-69 -111q-8 -8 -20 -8q-18 0 -18 16q0 6 2 10q16 39 32.5 88t28.5 90q-29 23 -45 30t-33 30q-16 23 -16 53zM215 645q0 41 28.5 69.5t69.5 28.5t70 -28.5t29 -69.5 t-29 -69.5t-70 -28.5t-69.5 28.5t-28.5 69.5z" />
<glyph unicode="&#x3c;" horiz-adv-x="741" d="M86 557q0 29 6 52.5t17 31.5q16 14 59 54t100.5 93.5t117.5 109.5t112.5 104.5t85.5 77.5l32 30q8 4 11 4q14 0 14 -31q0 -29 -16 -45q-12 -18 -56.5 -67t-101.5 -112.5t-112.5 -124t-92.5 -99.5l-37 -39l391 -344q23 -8 35.5 -29.5t12.5 -38.5q0 -24 -23 -24q-8 0 -25 6 q-27 12 -86 47t-130.5 80t-138 88t-109.5 71l-43 27q-10 6 -16.5 28.5t-6.5 49.5z" />
<glyph unicode="=" horiz-adv-x="1150" d="M227 438q0 8 4 21q4 10 16.5 24.5t31.5 14.5h645q16 0 22 -10.5t6 -22.5q0 -10 -4 -23q-2 -8 -14 -23.5t-31 -15.5h-645q-16 0 -23.5 10.5t-7.5 24.5zM227 809q0 8 4 20q4 10 16.5 24.5t31.5 14.5h645q16 0 22 -10t6 -20t-4 -23q-2 -10 -14 -25.5t-31 -15.5h-645 q-16 0 -23.5 10.5t-7.5 24.5z" />
<glyph unicode="&#x3e;" horiz-adv-x="796" d="M186 1092q0 25 23 24q10 0 24 -6q27 -12 86.5 -47t131 -80t138 -88t109.5 -71l43 -27q12 -4 17.5 -28t5.5 -50q0 -27 -5 -51.5t-18 -32.5q-16 -14 -59 -54t-100.5 -93.5t-118 -109.5t-112.5 -104.5t-85 -77.5l-33 -30q-8 -4 -10 -4q-14 0 -14 31q0 29 16 45 q12 16 56.5 66t101.5 112.5t112.5 123t92.5 99.5l37 39l-392 346q-20 10 -33.5 30.5t-13.5 37.5z" />
<glyph unicode="?" horiz-adv-x="749" d="M135 1133v6q10 143 109.5 226t242.5 83q121 0 184.5 -61.5t63.5 -151.5q0 -82 -33.5 -151.5t-84 -126t-99.5 -101.5q-63 -57 -118.5 -106.5t-88.5 -133.5q-14 -41 -14 -71q0 -33 12.5 -52.5t30.5 -27.5q10 -4 10 -12q0 -12 -16 -19q-5 -2 -15 -2q-20 0 -42.5 17.5 t-30.5 44.5q-2 12 -5 25t-3 28q0 98 88 219q43 59 90 141t84 164q37 84 37 148q0 72 -38 112.5t-100 40.5q-70 0 -118 -39t-76.5 -97t-38.5 -120q-4 -14 -14 -14q-16 0 -17 31zM221 88q0 41 29 69.5t69 28.5q41 0 70 -28.5t29 -69.5t-29 -69.5t-70 -28.5t-69.5 28.5 t-28.5 69.5z" />
<glyph unicode="@" horiz-adv-x="1781" d="M213 692q0 141 47 275.5t141.5 242t236.5 171t331 63.5q180 0 307 -50.5t206 -135t115.5 -190t36.5 -218.5t-31.5 -219.5t-88 -192.5t-132 -137t-165.5 -51q-70 0 -113 36t-64.5 93t-28.5 125.5t-7 132.5q0 35 1 64.5t1 56.5q-14 -61 -44 -144.5t-70 -162t-85 -131 t-92 -52.5h-2q-55 0 -84 71t-33 163v59q0 72 12.5 175.5t57.5 191.5q49 96 128.5 144t170.5 48q43 0 77 -8q14 20 40 36.5t67 16.5q29 0 55 -8q-6 -31 -19.5 -116t-23.5 -194.5t-10 -215.5q0 -86 10 -159t35 -116t68 -43q63 0 116.5 72t86 185.5t32.5 240.5 q0 106 -27.5 209.5t-90 188.5t-165 135.5t-251.5 50.5q-137 0 -247 -61.5t-187.5 -165t-118.5 -231.5t-41 -259q0 -133 30.5 -255t98 -217t174 -149.5t260.5 -54.5q129 0 252 38t228.5 106.5t176.5 160.5q23 31 51 31q43 0 44 -47q0 -31 -29 -66q-74 -86 -185.5 -147.5 t-242.5 -94t-268 -32.5q-371 0 -559.5 190.5t-188.5 550.5zM743 514q0 -45 11.5 -64.5t25.5 -19.5q16 0 33.5 15.5t28.5 33.5q72 119 127 255t65 278v16q0 55 -33 55q-59 0 -102 -42t-72.5 -109.5t-48 -143t-27 -145.5t-8.5 -115v-14z" />
<glyph unicode="A" horiz-adv-x="1286" d="M-37 973q0 57 28.5 111.5t86.5 84.5q4 2 8 2q12 0 12 -12t-10 -18q-33 -23 -47 -68t-14 -90q0 -68 42 -106.5t113 -53.5q59 182 181 321.5t284 225.5t334 105q20 2 38.5 3t35.5 1q121 0 173 -46.5t52 -113.5q0 -70 -45 -150q-14 -23 -29.5 -45t-31.5 -43 q-10 -80 -23.5 -226t-13.5 -312q0 -66 2 -131.5t10 -130.5q6 -51 16.5 -108.5t26.5 -109t37.5 -84t50.5 -32.5h4q16 0 29.5 10t15.5 23q2 14 12 14q14 0 15 -23v-14q0 -92 -88 -92h-13q-63 6 -110 62.5t-79 149.5t-50 206q-12 78 -19.5 160.5t-9.5 166.5 q-29 -102 -73 -204.5t-101 -189.5t-126 -145.5t-148 -72.5q-31 -6 -62 -6q-111 0 -186.5 74.5t-114.5 198.5t-39 270v28.5t2 28.5q2 45 9.5 88t15.5 84q-88 16 -144.5 65.5t-56.5 143.5zM295 500q0 -121 23.5 -223.5t72.5 -163t123 -60.5q8 0 16.5 1t16.5 3q68 12 128 75 t111.5 158t92.5 204.5t67 218.5q12 51 25.5 99t21.5 91l2 31q-98 -59 -214.5 -98t-233.5 -58.5t-223 -23.5q-18 -70 -25 -142q-2 -29 -3 -56.5t-1 -55.5zM340 813q104 4 222 20.5t232.5 54.5t206.5 101q4 51 11.5 95t15.5 79q2 6 19.5 11.5t39.5 5.5q18 0 38 -4.5t36 -16.5 l4 8t4 9q33 66 33 120q0 61 -42 102.5t-134 41.5q-12 0 -25.5 -1t-27.5 -3q-115 -14 -214.5 -71.5t-181 -144.5t-142 -191.5t-95.5 -215.5z" />
<glyph unicode="B" horiz-adv-x="1443" d="M-135 1030q0 90 59.5 156.5t156.5 114t213 78t228 48.5q51 8 121 13.5t148 5.5q113 0 229.5 -14.5t215.5 -50t159.5 -99t60.5 -160.5q0 -86 -47 -158.5t-123 -131t-160 -99.5t-157 -61q111 -6 212 -36t165.5 -97.5t64.5 -188.5q0 -98 -49 -174t-127 -126t-166 -75.5 t-166 -25.5q-68 0 -118 19.5t-70 58.5q-14 -8 -45 -20.5t-62 -12.5t-51 14q-49 35 -67.5 119t-26.5 184q-2 33 -3 67t-1 68q0 119 11 244t28.5 237.5t38 199.5t36.5 133q4 6 24.5 11t47.5 5q29 0 55.5 -7t38.5 -30q-6 -29 -28.5 -109.5t-48 -196.5t-47 -252t-25.5 -275v-52 q0 -70 7 -142.5t26.5 -122.5t54.5 -52h4q6 0 13 1t16 3q-4 16 -4 27q0 59 61 132.5t171 137t249 86.5q6 2 11 2h7q23 0 23 -10q0 -12 -31 -19q-78 -12 -149.5 -47t-129 -79t-91 -87t-33.5 -71q0 -23 22.5 -34t59.5 -11q55 0 128.5 22.5t144.5 65.5t117 104.5t46 136.5 q0 63 -38 117.5t-126 88.5t-236 34q-39 0 -79.5 -6t-79.5 -25q-6 0 -11.5 -1t-9.5 -1q-39 0 -55 19.5t-16 42.5t12 40t26 17q96 4 184.5 24.5t174.5 65.5q63 33 134 84t121 119.5t50 152.5q0 59 -38 95t-100.5 56.5t-136 28t-145.5 7.5q-70 0 -130 -4t-95 -9 q-49 -4 -139.5 -20t-193.5 -43t-196.5 -66.5t-154 -90t-60.5 -113.5q0 -51 42 -83t108 -32q68 0 152.5 36t173.5 118q4 4 6 4q4 0 4 -9q0 -12 -8.5 -32.5t-28.5 -38.5q-72 -66 -160 -97.5t-170 -31.5q-20 0 -40.5 2t-39.5 6q-70 16 -109.5 65.5t-39.5 112.5z" />
<glyph unicode="C" horiz-adv-x="1325" d="M74 506q0 137 42 273t117.5 257t180 215.5t230.5 148.5t267 54h31q74 -2 138.5 -26.5t104.5 -77t40 -142.5q0 -100 -59.5 -195t-158 -173t-217 -124t-239.5 -46q-8 0 -16.5 1t-18.5 1q-27 2 -38 20.5t-11 30.5q129 0 255 41t227.5 126t156.5 218q29 70 29 127 q0 59 -36 99t-122 44h-14q-82 0 -178.5 -46t-190.5 -130t-171 -198.5t-124 -255t-47 -297.5v-19q0 -162 50 -257t135 -136t186 -41h31.5t29.5 2q102 10 204.5 62.5t190.5 130t146.5 170t70.5 180.5q2 10 11 10q8 0 16 -6t8 -15v-2q0 -92 -38 -169.5t-87 -143.5 q-92 -123 -236.5 -198.5t-295.5 -92.5q-18 -2 -37 -3t-37 -1q-131 0 -243.5 51.5t-186.5 161t-92 283.5q-2 23 -3 45t-1 43z" />
<glyph unicode="D" horiz-adv-x="1789" d="M0 1044q0 82 50 145.5t133 113t184 81.5q123 41 265 66t286 25q170 0 331.5 -38t290.5 -124q115 -76 182.5 -189.5t67.5 -259.5q0 -180 -78 -336.5t-211 -275.5t-297 -185.5t-336 -66.5q-57 0 -88.5 25.5t-31.5 50.5q0 16 14 27.5t45 11.5q170 0 329.5 63.5t288.5 173 t205 250.5t76 297q0 115 -49 192.5t-129 129.5q-117 74 -268.5 106.5t-309.5 32.5q-141 0 -276 -22.5t-248 -57.5q-82 -27 -154.5 -66.5t-116.5 -88t-44 -101.5q0 -51 42 -83t107 -32q68 0 153 36t173 118q4 4 6 4q6 0 6 -10q0 -12 -9 -32.5t-28 -37.5q-72 -66 -160 -97.5 t-170 -31.5q-20 0 -41.5 2t-39.5 6q-70 16 -110 65.5t-40 112.5zM580 358q0 123 14 254t35.5 250t40.5 203q12 53 22 107.5t31 101.5q2 6 9 8t13 2q14 0 46 -6t62 -18.5t36 -30.5v-10q-43 -127 -86 -277.5t-72 -311.5t-29 -323v-8q0 -57 1.5 -122.5t10.5 -125t29 -100.5h-6 q-49 0 -77.5 38t-45.5 83q-18 59 -26 131.5t-8 154.5z" />
<glyph unicode="E" horiz-adv-x="1402" d="M-57 1188q0 70 57 120t158 50q59 0 123.5 -27.5t101.5 -62.5q25 -25 25 -37q0 -10 -15 -10q-12 0 -22 6q-51 31 -103.5 44t-103.5 13q-63 0 -101 -33.5t-38 -81.5q0 -43 40.5 -91t131 -82.5t237.5 -45.5q-10 37 -10 74q0 109 51 187.5t134 132t180.5 79t191.5 25.5 q152 0 239 -61.5t87 -145.5q0 -74 -78 -148.5t-248 -126t-446 -57.5q37 -43 110.5 -70.5t188.5 -27.5q47 0 102 5t119 18h8q55 0 55 -39q0 -33 -29.5 -70t-52.5 -37h-30q-102 0 -220 -18.5t-231 -61.5t-203 -114.5t-135 -180.5q-27 -66 -27 -116q0 -70 46.5 -109t120 -55.5 t155.5 -16.5q84 0 165 11.5t136 25.5q147 37 268 105.5t174 132.5q47 55 48 102q0 49 -47.5 77t-120.5 28q-96 0 -219 -54.5t-230 -177.5q-18 -23 -31 -22q-10 0 -10 12t10.5 31.5t32.5 46.5q63 72 150.5 123t179.5 79.5t168 28.5h4q102 0 156.5 -58t54.5 -140 q0 -51 -20.5 -104.5t-63.5 -102.5q-63 -74 -176 -136.5t-255 -100.5t-296 -38q-127 0 -237.5 33t-180.5 113q-29 35 -46 85t-17 111q0 55 14 107q27 92 98.5 166.5t166.5 130t192.5 90.5t175.5 49q-57 10 -117.5 23.5t-110 40t-77.5 75.5q-180 6 -293 49t-164 105.5 t-51 124.5zM498 1014q0 -37 14 -66h6q236 0 376 37t202.5 92.5t62.5 110.5q0 59 -61.5 103t-161.5 44q-70 0 -145.5 -21.5t-142 -63.5t-108.5 -101t-42 -135z" />
<glyph unicode="F" horiz-adv-x="1525" d="M25 1006q0 72 38.5 146.5t119.5 137t210 100t309 37.5q86 0 186.5 -14t205.5 -35q2 4 3 9.5t3 9.5q2 6 9 7t13 1q51 0 89 -13.5t38 -41.5q90 -14 175 -25.5t161 -11.5q72 0 129 12q35 8 53.5 29.5t18.5 42.5q0 29 -27 43q-2 2 -2 6q0 10 8 10q39 0 67 -30.5t28 -71.5 q0 -39 -36 -76t-124 -47q-55 -6 -113 -6q-88 0 -177 11t-179 26q-20 -94 -48 -251t-50 -327q111 2 218 15.5t183 41.5q10 6 14 7q14 0 17 -13v-4q0 -12 -14.5 -20.5t-18.5 -12.5q-37 -16 -103.5 -36.5t-146.5 -40t-162 -33.5q-4 -57 -8 -110.5t-6 -106.5q0 -20 -1 -43 t-1 -47q0 -70 7 -140.5t27.5 -118t61.5 -47.5q20 0 36.5 12.5t23.5 26.5q6 16 14 17q12 0 12 -21v-4q0 -49 -29.5 -82t-80.5 -33q-61 0 -101.5 45.5t-62 121t-30.5 168.5t-9 190q0 41 1 78.5t3 76.5q-10 -2 -21.5 -2h-21.5q-61 0 -98 13q-18 6 -34 30.5t-25 53t-9 43.5 q0 10 4 10h2q49 -14 98.5 -22.5t98.5 -8.5h14q4 51 8 91t6 67q12 127 30 240.5t38 201.5q-74 10 -148.5 17.5t-152.5 7.5q-59 0 -121.5 -5t-126.5 -20q-125 -27 -211 -82t-129 -120.5t-43 -127.5q0 -63 52.5 -109t158.5 -46q16 0 32.5 1t35.5 3q55 8 133 34.5t161 66.5 t148 87q6 6 25 6q8 0 8 -6t-9.5 -19t-33.5 -38q-102 -100 -238.5 -146.5t-267.5 -46.5q-20 0 -39.5 1.5t-38.5 3.5q-113 12 -175 85.5t-62 170.5z" />
<glyph unicode="G" horiz-adv-x="1423" d="M-111 846q0 47 25 84t59.5 61.5t63.5 34.5q4 2 10 2q14 0 14 -10t-16 -21q-27 -14 -50.5 -53t-23.5 -74q0 -68 52.5 -109.5t121.5 -64.5q45 162 138.5 313.5t232.5 263t320 150.5q39 8 79.5 13.5t79.5 5.5q66 0 123.5 -18.5t93 -62.5t35.5 -126q0 -111 -61.5 -206 t-156.5 -170t-200.5 -125t-193.5 -72q-84 -20 -172 -32t-166 -14q-35 -143 -35 -260q0 -133 48 -221t151 -88q70 0 150.5 43t162.5 120t152 179q51 76 91 161t64 177q8 98 44 143t78 58.5t69 13.5h20q31 0 31 -12q0 -4 -8 -12q-25 -20 -39 -75t-20.5 -127.5t-9.5 -147 t-3 -136t-2 -94.5q55 33 98 48t66 15q10 0 14 -2q14 -2 15 -20q0 -12 -11 -12h-8q-20 0 -63 -21.5t-79 -50.5t-36 -49v-23q0 -223 -45 -381.5t-115.5 -258t-150.5 -145.5t-152 -46q-76 0 -128 49t-52 137q0 35 10 77t31 87q78 164 198.5 292t276.5 222q0 37 -2 96.5t-5 127 t-7 124.5q-35 -80 -76 -158.5t-70 -121.5q-68 -102 -155.5 -178t-182 -118t-182.5 -42q-111 0 -183.5 57t-107.5 156.5t-35 220.5q0 102 25 209q-102 20 -171 71.5t-69 145.5zM311 670h19q141 0 295 41q72 18 160.5 67t171.5 120t137.5 154t54.5 169q0 80 -48 116.5 t-122 36.5q-27 0 -56.5 -5t-62.5 -15q-131 -39 -239.5 -145.5t-186.5 -247.5t-123 -291zM678 -397q0 -76 35 -117t86 -41t107.5 46t99.5 147q57 133 74.5 275t23.5 288q-25 -14 -76 -56.5t-112.5 -102.5t-116 -130t-82.5 -141q-39 -92 -39 -168z" />
<glyph unicode="H" horiz-adv-x="1712" d="M-78 86q0 82 38 167t114 155q147 137 330.5 201.5t392.5 80.5q14 109 17 198t3 146q-80 -70 -189.5 -120t-223 -76.5t-211.5 -26.5q-131 0 -198 57.5t-67 132.5q0 61 44 121t132.5 99t219.5 39q96 0 172.5 -20.5t115.5 -43.5q20 -12 21 -20q0 -12 -25 -13q-10 0 -16 2 q-45 12 -112.5 19.5t-110.5 7.5q-150 0 -223.5 -59.5t-73.5 -124.5q0 -53 49 -94.5t145 -41.5q106 0 212 32t195 77t144 86q-2 25 -3 58.5t-1 72.5q0 53 8 105.5t30.5 86t68.5 33.5q35 0 51 -26.5t16 -67.5q0 -63 -34.5 -139t-90.5 -117q4 -39 15.5 -141.5t13.5 -235.5 q39 2 79 3t79 1q35 0 72.5 -1t74.5 -3q53 -2 108.5 -5t106.5 -5q6 115 17.5 242t26.5 248.5t34 220.5q2 6 12 7l10 1q53 0 92 -13.5t39 -43.5q-6 -33 -22 -132.5t-34.5 -238.5t-31.5 -291q51 0 76 10q18 8 31 9q12 0 12 -11q0 -14 -18 -28q-33 -23 -105 -29q-4 -51 -10 -135 t-6 -174t10 -174t36 -137.5t73 -53.5q20 0 42.5 18.5t26.5 32.5q6 16 15 17q12 0 12 -23v-2q0 -49 -37 -74.5t-88 -25.5q-70 0 -114 44t-67.5 118.5t-32.5 167t-9 186.5q0 113 6 207q-55 0 -115.5 2t-120.5 2q-68 0 -138 -1t-142 -5q-2 -125 -23.5 -253t-74.5 -235 q-49 -98 -130 -178t-184.5 -126t-222.5 -46q-111 0 -185.5 41t-111.5 108.5t-37 147.5zM27 4q0 -68 36.5 -114t126.5 -46q111 0 202 56.5t163 148.5t123 201q41 86 67.5 181t40.5 185q-170 -18 -329.5 -73.5t-280.5 -177.5q-33 -33 -67.5 -94.5t-58 -132t-23.5 -134.5z" />
<glyph unicode="I" horiz-adv-x="976" d="M-12 403v34t2 34q2 31 13 60.5t38 39.5q12 6 29 7q14 0 32.5 -8.5t38.5 -28.5q45 -41 124 -84t175.5 -80t190.5 -62q23 70 40 151t31 171q18 111 26.5 219.5t8.5 202.5q0 66 -4 121t-10 92q-8 53 -31.5 95t-66.5 42q-59 0 -95 -51t-51.5 -135t-15.5 -183 q0 -109 16.5 -217t43 -190t57.5 -113q12 -12 12 -20q0 -12 -21 -13q-23 0 -36 17q-47 51 -84 140t-58.5 197.5t-21.5 217.5q0 106 24.5 198.5t77.5 152.5t139 67h25q78 0 128 -38t76.5 -101.5t37 -141.5t10.5 -156q0 -76 -6 -143.5t-11 -114.5q-14 -143 -44.5 -268 t-77.5 -223q29 -4 55 -7t49 -3q35 0 61 6q37 10 56.5 23.5t32.5 27.5q12 14 26 14q20 0 21 -18v-4q0 -39 -74 -71t-219 -32h-41q-70 -119 -164 -187.5t-215 -68.5h-12q-106 0 -174 40t-103 104.5t-48 140.5t-13 147zM92 406q2 -92 23.5 -180.5t76 -145.5t156.5 -57 q92 0 153.5 58t102.5 161q-88 16 -184 43.5t-182 60.5t-146 60z" />
<glyph unicode="J" horiz-adv-x="1097" d="M43 776v23.5t2 21.5q12 109 66.5 217.5t135.5 197.5t179 143.5t199 54.5h12q121 0 195.5 -56.5t115.5 -146.5t56.5 -194.5t15.5 -202.5v-3q39 4 79 7.5t79 3.5q23 0 47 -1t49 -3q33 -2 33 -17q0 -16 -33 -16h-6q-16 0 -35 1t-35 1q-45 0 -90 -4t-88 -12q0 -14 -1 -26.5 t-1 -25.5q-4 -72 -24.5 -173t-57.5 -213.5t-89 -221t-118.5 -197t-148 -140.5t-177.5 -52q-100 0 -164.5 69.5t-64.5 215.5q0 27 2 53t6 57q23 147 116 277.5t236.5 229.5t317.5 151q2 12 2 23v22v39q0 74 -7 158.5t-31.5 158.5t-75 121t-138.5 47h-17.5t-19.5 -2 q-104 -12 -192 -83t-145.5 -179.5t-73.5 -231.5q-2 -14 -3 -26.5t-1 -22.5q0 -86 43 -86q12 0 28 10q2 2 6 2q6 0 6 -10q0 -16 -23.5 -50t-70.5 -40h-14q-47 0 -64.5 41t-17.5 90zM268 -4q0 -94 36 -144.5t91 -50.5q88 0 158 66.5t122 175.5t88 236t56.5 248.5t28.5 213.5 q-145 -57 -262 -151t-194 -210t-105 -237q-18 -82 -19 -147z" />
<glyph unicode="K" horiz-adv-x="1241" d="M84 475q0 129 9 264t25.5 261t38 228.5t44.5 168.5q2 6 9 7t13 1q53 0 82 -16.5t45 -59.5q-6 -27 -21.5 -97.5t-35 -170.5t-37.5 -218t-31.5 -239t-17.5 -233q0 -20 -1 -43t-1 -47q0 -70 7 -140.5t27.5 -118t61.5 -47.5q20 0 36.5 12.5t22.5 26.5q6 16 15 17q12 0 12 -21 v-4q0 -29 -14.5 -58.5t-44.5 -43.5q-24 -13 -49 -13q-39 0 -71 28t-53.5 67t-31.5 75q-20 82 -29.5 188.5t-9.5 225.5zM307 750q0 59 30 115.5t99 119.5q49 43 124 98.5t164 110.5t176 102t162 76t120 29h6q55 0 55 -17q0 -12 -39 -22q-39 -8 -114.5 -45t-167 -90 t-180.5 -113.5t-156.5 -118t-91.5 -100.5q-16 -29 -26.5 -59.5t-10.5 -65.5q0 -68 43 -147q84 -150 194.5 -280t231.5 -196q25 -14 75 -35.5t91 -21.5q25 0 42 12.5t19 42.5v9q0 51 -31.5 108t-58.5 96q-20 35 -21 50q0 12 11 12q25 0 59 -39q20 -20 43 -50t39 -61 q45 -82 45 -141q0 -76 -60.5 -111.5t-144.5 -35.5q-59 0 -121.5 16t-115.5 47q-92 53 -180.5 136t-157 182.5t-107.5 197.5q-20 53 -32.5 99.5t-12.5 89.5z" />
<glyph unicode="L" horiz-adv-x="1024" d="M20 -53q0 20 5.5 39.5t15.5 23.5q33 12 81 25.5t105 23.5q23 35 36 75t22 85q6 39 8 80t2 84q0 94 -6 197.5t-6 207.5q0 152 29.5 294.5t127.5 252.5q66 76 157 119t206 43q113 0 184.5 -63.5t106 -165t34.5 -217.5q0 -102 -26.5 -205t-78.5 -187t-128 -135t-174 -51 q-82 0 -145.5 57.5t-79.5 182.5q-2 10 -2 20v21q0 41 7 84t19 63t31 21q12 0 12 -17q0 -12 -6 -31q-16 -53 -16 -114q0 -57 16 -112.5t51 -91.5t90 -36q74 0 149 63.5t124 188.5t49 305q0 100 -23.5 185.5t-70.5 138.5t-119 53q-88 0 -153.5 -50t-110.5 -134 q-39 -76 -60.5 -177.5t-32 -219t-18.5 -238.5t-22.5 -234.5t-42.5 -207.5q-10 -33 -21.5 -62t-28.5 -53q80 12 167 20t171 8q115 0 211.5 -19t154.5 -65.5t58 -125.5q0 -66 -36.5 -104t-84.5 -38h-2q-25 0 -24 15q0 6 8 10q18 8 48 23.5t32 74.5v8q0 70 -55.5 96.5 t-143.5 26.5q-92 0 -204.5 -20.5t-222 -47t-196.5 -47t-128 -20.5q-4 0 -8.5 1t-8.5 1q-14 4 -20 17.5t-10 27.5q-2 8 -3 27z" />
<glyph unicode="M" horiz-adv-x="2433" d="M-4 778q0 119 45 264.5t133 270.5q84 119 179.5 188.5t201.5 69.5q123 0 203 -56.5t127 -148.5t69.5 -200.5t29.5 -216t7 -193.5q45 209 122 357.5t168 228t173 79.5q96 0 162.5 -115.5t66.5 -367.5q0 -37 -2 -78t-6 -86q0 -8 -2 -34.5t-4 -55.5q14 37 33.5 89t32.5 81 q47 115 106.5 230.5t131 212t151.5 154.5t166 58h10q154 0 154 -233q0 -61 -9.5 -138t-31.5 -169q-6 -31 -27 -106t-47.5 -176t-53 -211.5t-47.5 -215.5q-16 -88 -26 -174t-10 -164q0 -143 42 -236.5t148 -93.5q63 0 116.5 31t78.5 76q6 12 16 12q12 0 12 -14v-2 q0 -43 -33.5 -85t-87 -68.5t-116.5 -26.5q-68 0 -131 39q-94 59 -131 179t-37 263q0 129 20.5 265t46 258t43.5 210q29 139 58.5 275.5t40.5 248.5q2 16 2 28.5v25.5q0 98 -49 98h-3q-66 0 -141.5 -68.5t-150 -188.5t-138.5 -276q-84 -211 -121.5 -379.5t-56.5 -322.5 q-6 -45 -31.5 -72.5t-58.5 -31.5h-8q-20 0 -43 11t-23 32v6q25 121 40.5 235.5t27.5 237.5q8 72 11 136t3 122q0 231 -48 344t-120 113q-84 0 -183 -154t-175 -453q-12 -51 -27.5 -161.5t-28 -266t-20.5 -342.5q-4 -59 -86 -59q-37 0 -69.5 19.5t-34.5 41.5q8 57 22.5 155.5 t28.5 223.5t22 260q6 104 7 195q0 260 -44 419.5t-116 234.5t-156 75q-74 0 -147.5 -52.5t-134.5 -148.5q-61 -94 -101.5 -216t-40.5 -286q0 -80 34 -139t99 -59q41 0 88 26q2 2 7 2q12 0 12 -16t-21 -29q-68 -38 -132 -38h-3q-82 0 -133 63.5t-51 179.5z" />
<glyph unicode="N" d="M-78 1206q0 90 23.5 170t74.5 133q33 35 72 50.5t80 15.5q63 0 122.5 -31t98.5 -78q66 -82 108 -191.5t61.5 -229t19.5 -234.5q0 -27 -1 -53.5t-3 -52.5q35 145 82 273t107 226.5t128 151.5q111 84 211 84q111 0 181.5 -94.5t70.5 -249.5q0 -45 -6 -95 q-20 -141 -61.5 -293.5t-69.5 -295.5q-8 -39 -19.5 -114t-11.5 -153q0 -66 13.5 -126t47 -97t92.5 -37q47 0 77 29t42 72q6 20 21 20q12 0 12 -14v-4q0 -61 -47 -110.5t-129 -49.5q-141 0 -201.5 114.5t-60.5 301.5q0 98 14 210.5t41 235.5q6 25 24.5 97.5t35 166 t16.5 179.5q0 80 -21.5 138t-81.5 70q-8 2 -17 3.5t-19 1.5q-74 0 -135.5 -56.5t-110.5 -148.5t-86 -202t-62.5 -218.5t-40 -197.5t-20.5 -140q-8 -82 -16.5 -182.5t-18.5 -218.5q-2 -29 -39 -54.5t-74 -25.5h-6q-33 0 -59.5 13t-26.5 34q16 82 31.5 210t24.5 271 q4 72 10 170t6 205q0 123 -12.5 244.5t-43 226t-87.5 170.5q-51 57 -107 57q-47 0 -86 -45t-55 -137q-2 -20 -5 -44t-3 -50q0 -94 23.5 -205t64.5 -209t94 -158q4 -4 4 -10t-12 -6q-14 0 -41 11.5t-49 37.5q-90 102 -139.5 242.5t-49.5 275.5z" />
<glyph unicode="O" d="M8 811q0 51 23.5 86t55.5 57.5t58 30.5q2 0 4.5 1t4.5 1q14 0 14 -16q0 -12 -14 -19q-25 -10 -46.5 -49t-21.5 -78q0 -61 38 -107t93 -79q10 147 62.5 290.5t144.5 259.5t224 184.5t302 68.5q197 0 291 -92.5t94 -227.5q0 -96 -30 -176q61 -129 61 -297q0 -129 -39 -257 t-118 -233.5t-197.5 -170t-276.5 -64.5q-131 0 -228 51.5t-161.5 140.5t-97.5 203.5t-33 239.5q-90 33 -148.5 95.5t-58.5 156.5zM379 502q0 -141 37 -262t114.5 -195t198.5 -74q111 0 205 65.5t164.5 172t109.5 234.5t39 253q0 33 -3 64t-7 59q-82 -109 -209 -176.5 t-267 -98t-263 -30.5q-59 0 -119 6v-18zM381 580q31 -8 61 -11.5t50 -3.5q96 0 201.5 22.5t204.5 70t177 118t121 168.5q-37 78 -103.5 133.5t-166.5 75.5q-8 2 -8 8q0 14 22 15h21q84 0 151.5 -31t116.5 -84q6 37 6 76q0 94 -46 150t-111.5 82t-121.5 26q-127 0 -229 -72 t-176 -190.5t-117 -263t-53 -289.5z" />
<glyph unicode="P" horiz-adv-x="1335" d="M6 1221q0 53 29 82q37 37 142.5 65.5t238.5 46.5q47 6 127 12.5t174 6.5q121 0 250 -14.5t240.5 -49.5t181 -99.5t69.5 -164.5q0 -113 -53 -220.5t-149.5 -193.5t-225.5 -136t-280 -50q-33 0 -65 2t-67 8q-4 -39 -6 -78t-4 -76q0 -20 -1 -44.5t-1 -51.5q0 -68 7.5 -137.5 t28 -115.5t60.5 -46q20 0 43 8.5t29 16.5h14q-4 -55 -37.5 -84t-76.5 -29q-47 0 -94.5 37t-67.5 113q-20 78 -28.5 179t-8.5 214q0 160 14.5 326.5t38 316t50.5 252.5q-35 -6 -64 -10t-49 -9q-104 -18 -189.5 -42.5t-135.5 -55.5t-50 -70q0 -12 10 -32q4 -8 4 -15 q0 -14 -12 -14q-16 0 -41 25q-18 16 -31.5 53t-13.5 74zM627 600h26q121 0 248 40t233.5 111.5t172 169t65.5 212.5q0 84 -64.5 129t-167 62t-216.5 17q-45 0 -90.5 -2t-88.5 -6l7 -12q-6 -27 -21.5 -97.5t-35 -170t-38 -216t-30.5 -237.5z" />
<glyph unicode="Q" horiz-adv-x="1320" d="M94 612q0 190 49.5 335t130 242t175 145t186.5 48q121 0 210 -82.5t103 -250.5q0 -8 1 -17.5t1 -19.5q0 -57 -13 -123t-36 -109q-8 -18 -20 -18q-6 0 -13 8q-6 10 -6 25q0 14 6 32q33 90 33 179v21t-2 22q-8 125 -83 196.5t-171 71.5q-68 0 -137.5 -40t-127.5 -127 t-93 -224.5t-35 -331.5q0 -209 49 -340t131 -192.5t180 -61.5q74 0 137.5 26.5t116.5 71.5q-66 53 -130 90t-130 50q-6 2 -13 2h-13h-11q-35 0 -66.5 -21.5t-43.5 -25.5q-27 -6 -47 -7q-31 0 -31 17q0 12 8 22q20 29 55 47.5t80 18.5q23 0 48.5 -2t52.5 -8q78 -14 153.5 -47 t147.5 -76q96 117 147 288.5t51 352.5q0 133 -29.5 258t-90 224t-153.5 157.5t-220 58.5q-63 0 -121.5 -19.5t-112.5 -54.5q-14 -10 -25.5 -14t-17.5 -4q-8 0 -8 8q0 20 25 41q59 51 138 75.5t148 24.5q154 0 267.5 -63.5t188.5 -170t113 -241.5t38 -280q0 -193 -67 -378 t-198 -306q98 -63 190.5 -135t179.5 -136.5t168 -111.5t157 -62q29 -6 49 -6q66 0 96.5 36t30.5 87q0 16 -2 32.5t-8 30.5q-23 61 -91 136q-6 6 -6 14q0 14 15 14q8 0 16 -8q68 -61 113 -149q30 -55 30 -117q0 -92 -54 -160.5t-152 -68.5q-25 0 -54 6q-104 20 -203.5 78.5 t-193.5 137.5t-183 163t-175 157q-70 -47 -155 -73.5t-183 -26.5q-131 0 -243 71.5t-179.5 218t-67.5 369.5z" />
<glyph unicode="R" horiz-adv-x="1458" d="M-193 1044q0 90 62.5 157t165 115t224.5 78.5t241 49.5q49 8 112.5 12t135.5 4q117 0 240.5 -15t230 -53t172 -103.5t65.5 -166.5q0 -90 -51 -170t-138 -140t-195.5 -94t-221.5 -34q-49 0 -96 6q-12 2 -22.5 4t-20.5 4q27 -57 70.5 -129.5t102 -147.5t125 -138.5 t136 -102.5t135.5 -39q51 0 76.5 20.5t25.5 71.5q0 43 -24.5 110t-44.5 112q-2 2 -2 8q0 16 12 16q10 0 18 -14q16 -27 28.5 -51.5t37.5 -89.5q35 -98 35 -166q0 -82 -46 -128t-134 -46q-86 0 -176.5 55t-174.5 144t-150.5 191.5t-105.5 199t-39 163.5v4q0 45 25 45h10l2 -2 h2q49 -18 115 -18q72 0 150.5 20.5t136.5 49.5q61 33 133 77.5t123 108t51 147.5q0 63 -44 102.5t-115.5 60t-153.5 28.5t-158 8q-57 0 -106.5 -2t-77.5 -6q-43 -4 -119 -15.5t-165 -32t-178 -48t-165 -63.5t-121 -80t-45 -97q0 -51 42 -83t108 -32q68 0 152.5 36t172.5 118 q4 4 6 4q6 0 6 -10t-9 -31.5t-27 -38.5q-72 -66 -159 -97.5t-169 -31.5q-20 0 -42 2t-40 6q-70 16 -110 65.5t-40 112.5zM401 299q0 133 14.5 275.5t39 279.5t54.5 251t60 187q4 6 10.5 7t12.5 1h10q47 0 73.5 -16t41.5 -59q-10 -33 -35 -119t-53.5 -206t-54 -259 t-35.5 -279q-2 -35 -5.5 -77.5t-3.5 -85.5q0 -59 7.5 -112.5t26 -86.5t50.5 -33q20 0 43 8.5t29 16.5h14q-6 -55 -40.5 -84t-77.5 -29q-47 0 -93.5 37t-62.5 113q-25 117 -25 270z" />
<glyph unicode="S" horiz-adv-x="1259" d="M43 137q0 61 48 124t131 115t191.5 84t231.5 32q33 0 76 -5.5t55 -11.5t12 -16q0 -14 -24 -15h-12q-20 0 -43 3.5t-45 3.5q-98 0 -186.5 -29t-156 -74t-106.5 -99t-39 -106q0 -57 52.5 -102t170.5 -64q23 -2 47.5 -5t47.5 -3q113 0 215 37t183 97.5t128 132t47 139.5 q0 49 -27.5 92t-91.5 76q-74 37 -158.5 62.5t-171 50t-164 55t-137.5 80.5q-43 35 -62 79.5t-19 94.5q0 59 26.5 117.5t71.5 107.5q72 76 168 124t202.5 72.5t206.5 24.5h9q195 0 283.5 -60.5t88.5 -138.5q0 -61 -53 -121.5t-149.5 -100.5t-229.5 -40h-8q-12 0 -21.5 11.5 t-9.5 19.5q0 10 10 10q90 0 171 41t131.5 101.5t50.5 115.5q0 47 -48.5 83t-162.5 36h-6q-98 0 -199.5 -32.5t-187.5 -86t-139.5 -118t-53.5 -130.5q0 -39 22.5 -75.5t73.5 -67.5q66 -41 161 -67.5t198.5 -54t193.5 -66.5t146.5 -101.5t56.5 -160.5q0 -20 -2 -43t-8 -46 q-27 -109 -107 -185.5t-190.5 -123.5t-230.5 -69.5t-224 -22.5q-35 0 -66.5 2t-60.5 6q-164 27 -235.5 84.5t-71.5 126.5z" />
<glyph unicode="T" horiz-adv-x="1398" d="M20 1032q0 94 48.5 157.5t127 101.5t170 56.5t179.5 24.5t153 6q113 0 212.5 -16t170.5 -16h2q4 14 8.5 26t8.5 25q2 6 9 7t13 1q53 0 82 -16.5t45 -59.5l-4 -12q123 -23 268.5 -44.5t266.5 -21.5q29 0 91 4.5t129.5 18.5t116 44t48.5 81q0 10 -2 21.5t-11 19.5 q-4 4 -4 12q0 10 13 10q14 0 22 -14q20 -33 21 -64q0 -66 -51.5 -113.5t-131 -73.5t-168.5 -26q-168 0 -323.5 13.5t-304.5 32.5q-20 -94 -46 -237.5t-46.5 -303.5t-26.5 -305q0 -20 -1 -43t-1 -47q0 -70 7 -140.5t27.5 -118t61.5 -47.5q20 0 43 8.5t29 16.5h14 q-4 -55 -38 -84t-77 -29q-47 0 -94 37t-67 113q-20 78 -28.5 176t-8.5 211q0 139 11 285.5t30.5 283.5t42.5 244q-84 10 -168 18.5t-172 14.5q-27 2 -51.5 3t-49.5 1q-193 0 -327.5 -48t-186.5 -122q-26 -38 -26 -79q0 -66 58.5 -122.5t170.5 -73.5q53 -8 104.5 -11t96.5 -3 q51 0 89 3t52 5q6 2 19 2q31 0 30 -12q0 -12 -41 -27q-51 -16 -120.5 -28.5t-143.5 -12.5q-92 0 -177 26t-139.5 88.5t-54.5 172.5z" />
<glyph unicode="U" horiz-adv-x="1316" d="M-6 684q0 51 16.5 90t36.5 57q2 2 6 3q6 0 6 -11q0 -10 -8 -26q-16 -27 -16 -78q0 -8 1 -17.5t3 -17.5q10 -33 34.5 -48t51.5 -15q63 0 123 38q0 37 5 108t18.5 161t35 185t51.5 179q41 109 102.5 174.5t125.5 65.5q45 0 63.5 -39t18.5 -111q0 -121 -35 -227 t-89.5 -199.5t-113.5 -177.5q-4 -63 -6 -125.5t-2 -122.5q0 -137 15.5 -251.5t52 -184t102.5 -69.5q6 0 12 1t14 3q59 12 112.5 70.5t97.5 146.5t78 193.5t59 213.5q10 47 22 100.5t23 106.5q14 158 35.5 290t48.5 210q2 6 9 7t13 1q53 0 82 -16.5t47 -59.5 q-8 -33 -26.5 -133t-39 -239.5t-36 -293t-15.5 -292.5v-23q0 -55 3.5 -118.5t13.5 -122t30.5 -95t57.5 -36.5q20 0 42.5 7t27.5 15h14q-2 -55 -35 -83t-76 -28q-47 0 -95 37t-71 113q-27 90 -38 215t-11 262v27.5t2 27.5q-27 -98 -66.5 -197t-91 -183t-111.5 -140.5 t-130 -70.5q-25 -6 -49 -7q-76 0 -131.5 53.5t-90 146.5t-53 212t-22.5 250q-66 -41 -127 -41q-39 0 -83 29.5t-44 99.5zM436 854q78 117 126 261.5t48 273.5q0 61 -14 61q-8 0 -20.5 -18.5t-23.5 -42t-17 -37.5q-37 -92 -62 -225.5t-37 -272.5z" />
<glyph unicode="V" horiz-adv-x="1564" d="M16 846q0 68 13 135q14 76 49 156t91 147.5t138 109.5t193 42q94 0 144 -49.5t69.5 -128t19.5 -166.5q0 -109 -17.5 -210.5t-27.5 -154.5q-18 -94 -35.5 -204.5t-17.5 -219.5q0 -33 3 -66.5t7 -64.5q14 -84 51 -121t84 -37q117 0 222.5 96.5t177.5 243.5q53 109 89 232 t54 247.5t18 233.5t-18 194t-57 128q-57 16 -108.5 50t-51.5 66q0 37 72 51q4 2 10 2.5t10 0.5q39 0 85 -20.5t83 -47.5t47 -49q14 -2 37 -3t45 -1q23 0 42 1t30 3h4q10 0 16 -8.5t6 -16.5q0 -12 -10 -14q-14 -2 -44 -5t-60 -3q-16 0 -30.5 1t-25.5 3q23 -29 34 -78t11 -115 q0 -92 -19 -207.5t-54 -237.5t-80 -237.5t-96 -212.5q-57 -111 -126 -201t-154 -144t-198 -54q-45 0 -95 22.5t-90 70.5t-54 122q-8 37 -11.5 77t-3.5 81q0 82 9.5 168t19.5 168q2 18 9 76.5t14.5 139.5t7.5 164q0 90 -12.5 172t-43 134.5t-88.5 52.5q-76 0 -133 -59.5 t-95 -152.5t-56.5 -198.5t-18.5 -195.5q0 -78 14.5 -134.5t41.5 -70.5q16 -8 16 -21q0 -20 -29 -20q-12 0 -28 12q-39 35 -69 124t-30 202z" />
<glyph unicode="W" horiz-adv-x="2138" d="M33 831q0 57 8 119t25 125q23 84 63.5 171t102 162t144.5 120t187 45q74 0 115 -38t58.5 -101.5t17.5 -141.5q0 -92 -17.5 -191.5t-39 -182t-33.5 -130.5q-23 -84 -47.5 -184t-40 -201.5t-15.5 -193.5v-33q4 -90 32 -130t71 -40q76 0 143 58.5t125.5 156.5t105.5 221 t82 254q-14 35 -24.5 105.5t-10.5 148.5q0 88 17.5 166t58.5 109q12 8 29 8q23 0 47.5 -20.5t24.5 -79.5v-9q0 -68 -12.5 -151.5t-35.5 -179.5q6 -68 20.5 -164.5t40 -198.5t63.5 -191t92.5 -144.5t123.5 -55.5q84 0 139.5 52t89.5 134t51 172t23.5 168t6.5 121 q0 195 -36 351.5t-108 246.5q-37 6 -75.5 25.5t-64.5 43t-26 40.5q0 26 60 26h4h18.5t22.5 -2q127 -12 215 -131q29 0 60.5 1t56.5 7h6q20 0 20 -18q0 -14 -16 -21q-37 -12 -72 -12h-14t-14 2q49 -86 77.5 -218t28.5 -314q0 -72 -15.5 -167t-48 -194.5t-85 -183.5t-125 -136 t-168.5 -52t-168 51t-120 136t-80 186.5t-48 201.5q-41 -127 -97.5 -246t-127 -214t-154.5 -151.5t-182 -56.5q-63 0 -111.5 57.5t-58.5 180.5q-2 14 -2 28.5v28.5q0 111 22.5 240t48.5 250q4 20 17.5 80.5t28 144.5t24.5 177t10 175q0 102 -22.5 172t-83.5 70 q-66 0 -121 -54.5t-99 -141.5t-76 -189t-48.5 -201.5t-16.5 -175.5q0 -51 8.5 -87t26.5 -46q14 -8 15 -21q0 -25 -27 -24q-14 0 -27 12q-27 31 -45 102.5t-18 165.5z" />
<glyph unicode="X" horiz-adv-x="1400" d="M14 1249q0 102 42 186.5t143 110.5q43 12 82 13q111 0 180 -80t114 -197q18 -45 49 -129t70 -186q100 127 197.5 238.5t181.5 195.5t144 125q16 10 43 10q37 0 75.5 -16.5t38.5 -38.5v-4q-4 -27 -22.5 -45.5t-36.5 -30.5q-133 -88 -282.5 -234.5t-293.5 -314.5 q53 -129 113.5 -260t126 -240.5t132.5 -177.5t130 -68q51 0 67.5 37t16.5 84q0 41 -6 80t-10 64q-2 10 -2 18v14q0 31 12 31q16 0 37 -51q10 -27 18 -59.5t10 -67.5q0 -8 1 -17.5t1 -17.5q0 -125 -56 -181t-130 -56q-86 0 -165 63.5t-151.5 170t-136 236.5t-118.5 265 q-111 -139 -205 -274.5t-160.5 -250t-95.5 -194.5q-8 -27 -13 -61.5t-5 -63.5v-12q0 -8 1 -13.5t1 -9.5q0 -8 -2 -12q-5 -12 -13 -12q-2 0 -14 4q-45 27 -45 102q0 59 26 127q35 92 108 218t170 269.5t204 286.5q-53 141 -97.5 262t-74.5 191q-45 100 -86 154.5t-86 54.5 q-10 0 -17 -2q-76 -16 -107.5 -90t-31.5 -166q0 -86 21.5 -174t55.5 -151.5t68 -78.5q12 -2 13 -16q0 -18 -21 -19q-10 0 -33 13q-43 27 -82.5 97.5t-66.5 164.5t-27 186z" />
<glyph unicode="Y" horiz-adv-x="1564" d="M33 831q0 57 8 119t25 125q23 84 63.5 171t102 162t144.5 120t187 45q74 0 115 -38t58.5 -101.5t17.5 -141.5q0 -92 -17.5 -191.5t-39 -182t-33.5 -130.5q-6 -25 -23.5 -84t-37 -138t-33 -160.5t-13.5 -153.5q0 -76 22.5 -128t79.5 -56h11q74 0 147.5 59t140 160.5 t122 229.5t91.5 263q33 119 45.5 225.5t20.5 189.5t25.5 130t58.5 49q8 0 15 -10l7 -10h3q6 0 12 -42t10 -97.5t7 -99.5t5 -48q6 -14 15.5 -66.5t23.5 -142.5q16 -106 30.5 -209.5t27.5 -202.5l8 5q29 16 53.5 20t40.5 4t29.5 -4t15.5 -20q0 -8 -9 -12.5t-20 -4.5 q-29 -2 -60.5 -14t-49.5 -25q12 -125 12 -286q0 -109 -15.5 -239t-51 -259t-98 -235.5t-157 -171t-227.5 -64.5q-96 0 -154.5 39t-83 102.5t-24.5 138.5q0 133 60.5 261.5t134.5 234.5q109 158 218 263.5t234 187.5q-4 31 -10 96t-15.5 144t-17.5 155t-14 129 q-16 -53 -36.5 -112.5t-43.5 -125.5q-49 -133 -110.5 -258t-136.5 -223t-162 -156.5t-183 -58.5h-16q-98 6 -133 86t-35 186q0 84 13 170t29.5 160t24.5 113q4 20 16.5 80.5t28 144.5t25.5 177t10 175q0 102 -22.5 172t-83.5 70q-66 0 -121 -54.5t-99 -141.5t-76 -189 t-48.5 -201.5t-16.5 -175.5q0 -51 8.5 -87t26.5 -46q14 -8 15 -21q0 -25 -27 -24q-14 0 -27 12q-27 31 -45 102.5t-18 165.5zM788 -553q0 -61 16.5 -118.5t53.5 -95.5t98 -38q102 0 173 50t116 136.5t70.5 193t36 220t10.5 219.5q0 94 -5 175t-11 135q-88 -55 -185.5 -155.5 t-182.5 -223.5t-137.5 -253t-52.5 -245z" />
<glyph unicode="Z" horiz-adv-x="1243" d="M51 31q0 25 19 51q53 104 147 235.5t209 270.5t235.5 273t229 249t186.5 190q10 4 18.5 9.5t16.5 7.5q-63 4 -156.5 25.5t-232.5 21.5q-43 0 -92 -3t-103 -11q-102 -14 -175.5 -58.5t-112.5 -98.5t-39 -103q0 -45 37.5 -77t115.5 -32h27q41 4 101.5 21.5t127 46 t121.5 63.5q4 4 17 4q6 0 6 -4t-8.5 -15.5t-32.5 -31.5q-82 -70 -176.5 -101.5t-180.5 -31.5q-47 0 -94 10q-72 16 -114 72.5t-42 128.5q0 78 55.5 156.5t177.5 131t320 52.5h46q160 -6 287.5 -22.5t226.5 -24.5q29 -2 42 -18.5t13 -37.5q0 -33 -29 -49q-76 -43 -177 -134 t-210.5 -209t-214.5 -247q-143 -180 -252.5 -327.5t-187.5 -266.5q45 8 140 21.5t216 26t244 12.5q131 0 246.5 -20.5t187.5 -72t72 -145.5q0 -70 -44 -128t-104 -93q-12 -8 -40 -17.5t-40 -9.5q-6 0 -6 5v2q29 27 67 69.5t67.5 89.5t29.5 86q0 33 -31.5 52.5t-81 31 t-103.5 15.5t-99 4h-45.5t-32.5 -2q-184 -14 -355.5 -41t-316.5 -72q-18 -6 -37 -6q-25 0 -55.5 18.5t-30.5 57.5z" />
<glyph unicode="[" horiz-adv-x="729" d="M121 508q0 86 6 189.5t18.5 212t33 210t48.5 178.5q14 37 82 53.5t163 19.5t192 3h30q31 0 31 -20q0 -12 -9 -23.5t-20 -11.5q-70 0 -136 -2t-113.5 -15.5t-63.5 -44.5q-27 -55 -44 -143t-28.5 -188.5t-16.5 -190.5t-7 -149q-2 -27 -2 -55.5v-59.5q0 -94 7 -199.5 t24.5 -201t48.5 -158.5q20 -39 70 -51.5t108 -12.5q41 0 80 3.5t69 3.5q25 0 25 -21q0 -10 -8.5 -20.5t-20.5 -10.5q-57 -2 -136 -12t-153 -10q-57 0 -104 10t-70 41q-37 47 -56 123t-28.5 163t-12.5 170t-5 146q0 16 -1 34.5t-1 39.5z" />
<glyph unicode="\" horiz-adv-x="897" d="M33 1323q0 12 12 19.5t29 7.5q37 0 53 -29q82 -150 176 -324t192.5 -355t193.5 -354t177 -323q4 -6 4 -16q0 -12 -13.5 -19.5t-29.5 -7.5q-14 0 -28.5 6t-22.5 21l-739 1358q-4 6 -4 16z" />
<glyph unicode="]" horiz-adv-x="688" d="M4 -176q0 12 10.5 24.5t18.5 12.5h22q66 0 127.5 3t105.5 16.5t58 41.5q27 53 45.5 142.5t28.5 188.5t15 190.5t7 150.5q0 25 1 52.5t1 55.5q0 96 -7 203t-23.5 204t-48.5 159q-20 39 -70.5 51t-108.5 12q-39 0 -78.5 -3t-70.5 -3q-25 0 -25 18q0 27 29 31q57 4 136 14.5 t155 10.5q57 0 103 -11.5t69 -39.5q37 -47 56.5 -123t28.5 -163t12 -171t5 -148q0 -16 1 -33.5t1 -37.5q0 -86 -6 -189.5t-18.5 -212t-33 -209t-48.5 -180.5q-14 -37 -83 -53t-164 -20.5t-194 -4.5h-26q-31 0 -31 21z" />
<glyph unicode="^" horiz-adv-x="835" d="M102 1071q0 4 2 6q35 39 85.5 95.5t100.5 112.5t86 95t38 41h18q70 -86 139.5 -173t139.5 -173q2 -2 2 -6q0 -6 -12.5 -9t-28.5 -3q-18 0 -39 5t-31 13q-49 59 -99 117.5t-104 116.5l-233 -232q-8 -8 -20.5 -11t-22.5 -3q-20 0 -21 8z" />
<glyph unicode="_" horiz-adv-x="1738" d="M-43 -145q0 6 4 18q4 10 15.5 23.5t27.5 13.5h1735q16 0 21 -9.5t5 -19.5t-4 -22q-2 -8 -13 -21.5t-28 -13.5h-1734q-29 0 -29 31z" />
<glyph unicode="`" horiz-adv-x="681" d="M143 1210q0 18 29 44t53 26q10 0 17 -6l288 -238q2 -2 2 -4q0 -4 -6 -10t-14 -6q-2 0 -2 1t-2 1l-356 180q-8 2 -9 12z" />
<glyph unicode="a" horiz-adv-x="757" d="M39 324v20q0 82 14.5 181.5t51 189.5t101 148.5t165.5 58.5q39 0 70.5 -17.5t45.5 -50.5q14 16 39 26.5t60 10.5q12 0 27.5 -2t31.5 -6q-12 -47 -28.5 -129t-27.5 -179.5t-11 -189.5v-8q0 -39 4 -92.5t14 -104.5t28.5 -86t47.5 -35h2q16 0 35.5 16.5t42.5 61.5 q31 59 57 154q4 18 16 18q10 0 11 -24v-9q-4 -53 -29 -120.5t-69 -116.5t-105 -49q-63 0 -102 40t-60.5 102.5t-30 127t-8.5 113.5q-25 -92 -62.5 -180.5t-82.5 -144.5t-99 -56h-2q-49 0 -81.5 46t-49 122t-16.5 164zM190 362q0 -23 1.5 -45t3.5 -43q4 -61 23.5 -87.5 t39.5 -26.5q33 0 60.5 47t50 114.5t39.5 131.5q25 94 33 191t34 192q-25 27 -55 26q-45 0 -92 -45t-74 -102q-33 -72 -48.5 -168t-15.5 -185z" />
<glyph unicode="b" horiz-adv-x="651" d="M33 1044q0 55 3 117t11 119q8 51 28.5 116.5t59.5 114t98 48.5q57 0 86 -28t40.5 -70t11.5 -89q0 -27 -2 -54.5t-7 -49.5q-8 -80 -40.5 -195t-76.5 -235.5t-91 -219.5l6 -247q12 72 35.5 161t56.5 172.5t76 138t96 54.5q78 0 113.5 -71.5t44.5 -176.5q2 -20 3 -43.5 t1 -50.5q0 -78 -10.5 -166t-36 -169t-70.5 -140.5t-113 -79.5q-30 -10 -69 -10q-33 0 -62.5 9t-48.5 32q-8 8 -8 28t10 21q6 0 15 -8q27 -27 61 -27q33 0 59 23q41 33 64.5 92t37 129.5t15.5 140.5q2 18 2 46v59q0 51 -5 103t-19.5 87t-42.5 35q-25 0 -47.5 -32t-42 -77 t-33 -89t-19.5 -66q-20 -63 -39.5 -147.5t-25.5 -153.5q-2 -49 -8.5 -89t-22.5 -63q-35 -51 -88 -51q4 16 6 59t4 103q2 35 3 72.5t1 76.5q0 135 -6 283.5t-10 298.5q0 23 -2 65.5t-2 93.5zM152 719q39 94 73.5 194.5t46.5 159.5q4 12 9.5 53t10.5 93.5t5 101.5q0 53 -9 91 t-32 38q-20 0 -36.5 -47t-29 -122t-22.5 -161q-8 -88 -12 -174t-4 -170v-57z" />
<glyph unicode="c" horiz-adv-x="532" d="M51 310.5v29.5q0 84 17.5 180t58.5 181t108.5 138.5t165.5 53.5q59 0 97.5 -46t38.5 -106q0 -63 -20.5 -93t-49.5 -30q-49 0 -49 105q0 41 -12.5 76t-47.5 35q-39 0 -64.5 -38t-41.5 -96.5t-25.5 -123t-12.5 -121t-3 -86.5v-9q0 -82 16.5 -153.5t55.5 -114.5t104 -43 q121 0 180 205q6 25 23 25q14 0 14 -29q0 -14 -6 -37q-33 -113 -100.5 -182.5t-180.5 -69.5q-94 0 -150 46t-82 119t-32 155q-2 14 -2 29.5z" />
<glyph unicode="d" horiz-adv-x="757" d="M47 324q0 63 10.5 143t33 160t62.5 146.5t99 107.5t141 41q47 0 76 -21q4 109 10 209t15 158q6 39 17 88t32.5 95t53.5 77t77 31q57 0 85.5 -28t40 -70t11.5 -89q0 -27 -2 -54.5t-6 -49.5q-12 -100 -47 -221t-81 -235t-89 -196q-2 -14 -4 -63t-2 -115q0 -61 3 -127.5 t13 -123t27.5 -92.5t46.5 -36t51 28t40.5 69t30 78.5t17.5 56.5q4 16 16 16q10 0 11 -22v-11q0 -55 -26 -121.5t-71.5 -114.5t-111.5 -48q-74 0 -112 61.5t-51 157.5t-13 201q-27 -98 -68 -194.5t-91 -160t-106 -63.5q-49 0 -79.5 46t-45 122t-14.5 164zM199 305.5 q0 -16.5 2 -31.5q4 -61 20.5 -87.5t36.5 -26.5q35 0 65.5 50t56.5 121.5t42 135.5q23 82 32 165t11 167l2 57q-12 6 -29 6q-45 0 -92 -44t-76 -103q-37 -78 -54 -182.5t-17 -196.5v-30.5zM582 707q39 84 73.5 189t58 216t23.5 207v30.5t-2 28.5q-2 29 -12 50.5t-27 21.5 q-8 0 -20 -13.5t-25 -47.5q-6 -18 -15 -83t-18.5 -152t-17.5 -176t-13 -159.5t-5 -99.5v-12z" />
<glyph unicode="e" horiz-adv-x="538" d="M53 346q0 98 20.5 197.5t64.5 181.5t111.5 132t160.5 50q66 0 102.5 -39t36.5 -114q0 -102 -50 -181t-126 -128.5t-158 -67.5v-10q0 -84 17.5 -157t57.5 -117t105 -44q80 0 123 66.5t68 169.5q2 8 7 15t9 7q18 0 16 -26q-6 -55 -24.5 -104.5t-38.5 -84.5q-39 -63 -93 -97 t-134 -34q-98 0 -158.5 60.5t-88.5 149.5t-28 175zM217 424q66 16 115 64.5t76.5 114t27.5 132.5v10q0 37 -11 70t-42 33q-37 0 -64.5 -36t-47 -91t-32 -114.5t-17.5 -108.5t-5 -72v-2z" />
<glyph unicode="f" horiz-adv-x="495" d="M84 8v93.5t2 139.5t4 232q2 90 8 204t19.5 233.5t35 233t53.5 204t78 143.5t107 53q51 0 82 -32.5t45 -79t14 -86.5q0 -94 -27.5 -212t-73.5 -245t-99 -250t-105 -227q-2 -20 -3 -40t-1 -40q88 -4 148.5 -57.5t96.5 -135.5t51.5 -175t15.5 -175q0 -123 -25 -227.5 t-73 -169t-118 -64.5q-74 0 -116.5 34t-65 86t-33 112.5t-14.5 115.5q-2 35 -4 123t-2 209zM213 16q0 -186 13.5 -332.5t38 -230.5t57.5 -84q37 0 65.5 45t45 119t16.5 162q0 74 -6.5 167t-29 183t-68.5 155.5t-126 82.5q-6 -137 -6 -267zM236 535q72 154 127 311.5 t86 324.5q8 45 13 87t5 75q0 41 -8 65.5t-25 26.5h-2q-25 0 -47.5 -44t-38.5 -115q-39 -174 -66.5 -360.5t-43.5 -370.5z" />
<glyph unicode="g" horiz-adv-x="788" d="M14 -557q0 63 22.5 134t57.5 140q47 92 125 170t160 138.5t141 97.5v14q0 37 -3 100.5t-7 133t-8 123.5q-4 -14 -8.5 -27.5t-8.5 -26.5q-18 -70 -42.5 -149.5t-57.5 -148t-75 -112.5t-93 -44q-53 0 -86 32.5t-49 83t-22.5 103.5t-6.5 96q0 164 38 311.5t132 235.5 q41 39 85 55.5t83 16.5q47 0 87 -19.5t65 -50.5q25 29 55.5 36t54.5 7h25q31 0 31 -12q0 -4 -9 -13q-20 -18 -31.5 -71.5t-15.5 -126t-4 -150.5q0 -88 2 -169t2 -126v-22q57 35 102.5 56.5t67.5 21.5q4 0 6 -1t5 -1q10 -2 10 -15q0 -8 -4 -15t-13 -7q-25 -2 -66.5 -25.5 t-76.5 -53.5t-35 -52v-33q0 -283 -58.5 -467t-155.5 -274.5t-212 -90.5q-113 0 -161 56.5t-48 140.5zM104 -559q0 -68 26 -110t71 -42q100 0 167.5 96.5t105.5 271.5t48 415q-33 -18 -100.5 -75.5t-140 -142.5t-121.5 -194q-27 -59 -41.5 -115.5t-14.5 -103.5zM205 342 q0 -14 1 -45t7 -64.5t19 -57t38 -23.5h6q39 0 71 51t57.5 130t45 164t32 153.5t18.5 99.5q8 49 28 81q-23 29 -63 29q-61 0 -105.5 -39t-74 -102.5t-47 -134t-25.5 -135t-8 -107.5z" />
<glyph unicode="h" horiz-adv-x="735" d="M72 1016q0 88 8 182t30.5 176t64.5 132t110 50q78 0 106.5 -60t28.5 -146q0 -88 -19.5 -187.5t-43 -179.5t-35.5 -115q-27 -76 -61 -153.5t-68 -147.5l6 -153q23 94 58.5 183t90.5 171q31 47 77 93t107 46t82 -41t21 -90q0 -51 -10 -92q-2 -16 -12.5 -63.5t-21.5 -113 t-19.5 -136t-8.5 -131.5q0 -55 10 -101q18 -71 63 -71h1q12 0 33 10q43 27 65.5 75t42.5 111q8 23 25 23q10 0 10 -21v-8q0 -14 -7 -37.5t-15 -46.5q-27 -76 -79.5 -130t-136.5 -54h-4q-55 0 -93 35.5t-48 93.5q-4 23 -6 49.5t-2 54.5q0 66 7 136.5t17.5 134t16.5 104.5 q6 37 6 76q0 35 -6 61.5t-27 26.5q-10 0 -26.5 -12.5t-38.5 -40.5q-39 -51 -81 -150.5t-65 -220.5q-2 -18 -6 -59t-8 -88.5t-8 -84t-10 -47.5q-20 -39 -52 -53t-59 -14q4 16 6 59t4 103q4 49 4 97v97q0 111 -4 221.5t-12 218.5q-2 35 -5 95.5t-3 132.5zM190 653 q45 100 82 212t59.5 222.5t22.5 202.5v21q-2 59 -13 98t-36 39q-31 0 -55.5 -87t-38.5 -208q-12 -106 -16.5 -211.5t-4.5 -208.5v-80z" />
<glyph unicode="i" horiz-adv-x="354" d="M37 416q0 88 9 171t22.5 145.5t25.5 88.5q12 25 40 46.5t75 21.5q27 0 53 -6q-20 -72 -49 -199t-29 -281q0 -53 2 -113.5t10.5 -112.5t26 -85t45.5 -33h2q16 0 36 16.5t42 61.5q31 59 58 154q4 18 16 18q10 0 10 -24v-9q-4 -53 -28.5 -120.5t-69 -116.5t-105.5 -49 q-74 0 -115.5 62.5t-59 159.5t-17.5 204zM145 1135q0 41 30 69.5t69 28.5q41 0 69.5 -28.5t28.5 -69.5t-28.5 -70t-69.5 -29q-39 0 -69 29t-30 70z" />
<glyph unicode="j" horiz-adv-x="407" d="M-352 -557q0 63 22.5 134t57.5 140q47 92 124.5 170t159.5 138.5t142 97.5v16q0 35 -2 95.5t-6.5 133t-10.5 138.5q-2 37 -6 82t-4 90q0 39 4 76t18 63q23 51 58 65.5t65 14.5q12 0 22.5 -1t18.5 -3q29 -2 29 -14q0 -4 -6 -11q-20 -18 -31.5 -71.5t-15.5 -126t-4 -150.5 q0 -88 2 -169t2 -126v-22q57 35 102 56.5t68 21.5q4 0 6 -1t4 -1q10 -2 10 -15q0 -8 -4 -15t-12 -7q-25 -2 -67 -25.5t-76.5 -53.5t-34.5 -52v-33q0 -283 -58.5 -467t-155.5 -274.5t-212 -90.5q-113 0 -161 56.5t-48 140.5zM-262 -559q0 -68 25.5 -110t70.5 -42h6 q70 0 120 47.5t85 124t56.5 166.5t32.5 179.5t15.5 160t6.5 105.5q-33 -18 -100.5 -75.5t-140.5 -142.5t-122 -194q-27 -59 -41 -115.5t-14 -103.5zM135 1135q0 41 29 69.5t69 28.5q41 0 70 -28.5t29 -69.5t-29 -70t-70 -29t-69.5 29t-28.5 70z" />
<glyph unicode="k" horiz-adv-x="684" d="M29 1016q0 88 8 182t30.5 176t64.5 132t110 50q78 0 106.5 -60t28.5 -146q0 -88 -19.5 -186.5t-43 -179.5t-35.5 -116q-27 -76 -61 -153.5t-68 -145.5q4 -55 6 -119.5t4 -130.5q23 92 56.5 201t80.5 208t108.5 162.5t137.5 63.5q66 0 86 -38.5t20 -81.5q0 -55 -43 -120 t-103.5 -119t-117.5 -83q4 -29 18.5 -82t35 -114.5t48 -117t57 -90t62.5 -34.5q29 0 47.5 25.5t28.5 45.5q27 57 53 146q8 18 17 18q10 0 10 -24v-9q-2 -43 -19.5 -97t-46.5 -99q-25 -39 -59.5 -63.5t-77.5 -26.5h-12q-82 0 -127 47t-76 121q-23 53 -41 116.5t-29.5 119 t-15.5 85.5q0 4 1 5t1 3h-2q-39 -106 -66.5 -207.5t-37.5 -154.5q0 -4 -4 -8q-6 -51 -23 -74q-35 -51 -88 -51q4 16 6 59t4 103q2 41 3 83t1 85v22q0 121 -4 231.5t-12 212.5q-2 35 -5 95.5t-3 132.5zM145 668.5q0 -11.5 2 -23.5q45 102 82 215t59.5 223.5t22.5 204.5v23 q-2 59 -13 98t-36 39t-44 -49t-34 -135q-12 -76 -19 -164t-11 -172t-6.5 -148.5t-2.5 -91.5v-19.5zM266 508q78 12 136.5 60t92 105.5t33.5 96.5t-34 39q-37 0 -73 -36t-66.5 -87t-53.5 -100t-35 -78z" />
<glyph unicode="l" horiz-adv-x="409" d="M47 526q0 127 7 262.5t22.5 263.5t38.5 228q12 51 38.5 116.5t69.5 114t103 48.5q120 0 120 -180q0 -75 -23.5 -209t-84.5 -300q-31 -86 -73 -173t-83 -158q-2 -16 -2 -34v-34q0 -70 5 -141.5t18.5 -132t38 -97.5t63.5 -37q45 0 73 38t42 73q8 18 15 41t16 47q8 23 22 23 q10 0 10 -23v-4q0 -14 -5 -36.5t-13 -45.5q-25 -76 -72 -130t-133 -54q-74 0 -117 47t-63.5 113.5t-24.5 123.5q-4 55 -6 118t-2 132zM184 627q53 109 98.5 230.5t73 240.5t27.5 215q0 59 -9 98t-34 39q-23 0 -42 -46t-35.5 -122t-30 -163t-22.5 -172t-14.5 -149.5 t-7.5 -92.5q0 -12 -1 -31.5t-3 -46.5z" />
<glyph unicode="m" horiz-adv-x="1077" d="M43 57q0 12 1 26.5t3 31.5q6 35 10 99.5t7.5 145t3.5 160.5q0 90 -5.5 169t-19.5 124q20 4 45 22.5t53 24.5q6 2 17 2q35 0 44 -37t9 -90q0 -37 -1 -87t-5 -87q23 66 49.5 114t56.5 93q43 66 89 102.5t87 36.5q49 0 64.5 -29.5t15.5 -72.5q0 -29 -3 -60.5t-5 -62.5 l-12 -182l20 61q23 66 49.5 114t57.5 93q43 66 89 102.5t87 36.5q57 0 73.5 -38t16.5 -93q0 -23 -1 -46t-3 -48l-8 -116t-10 -187q0 -8 -1.5 -32.5t-1.5 -55.5q0 -47 5.5 -99.5t20.5 -89t44 -36.5q39 0 65.5 37.5t44 85t23.5 73.5q8 25 21 25q12 0 12 -25v-4q0 -14 -5 -36.5 t-13 -45.5q-25 -76 -70 -132t-131 -56q-70 0 -103.5 44t-45 105.5t-11.5 116.5v37q4 90 6 156.5t4 136.5q0 10 1 24.5t1 32.5q0 39 -6 76t-28 37q-16 0 -54 -45q-33 -45 -66.5 -125t-56 -182.5t-22.5 -213.5q0 -39 3 -76.5t11 -76.5q-4 -2 -15 -6t-28 -4q-23 0 -47 14 t-41 59q-14 41 -19 87t-5 96q0 72 6 145.5t10 144.5v31q0 27 -2 60.5t-11.5 59.5t-27.5 26q-23 0 -51 -39q-35 -45 -72 -132.5t-61.5 -197t-24.5 -225.5q0 -70 12 -142q-23 -12 -46.5 -20t-43.5 -8q-55 0 -55 73z" />
<glyph unicode="n" horiz-adv-x="706" d="M43 78v17t2 20q4 37 9 102.5t8.5 147t3.5 163.5q0 86 -5.5 163t-17.5 122q16 4 43 22.5t55 24.5q6 2 17 2q35 0 44 -37t9 -90q0 -37 -1 -87t-5 -87q23 66 49.5 114t56.5 93q31 47 66 93t94 46q61 0 79.5 -41t18.5 -90q0 -27 -2 -50.5t-4 -43.5q0 -14 -6 -74.5t-12 -141.5 t-6 -163q0 -23 2 -62.5t8 -79.5t21.5 -67.5t41.5 -27.5q16 0 37 12q23 16 40.5 42.5t27.5 53.5q8 18 16 41t15 47q8 25 22 25q10 0 10 -21v-8q0 -14 -5 -36.5t-13 -45.5q-25 -76 -73 -132t-134 -56q-57 0 -89 44t-46 113q-8 39 -11 78t-3 78q0 96 13 191.5t13 183.5 q0 29 -7 54.5t-32 25.5t-59 -47q-35 -45 -72 -132.5t-61.5 -197t-24.5 -223.5q0 -70 12 -142q-14 -10 -36.5 -20t-40.5 -10q-29 0 -48.5 21.5t-19.5 72.5z" />
<glyph unicode="o" horiz-adv-x="602" d="M57 381q0 51 4.5 95t6.5 77q10 86 44.5 173t102.5 145.5t178 58.5q76 0 118 -49.5t59.5 -128t17.5 -164.5t-11.5 -167t-25.5 -130q-16 -63 -53 -136t-91 -124t-126 -51q-70 0 -114 36.5t-67.5 96t-33 130t-9.5 138.5zM233 395q0 -70 9.5 -139.5t34 -116.5t71.5 -47 q43 0 73 41t50.5 94.5t28.5 89.5q8 33 13 82.5t5 104.5q0 84 -18.5 165t-67.5 113q-25 16 -24 39q0 16 12 30.5t20 20.5q-20 14 -39 15q-37 0 -65.5 -41t-48 -98.5t-30.5 -109.5t-13 -73q-2 -23 -6.5 -68.5t-4.5 -101.5z" />
<glyph unicode="p" horiz-adv-x="675" d="M-133 -463q0 43 4 91t12 96q10 66 28.5 129t39.5 120q29 82 64.5 155t35.5 161v8q0 121 -9 225.5t-22.5 180t-25.5 110.5q41 12 69.5 28.5t53.5 18.5h10q39 0 49 -40t12 -95q2 -37 2 -96.5t3 -130.5q29 102 67.5 198.5t85.5 159t96 62.5q61 0 95 -43.5t49.5 -108 t18.5 -129t3 -107.5q0 -86 -17.5 -178t-55 -172t-98 -130t-146.5 -50q-59 0 -90 25v-91v-115t-2 -85q-6 -129 -23 -211q-20 -100 -61 -164t-111 -64h-6q-72 0 -101.5 70t-29.5 172zM-76 -430q0 -66 13 -131q6 -29 21.5 -53.5t31.5 -24.5q12 0 25.5 17.5t23.5 56.5 q14 53 19 137t5 176q0 100 -4 195.5t-8 158.5q-18 -43 -40.5 -102t-39.5 -125q-20 -74 -33.5 -150.5t-13.5 -154.5zM197 319q2 -59 2 -118.5v-118.5q26 -27 61 -27q33 0 59 21q47 37 77 120t42 164q6 35 9.5 84.5t3.5 100.5q0 88 -14.5 158.5t-55.5 70.5q-25 0 -50.5 -43 t-50 -112.5t-46 -148.5t-37.5 -151z" />
<glyph unicode="q" horiz-adv-x="677" d="M47 324q0 86 14.5 190t49 199.5t96 156t158.5 60.5q35 0 67.5 -12.5t63.5 -40.5q12 20 31.5 33.5t56.5 13.5q31 0 63 -9q-16 -63 -27.5 -130.5t-21.5 -137.5q-14 -117 -27.5 -266.5t-21.5 -300.5h6q74 0 132 -59.5t93 -147.5t37 -176v-29q0 -156 -46 -247t-148 -91 q-66 0 -109 45t-67.5 122t-34 173.5t-9.5 198.5q0 156 13.5 301t21.5 229q-18 -66 -43.5 -137.5t-59.5 -132.5t-71 -99t-78 -38h-2q-57 0 -91 73.5t-42 167.5q-2 20 -3 43t-1 48zM201 273.5q0 -15.5 2 -27.5q4 -49 18.5 -67.5t30.5 -18.5q20 0 39.5 15t30.5 36 q51 88 80.5 189.5t50.5 207.5q4 29 9 61.5t5 65.5q0 59 -20.5 103.5t-79.5 44.5q-37 0 -65 -41t-47 -107.5t-30.5 -144.5t-17.5 -153t-6 -130v-33.5zM543 -152q0 -61 2 -117.5t6 -107.5q10 -133 35.5 -186t62.5 -53q33 0 61.5 59t34.5 180v25q0 78 -22.5 162t-66.5 147 t-109 78q-2 -47 -3 -94t-1 -93z" />
<glyph unicode="r" horiz-adv-x="587" d="M10 156q0 4 1 10t3 12q33 94 55.5 206t35 216.5t12.5 173.5v23q-51 23 -75 65.5t-24 81.5q0 29 11.5 51.5t33.5 22.5h5q29 0 51 -40t36.5 -88t14.5 -77q25 -18 54.5 -26.5t49.5 -8.5q27 0 35 8q16 16 40 47t75 31q35 0 84 -20q-25 -51 -45.5 -115.5t-34.5 -136.5 q-2 -16 -10 -65.5t-14.5 -113t-6.5 -126.5q0 -90 19.5 -159t72.5 -69q33 0 57.5 27t43 67t31 77.5t18.5 60.5q4 18 16 18q10 0 11 -22v-11q0 -94 -34 -158.5t-87.5 -96t-112.5 -31.5q-68 0 -106.5 44t-54 114.5t-15.5 152.5q0 88 11.5 173t24.5 150.5t19 90.5 q-57 4 -90 18.5t-55 34.5q-8 -98 -25.5 -211t-40 -216t-49.5 -177q-8 -27 -26 -27q-14 0 -15 19z" />
<glyph unicode="s" horiz-adv-x="645" d="M27 291q0 25 8 43t24 18h2q6 0 17 -14q27 76 49.5 156.5t40.5 144.5q20 74 52 159t102 130q53 35 114 35q4 0 10.5 -1t10.5 -1q16 -2 16 -15q0 -14 -14 -14q-23 -2 -33 -36t-10 -77v-22.5t2 -22.5q8 -68 36.5 -148.5t54.5 -161.5t26 -151v-10q0 -27 -3.5 -57.5 t-13.5 -59.5q29 2 56.5 7.5t50.5 13.5q29 12 46 28.5t29 36.5q4 6 11 7q16 0 16 -21q0 -6 -4 -14q-23 -45 -82 -74t-139 -33q-29 -66 -89.5 -113t-160.5 -47q-92 0 -154.5 44.5t-62.5 156.5q0 4 1 19.5t3 31.5q-12 23 -12 62zM82 174q0 -61 32 -95t83 -34h8q37 4 73.5 25.5 t53.5 66.5q0 2 1 3t1 3q-76 6 -142.5 19.5t-107.5 34.5q0 -6 -1 -12.5t-1 -10.5zM115 307q23 -14 52.5 -28.5t57.5 -26.5q27 -12 58.5 -23.5t66.5 -19.5q4 23 6 47.5t2 48.5q0 39 -4 79t-10 79q-14 96 -33.5 176t-19.5 143q0 33 6 60q-10 0 -22.5 -31t-24.5 -70t-21 -69 q-25 -88 -53.5 -181.5t-60.5 -183.5z" />
<glyph unicode="t" horiz-adv-x="368" d="M-8 850q0 10 7 21.5t17 11.5h60q8 96 18 174t25 110q10 23 36.5 40.5t71.5 17.5q12 0 27.5 -2t30.5 -6q-10 -35 -23.5 -126.5t-23.5 -207.5h163q18 0 19 -23q0 -10 -6 -20.5t-19 -10.5h-164q-10 -113 -16 -232.5t-8 -219.5v-47q0 -53 4 -116.5t20.5 -109t49.5 -45.5h2 q16 0 35.5 16.5t41.5 61.5q16 29 29.5 69t28.5 85q8 18 16 18q10 0 10 -24v-9q-4 -53 -28.5 -120.5t-68.5 -116.5t-105 -49t-99.5 39t-59 98t-27.5 122.5t-7 112.5v31q2 25 4 92.5t6 158.5t13 185h-64q-16 0 -16 21z" />
<glyph unicode="u" horiz-adv-x="759" d="M57 342q0 90 7.5 186.5t19.5 177t29 123.5q10 25 37.5 43.5t72.5 18.5q31 0 62 -8q-6 -23 -23.5 -107t-30.5 -186q-8 -72 -14 -146.5t-6 -140.5q0 -84 14.5 -140.5t46.5 -56.5q39 0 69 46.5t52.5 116t34.5 139.5q18 102 32.5 219.5t33.5 201.5q6 25 35.5 43.5t74.5 18.5 q31 0 62 -8q-16 -45 -32 -135.5t-26 -199t-10 -214.5q0 -53 5 -116.5t22.5 -109t50.5 -45.5h2q16 0 35.5 16.5t42.5 61.5q16 29 28.5 68t26.5 84q8 18 16 18q10 0 11 -24v-8q-4 -53 -29 -121t-69 -117t-105 -49q-70 0 -111 50t-59.5 123t-22.5 140q-14 -53 -32.5 -106.5 t-44.5 -94.5q-74 -112 -160 -112q-45 0 -81 37t-52 112q-8 35 -11.5 88.5t-3.5 112.5z" />
<glyph unicode="v" horiz-adv-x="720" d="M12 156q0 6 4 22q29 96 49.5 179t32.5 178q8 47 12.5 101t6.5 105.5t2 81.5q33 37 84 37h2q53 0 68 -65.5t16 -161.5v-53q0 -27 2 -80.5t8 -117t16.5 -120.5t26.5 -95t39 -38q35 0 71.5 64.5t57.5 146.5q14 57 26.5 146t12.5 180q0 70 -10.5 132t-32.5 101q-4 6 -4 19 q0 25 25.5 45t56.5 20q41 0 61 -43q14 -31 14 -98q0 -80 -19 -188.5t-54 -223.5t-81 -213t-98.5 -159.5t-107.5 -61.5q-45 0 -72.5 48t-42 127t-22.5 173t-12 184q-14 -92 -41 -180t-56 -178q-10 -33 -26 -33q-14 0 -15 19z" />
<glyph unicode="w" horiz-adv-x="1005" d="M51 395v52.5t2 37.5q4 53 13.5 116t33 118t65.5 90t109 35q6 0 12.5 -1t12.5 -1v-19q-29 -8 -51.5 -74.5t-34.5 -160.5t-12 -187q0 -61 6 -110q14 -131 65 -131q47 0 95 108q45 102 60 214t30 223q4 31 12 58.5t23 47.5q10 18 60 28.5t89 10.5q14 0 14 -10q0 -6 -10 -13 q-14 -8 -23.5 -61t-13.5 -117q-2 -33 -3 -66.5t-1 -68.5q0 -33 1 -63.5t3 -61.5q2 -23 7.5 -73t17.5 -104t33.5 -93t54.5 -39q37 0 65.5 28.5t49 72.5t32 89t15.5 76q4 33 6 76t2 94q0 104 -15.5 216t-62.5 177q-8 10 -8 25q0 23 20.5 38t46.5 15q18 0 38 -10t34 -37 q18 -33 26.5 -92.5t8.5 -134.5q0 -119 -20.5 -256.5t-61.5 -245.5q-16 -43 -49 -95.5t-79 -89t-105 -36.5q-8 0 -15.5 1t-17.5 3q-74 16 -120 112.5t-52 251.5q-8 -39 -32 -100t-60.5 -122.5t-84 -103.5t-104.5 -42q-43 0 -67.5 40t-36 95t-15.5 96q-4 45 -6 90t-2 84z" />
<glyph unicode="x" horiz-adv-x="645" d="M10 -160q0 6 4 19q47 121 101.5 234.5t111.5 223.5q-27 70 -47 137.5t-37 123.5q-14 -113 -39.5 -227.5t-56.5 -194.5q-6 -18 -16 -19q-16 0 -17 27v10t2 8q25 74 43.5 167t29.5 195.5t11 196.5q0 10 -1 19.5t-1 17.5v8q2 12 5 22.5t8 22.5q14 35 36.5 54.5t57.5 36.5 q4 2 12 2q23 0 27 -35q4 -41 18 -156t53 -254q29 51 60 102.5t63 102.5q41 70 74 118t41 50q4 2 16 2q16 0 32.5 -13.5t16.5 -43.5v-4q0 -8 -25.5 -56.5t-68.5 -105.5q-33 -43 -80 -102.5t-102 -139.5q16 -47 35.5 -106.5t45.5 -115.5t55.5 -92t62.5 -36q14 0 26 6 q39 20 64.5 69.5t42 108t28.5 103.5q2 29 21 28q20 0 14 -37q-8 -37 -19 -82t-22 -71q-29 -82 -83 -139.5t-134 -57.5q-63 0 -106 43t-71 108.5t-48 131.5q-51 -86 -103.5 -190.5t-101.5 -231.5q-6 -16 -18 -16q-20 0 -21 28z" />
<glyph unicode="y" horiz-adv-x="677" d="M-72 -557q0 63 22.5 135t57.5 139q49 92 126 170t159 138.5t141 97.5q0 27 -2 87t-5 137t-9 149q-16 -90 -46 -178.5t-71 -180.5q-10 -23 -32.5 -57.5t-51.5 -60t-61 -25.5q-25 0 -47 20q-20 18 -34 64.5t-21 106t-10 121t-3 110.5q0 23 1 40t1 29q2 43 5 102.5t11.5 120 t24.5 103.5q31 78 121 78h19t18 -2q6 -2 11 -3t5 -7q0 -4 -2 -7q-20 -49 -34.5 -127.5t-23 -169t-8.5 -172.5q0 -41 2.5 -78.5t6.5 -66.5q6 -35 16 -63.5t27 -28.5q12 0 30 24q41 57 69 136t43 163t19 156q2 45 4.5 94t24.5 88q27 47 67 57.5t68 10.5h25q31 0 31 -12 q0 -4 -9 -13q-20 -18 -31.5 -71.5t-15.5 -126t-4 -150.5q0 -88 2 -169t2 -126v-22q59 35 103.5 56.5t66.5 21.5q4 0 6 -1t5 -1q10 -2 10 -17q0 -6 -4 -13t-13 -7q-25 -2 -66.5 -25.5t-76.5 -53.5t-35 -52v-25q0 -285 -58.5 -471t-155.5 -277.5t-212 -91.5q-113 0 -161 56.5 t-48 140.5zM20 -559q0 -68 25 -110t70 -42h6q72 0 122 47.5t83.5 124t55 166.5t33 179.5t15.5 160t6 105.5q-33 -18 -100.5 -75.5t-140 -142.5t-121.5 -194q-27 -59 -40.5 -115.5t-13.5 -103.5z" />
<glyph unicode="z" horiz-adv-x="733" d="M10 154q0 4 1 10t3 12q18 53 33.5 112.5t30.5 121.5q23 102 25.5 204.5t27.5 200.5q14 57 41 92t78 35q18 0 43 -6q37 -8 78 -31.5t81 -44t68 -20.5q12 0 25 6q4 43 29.5 90t76.5 47q29 0 43.5 -17.5t13.5 -39.5v-11q-6 -33 -46.5 -72.5t-100.5 -62.5q-14 -23 -53 -80 t-87 -138t-93 -171q-8 -14 -22.5 -47t-26.5 -68q39 51 96 79t114 28q59 0 110.5 -30.5t78.5 -102.5q64 26 126 26h5h20q14 0 15 -16q0 -16 -13 -16q-66 -6 -141 -41q8 -29 11.5 -64t3.5 -69q0 -100 -25 -213t-69 -220.5t-104.5 -195.5t-134 -140.5t-157.5 -52.5 q-111 0 -153 60.5t-42 142.5q0 72 23 144.5t51 121.5q41 72 107.5 154t151.5 161t179 138q-18 55 -52 77.5t-70 22.5q-39 0 -74 -19.5t-57 -47.5v-10q0 -55 -25 -95.5t-64 -40.5q-29 0 -34 37q0 4 -1 7t-1 8q0 41 31.5 115.5t80.5 162.5t101.5 173t95.5 150.5t59 94.5 q-20 -33 -54 -45t-69 -12q-25 0 -45 4t-35 6q-16 4 -31.5 6t-27.5 2q-45 0 -64.5 -25.5t-29.5 -70.5q-14 -63 -24.5 -130t-24.5 -132q-14 -70 -31.5 -134.5t-34.5 -111.5q-8 -27 -26 -27q-14 0 -15 19zM115 -559q0 -68 24.5 -108t67.5 -40q78 0 142.5 67t110.5 172.5 t71.5 227t25.5 232.5q0 33 -3 63.5t-7 57.5q-139 -100 -238.5 -223t-148.5 -244q-23 -57 -34 -109.5t-11 -95.5z" />
<glyph unicode="{" horiz-adv-x="729" d="M72 588q0 31 31.5 47t72.5 32.5t73 41t32 69.5q0 23 -25 64t-57.5 92t-57 106.5t-24.5 108.5q0 61 50 112.5t175 82t352 30.5q31 0 31 -20q0 -12 -9 -23.5t-20 -11.5q-156 0 -241.5 -25.5t-118.5 -69.5t-33 -100q0 -53 19.5 -113.5t39 -117.5t19.5 -107q0 -23 -6 -45 q-14 -39 -60.5 -85t-105.5 -66q59 -20 109.5 -68.5t56.5 -89.5q2 -6 2 -12v-12q0 -51 -19.5 -122t-39 -143.5t-19.5 -138.5q0 -74 43 -123t166 -49q39 0 85 5t103 18h2q10 0 17.5 -10.5t7.5 -20.5q0 -23 -29 -25q-61 -8 -114.5 -11t-98.5 -3q-137 0 -215 26.5t-109.5 71.5 t-31.5 101q0 57 23.5 119.5t54 121t54.5 103.5t24 67q0 45 -32 69.5t-73 41t-72.5 34t-31.5 48.5z" />
<glyph unicode="|" horiz-adv-x="688" d="M219 -72q12 68 19.5 183.5t10.5 260t3 294.5q0 147 -3 284t-10.5 243.5t-19.5 160.5v2q0 12 24.5 24.5t58.5 21.5t56 9q25 0 25 -12q-2 -125 -5 -270.5t-3 -294.5q0 -158 2 -309.5t3 -279.5t1 -218q0 -33 -1 -61.5t-1 -47.5q-2 -29 -23.5 -42t-50.5 -13q-33 0 -59.5 15.5 t-26.5 41.5v8z" />
<glyph unicode="}" horiz-adv-x="729" d="M57 -176q0 10 8.5 20.5t16.5 10.5h2q57 -12 103 -17.5t85 -5.5q123 0 167 49t44 123q0 66 -19.5 138.5t-38.5 143t-19 122.5v12t2 12q6 41 55 89t110 69q-59 20 -105 66t-60 85q-6 23 -7 45q0 49 19.5 106.5t38 118t18.5 113.5q0 55 -32.5 99.5t-117.5 70t-243 25.5 q-8 0 -17.5 11t-9.5 24q0 20 31 20q227 0 352 -30.5t174.5 -82t49.5 -112.5q0 -53 -25 -108.5t-57.5 -106.5t-57 -92t-24.5 -64q0 -45 32.5 -69.5t73.5 -41t73 -33t32 -46.5q0 -31 -32 -48.5t-73 -34t-73.5 -41t-32.5 -69.5q0 -23 23.5 -67.5t54 -103t54 -121t23.5 -119.5 q0 -55 -31.5 -100.5t-108.5 -72t-214 -26.5q-45 0 -98 3t-115 11q-31 2 -31 25z" />
<glyph unicode="~" horiz-adv-x="835" d="M113 1096q0 23 15 60.5t42 75.5t61 58q23 12 48 13q45 0 96 -26t105.5 -51.5t103.5 -25.5q31 0 57 12q25 6 41 34t27.5 54.5t19.5 26.5q4 0 6 -4v-6q0 -23 -18.5 -64t-48 -82t-68.5 -61h2q-25 -12 -51 -12q-45 0 -94 25.5t-99.5 50t-103.5 24.5q-8 0 -17.5 -1t-19.5 -3 q-41 -10 -53 -33.5t-16.5 -46t-22.5 -35.5h-2q-10 0 -10 17z" />
<glyph unicode="&#xa1;" horiz-adv-x="475" d="M203 -254l100 872q0 20 19 21q8 0 15 -6t7 -17l53 -870v-4q0 -33 -29.5 -50.5t-64.5 -17.5q-37 0 -68.5 17.5t-31.5 48.5v6zM225 981q0 41 29 69.5t70 28.5t69.5 -28.5t28.5 -69.5t-28.5 -69.5t-69.5 -28.5t-70 28.5t-29 69.5z" />
<glyph unicode="&#xa2;" horiz-adv-x="1034" d="M145 532q0 133 46.5 257t131.5 217.5t199 130.5v88q0 23 9.5 34t19.5 11t19.5 -10.5t9.5 -32.5v-78q16 4 32.5 6t34.5 2q76 0 138.5 -35t76.5 -131q2 -8 2 -17v-20q0 -51 -22 -106q-8 -20 -45 -21q-14 0 -27.5 9.5t-13.5 35.5q0 6 1 13.5t3 15.5q6 27 11 53.5t5 49.5 q0 43 -20.5 71.5t-77.5 28.5q-45 0 -98 -27v-966q66 10 132 54t126 120q29 37 45 86q14 39 28 39q10 0 14.5 -10.5t4.5 -24.5v-10.5t-2 -10.5q-12 -43 -33 -73q-51 -92 -136 -147.5t-179 -67.5v-148q0 -41 -31 -41q-8 0 -17.5 9.5t-9.5 29.5v145q-119 2 -219 78t-139 238 q-18 78 -19 155zM270 506q0 -27 2 -55.5t7 -57.5q23 -133 89 -204.5t154 -79.5v933q-66 -47 -123 -127.5t-93 -184t-36 -224.5z" />
<glyph unicode="&#xa3;" horiz-adv-x="972" d="M-66 -14q0 20 5.5 34.5t13.5 16.5q80 10 127 25.5t92 25.5q-12 160 -12 311v68t2 65h-96q-16 0 -17 21q0 10 7 21.5t18 11.5h90q23 463 160 757q41 84 96 135.5t131 51.5q6 0 11 -1t11 -1q76 -8 109 -69.5t33 -149.5q0 -109 -41 -233t-103 -212q-39 -55 -57 -55 q-8 0 -8 10q0 20 20 64q47 102 78 205.5t31 197.5v23.5t-2 23.5q-2 35 -16.5 62.5t-36.5 27.5q-14 0 -35 -16t-43 -57q-29 -49 -57.5 -133t-54 -184.5t-47 -203t-36.5 -188.5q-2 -14 -4 -27.5t-4 -27.5h336q18 0 18 -23q0 -10 -6 -20.5t-18 -10.5h-338 q-14 -102 -23.5 -207.5t-9.5 -205.5v-27q55 4 138 17.5t178.5 25.5t183.5 12t160.5 -18t116.5 -63.5t44 -128.5q0 -66 -36.5 -104t-84.5 -38h-2q-25 0 -24 15q0 6 8 10q12 6 31.5 13t34 26.5t14.5 58.5v8q0 68 -61.5 92.5t-153.5 24.5q-43 0 -90 -4t-94 -10 q-147 -20 -309 -49t-341 -68h-4q-16 0 -24.5 23.5t-8.5 50.5z" />
<glyph unicode="&#xa4;" horiz-adv-x="1050" d="M166 975q0 12 14.5 21.5t28.5 11.5q16 4 37 4q14 0 27.5 -3t21.5 -12l108 -110q68 53 150 53q41 0 78 -14.5t69 -38.5l107 110q8 8 21.5 10.5t27.5 2.5h20.5t14.5 -2q14 -2 28.5 -11.5t14.5 -21.5q0 -8 -8 -17l-152 -155q39 -74 39 -158q0 -39 -10 -76t-27 -69l148 -150 q6 -6 6 -12q0 -14 -18.5 -24.5t-32.5 -14.5q-4 0 -10.5 -1t-12.5 -1q-14 0 -27.5 4t-23.5 12l-96 99q-33 -27 -73 -42.5t-83 -15.5q-90 0 -158 62l-100 -103q-8 -8 -22.5 -12t-26.5 -4q-6 0 -11.5 1t-9.5 1q-16 4 -35.5 14.5t-19.5 24.5q0 6 6 12l150 154q-33 66 -33 141 q0 41 10 81t27 73l-156 159q-8 8 -8 17z" />
<glyph unicode="&#xa5;" horiz-adv-x="837" d="M66 1075q0 16 20 37t59 21h2q31 0 65 -40t66.5 -102.5t60.5 -133.5t46 -134.5t23 -104.5q12 25 40.5 85.5t66.5 137.5t78 149.5t76 124.5t58 65q4 4 10 4h11q27 0 49 -24.5t22 -53.5q0 -18 -14 -33q-23 -23 -72 -95.5t-107.5 -177t-113.5 -222.5h88q16 0 16 -19 q0 -8 -2 -12q-2 -6 -9 -14.5t-17 -8.5h-101l-47 -121h160q16 0 16 -18q0 -10 -2 -14q-2 -6 -9 -14.5t-17 -8.5h-168q-23 -70 -37 -135.5t-14 -120.5q0 -12 1 -24.5t3 -24.5q6 -41 41 -47q8 -2 8 -12q0 -14 -19.5 -33t-56.5 -19q-39 0 -65.5 35t-26.5 86v2q0 55 18.5 138 t38.5 155h-94q-16 0 -16 19q0 10 2 14q4 6 10 14t16 8h97l16 52q4 16 9 33.5t7 35.5h-141q-16 0 -16 19q0 8 2 12q4 6 10 14.5t16 8.5h133q0 6 -1 12t-1 12q-12 84 -54 168t-101.5 159t-128.5 126q-10 6 -10 20z" />
<glyph unicode="&#xa6;" horiz-adv-x="688" d="M219 -72q10 61 17.5 165t11.5 232t4 263q0 16 20.5 22t42.5 6q23 0 42.5 -5t19.5 -15q0 -186 1 -344t1 -254v-80q0 -29 -22.5 -42t-51.5 -13q-31 0 -58.5 15.5t-27.5 41.5v8zM219 1354v2q0 12 24.5 24.5t58.5 21.5t56 9q25 0 25 -12q-2 -133 -5 -289t-3 -313 q0 -8 -13.5 -11.5t-31.5 -3.5q-27 0 -52.5 6.5t-25.5 16.5q-2 180 -10.5 329.5t-22.5 219.5z" />
<glyph unicode="&#xa7;" horiz-adv-x="1212" d="M27 -25q0 66 63.5 130.5t165.5 106.5t219 42q23 0 54.5 -4t39.5 -8q8 -2 9 -13q0 -12 -19 -12h-8q-14 4 -30.5 4h-33.5q-92 0 -173 -35.5t-131 -91t-50 -110.5q0 -45 45 -85t150 -57q41 -6 78 -6q94 0 181 31t154.5 81t107.5 109.5t40 116.5q0 41 -23.5 78t-77.5 63 q-51 27 -126.5 47.5t-157.5 45t-153.5 58.5t-117 85t-45.5 125q0 70 45.5 123t112 93t131.5 64q-8 6 -17 12.5t-18 12.5q-33 29 -48 63.5t-15 71.5q0 94 76 174q84 86 205.5 128t240.5 42h6q152 0 219.5 -47t67.5 -106q0 -47 -41 -94.5t-115.5 -78t-177.5 -30.5h-6 q-8 2 -15.5 10t-7.5 14q0 8 9 9q70 0 131 31.5t100 77.5t39 89q0 37 -37 64.5t-125 27.5h-6q-76 0 -154.5 -24.5t-145.5 -66.5t-107.5 -92t-40.5 -99q0 -29 18 -57.5t57 -53.5q51 -31 125 -52t153 -41.5t148.5 -50.5t113.5 -78t44 -126q0 -14 -2 -31.5t-6 -36.5 q-18 -80 -77.5 -138t-139.5 -95q47 -33 75.5 -77t28.5 -105q0 -16 -3 -34.5t-7 -39.5q-20 -90 -88 -154.5t-160 -104.5t-192.5 -59.5t-188.5 -19.5q-29 0 -56.5 3t-49.5 5q-139 23 -199.5 71t-60.5 105zM303 711q0 -33 22.5 -67t73.5 -64q53 -33 131 -54.5t163 -43 t157 -54.5q78 47 125 110.5t47 123.5q0 37 -22.5 70.5t-69.5 58.5q-61 31 -133 51t-143.5 40.5t-133.5 49.5q-51 -20 -101 -55t-83 -77t-33 -89z" />
<glyph unicode="&#xa8;" horiz-adv-x="835" d="M201 1229q0 33 22.5 55.5t55.5 22.5q31 0 53 -22.5t22 -55.5q0 -31 -22 -54.5t-53 -23.5q-33 0 -55.5 23.5t-22.5 54.5zM483 1229q0 33 22.5 55.5t55.5 22.5q31 0 53.5 -22.5t22.5 -55.5q0 -31 -22.5 -54.5t-53.5 -23.5q-33 0 -55.5 23.5t-22.5 54.5z" />
<glyph unicode="&#xa9;" horiz-adv-x="1417" d="M106 590v14q4 133 58.5 248t145.5 203t209 137t249 49q162 0 295 -73.5t217 -200.5t96 -287q2 -14 2 -27.5v-27.5q0 -135 -53 -255t-145.5 -211t-211 -142.5t-251.5 -51.5q-162 0 -295 74t-215 200t-96 281q-2 16 -3.5 33.5t-1.5 36.5zM229 608q0 -150 76 -286t215 -207 q108 -56 225 -56q100 0 193.5 40t169.5 117t117 187q37 98 37 203q0 152 -75 287t-216 207q-111 55 -226 55q-102 0 -197 -42t-168 -120t-114 -184q-37 -98 -37 -201zM424 545q0 117 47 225.5t133 178t201 69.5h2q57 0 109.5 -27.5t62.5 -107.5q2 -8 2 -27q0 -45 -18 -88 q-4 -12 -18.5 -18.5t-31.5 -6.5h-8q-35 6 -35 48q0 23 7.5 51t7.5 53q0 23 -11.5 37t-44.5 14q-57 0 -122.5 -55t-112.5 -150.5t-47 -216.5q0 -39 6 -80q16 -96 64.5 -146t111.5 -50q51 0 104.5 30.5t100.5 94.5q16 23 31 57q10 31 21 43t20 12q10 0 17 -15t7 -36 q0 -10 -4 -26q-14 -33 -27 -58q-45 -80 -122.5 -124t-161.5 -44q-88 0 -167 58.5t-110 185.5q-6 29 -10 58.5t-4 60.5z" />
<glyph unicode="&#xaa;" horiz-adv-x="684" d="M111 834q0 51 10 118.5t35.5 131t69.5 105.5t114 42q49 0 76 -37q20 16 59 16q25 0 51 -6q-14 -53 -32.5 -149.5t-20.5 -186.5v-34q0 -33 11.5 -71t22.5 -65l11 -26q6 0 16.5 8t24.5 37q10 18 19.5 43.5t17.5 54.5q2 6 6 13.5t12 5.5h2q4 0 10.5 -7.5t6.5 -25.5 q-2 -35 -18.5 -81t-46 -80t-74.5 -34t-73 32t-41 78t-18 91q-27 -78 -65.5 -139.5t-85.5 -61.5q-39 0 -60.5 34t-30.5 86t-9 108zM225 844q0 -10 1 -20.5t1 -20.5q4 -41 12.5 -54.5t14.5 -13.5q20 0 37.5 31t33 75t25.5 86t15 64q0 4 1 10.5t1 10.5q4 39 9 78.5t17 70.5 q-10 8 -26 8q-29 0 -54.5 -25.5t-42.5 -60.5q-23 -49 -34 -114.5t-11 -124.5z" />
<glyph unicode="&#xab;" horiz-adv-x="849" d="M172 610q0 35 10 45q14 14 56.5 51t97.5 84.5t107.5 91.5t86.5 72l35 29q10 6 17 6q12 0 12 -22v-6q-2 -8 -6 -20.5t-13 -20.5q-12 -14 -50 -57.5t-84 -95.5t-85 -95t-51 -60l166 -250q10 -12 14 -28.5t4 -28.5q-4 -29 -22 -29q-6 0 -18 7q-16 10 -55.5 47t-83.5 79 t-76.5 75.5t-36.5 37.5q-12 10 -18.5 36t-6.5 52zM457 631q0 33 10 43q12 12 49 41.5t85 66.5t93 72t75 58l30 22q6 6 12 6q12 0 12 -20v-7q-4 -18 -16 -34q-10 -12 -41 -46t-69 -75t-69.5 -76t-43.5 -47l182 -293q14 -25 14 -49v-6q0 -25 -20 -25q-8 0 -19 6 q-12 8 -41.5 38t-65.5 70t-71 79t-58.5 66.5t-27.5 31.5q-8 10 -14 32.5t-6 45.5z" />
<glyph unicode="&#xac;" horiz-adv-x="559" d="M-59 -66q0 8 14 23q76 72 131 168t94 197q-2 18 -3 35.5t-1 31.5q-2 35 -2 63.5v53.5v2q0 106 6 219t16.5 218.5t22.5 192.5t25 142q12 51 37.5 116.5t69.5 114t104 48.5q72 0 98.5 -54.5t26.5 -134.5q0 -68 -13.5 -144.5t-34 -148t-38 -127t-27.5 -80.5 q-33 -86 -75 -174t-83 -159q0 -20 -1 -44t-1 -53q0 -59 4 -126.5t18.5 -126t41 -95.5t69.5 -37t76 33q41 39 62.5 104.5t37.5 133.5q6 29 21 28q10 0 10 -24q0 -6 -1 -14.5t-3 -18.5q-12 -70 -37.5 -143.5t-72 -123.5t-125.5 -50q-66 0 -110 40.5t-69.5 103t-38.5 128.5 q-43 -100 -99.5 -186.5t-115.5 -133.5q-8 -8 -22 -8q-12 0 -12 10zM313 623q53 109 98.5 230.5t73 241t27.5 218.5q0 59 -9 98t-34 39t-46.5 -53.5t-38.5 -139.5t-29.5 -185t-21.5 -192.5t-14.5 -162.5t-5.5 -94z" />
<glyph unicode="&#xad;" horiz-adv-x="735" d="M139 612q0 8 4 21q4 10 15.5 23.5t27.5 13.5h447q16 0 22.5 -10.5t6.5 -20.5q0 -8 -5 -21q-4 -8 -15 -22t-28 -14h-448q-27 0 -27 30z" />
<glyph unicode="&#xae;" horiz-adv-x="888" d="M94 1049.5v17.5v8q0 94 49.5 171t129 123t173.5 46q88 0 159 -39t116 -106.5t51 -153.5q0 -8 1 -14t1 -15q0 -96 -49 -177t-129 -128t-176 -47q-86 0 -158 39t-115 105.5t-51 150.5q-2 10 -2 19.5zM154 1053q6 -74 45 -136.5t100 -99.5t137 -37t138.5 38t101.5 103.5 t39 147.5q0 6 -1 13.5t-1 13.5q-6 76 -45 137t-100.5 99t-137.5 38q-80 0 -142.5 -40t-98 -106.5t-35.5 -146.5v-24zM281 1268q0 10 8 18l8 8h10q35 0 72 6q10 2 21.5 2.5t23.5 0.5q35 0 71.5 -8.5t62.5 -30t26 -62.5q0 -51 -37 -92t-94 -55q12 -16 36.5 -51t57.5 -63 t65 -28q0 -27 -16 -35t-33 -8q-27 0 -51.5 21.5t-40.5 50.5q-18 25 -33 64q-6 14 -11 25t-7 18q-39 2 -39 26q0 18 16 19q35 0 69 12t58 39q16 18 23.5 33.5t7.5 25.5q0 29 -28.5 40t-65.5 11h-21q-6 0 -14 -1t-18 -3q-23 -51 -37.5 -125.5t-14.5 -134.5v-16q0 -14 1 -28.5 t3 -28.5q5 -29 17 -54q-23 0 -34 12.5t-17 26.5q-8 25 -12.5 55.5t-4.5 63.5q0 47 5 95t14 81l8 39q-8 0 -17.5 1t-15.5 3q-23 6 -22 27z" />
<glyph unicode="&#xaf;" horiz-adv-x="835" d="M182 1219q0 16 7.5 35.5t15.5 19.5h387q8 0 8 -17q0 -16 -7 -36.5t-18 -20.5h-385q-8 0 -8 19z" />
<glyph unicode="&#xb0;" horiz-adv-x="530" d="M90 1051q0 72 55.5 123t130.5 51q78 0 133.5 -51.5t55.5 -122.5q0 -72 -55.5 -123t-133.5 -51q-76 0 -131 51t-55 123zM176 1053q0 -45 29.5 -76t70.5 -31q43 0 73 31t30 76t-30 75.5t-73 30.5q-41 0 -70.5 -30.5t-29.5 -75.5z" />
<glyph unicode="&#xb1;" horiz-adv-x="980" d="M141 362q0 8 4 21q4 10 16.5 24.5t31.5 14.5h645q16 0 22 -10.5t6 -22.5q0 -8 -4 -20q-4 -10 -15 -25.5t-32 -15.5h-643q-16 0 -23.5 10t-7.5 24zM141 823q0 8 4 21q4 10 16.5 24.5t31.5 14.5h266v184q0 16 14 25.5t25 11.5q4 2 10 2h10q14 0 24.5 -5t10.5 -18v-200h285 q16 0 22 -10.5t6 -22.5q0 -10 -4 -23q-4 -10 -15 -24.5t-32 -14.5h-262v-215q0 -14 -15.5 -23t-25.5 -13q-6 -2 -18 -2t-23.5 4t-11.5 18v231h-287q-16 0 -23.5 10.5t-7.5 24.5z" />
<glyph unicode="&#xb2;" horiz-adv-x="606" d="M59 524q0 29 27 56q57 57 96 98t71 81t63.5 88t74.5 118q18 31 34.5 76.5t16.5 84.5q0 31 -13 51.5t-48 20.5h-4q-31 0 -68 -19.5t-71.5 -49t-57 -61.5t-22.5 -56q0 -16 8 -25q2 -2 5 -6t3 -10q0 -2 -1 -3t-1 -3q-2 -2 -5 -5.5t-7 -3.5q-6 0 -17 7q-12 6 -35.5 41.5 t-23.5 62.5v6q4 23 29.5 52.5t56.5 54.5q49 39 98 56t94 17q78 0 130.5 -47t52.5 -125q0 -45 -19.5 -95t-64.5 -103q-18 -23 -36.5 -44.5t-41.5 -39.5l-80 -72q-39 -35 -76 -72t-69 -84q63 8 139 17.5t113 9.5h32q16 0 34 -1t32 -7q23 -8 36 -24.5t13 -45.5q0 -2 -1 -7 t-1 -9q-6 -29 -12 -41q-5 -10 -15 -10t-12 14q-8 31 -43 39q-27 6 -65 6q-63 0 -136 -12l-102 -17q-8 -2 -15.5 -3t-13.5 -1q-10 -14 -32 -14h-8.5t-10.5 2q-10 2 -16 13.5t-11 21.5q-4 16 -4 22z" />
<glyph unicode="&#xb3;" horiz-adv-x="555" d="M29 580q0 47 40 75.5t93 41t88 12.5h6q23 0 38 -5.5t15 -13.5q0 -10 -51 -22q-16 -4 -56 -18.5t-74 -34t-34 -42.5q0 -4 9.5 -12t41.5 -10h17q94 0 156.5 31.5t93.5 72.5q27 35 26 74q0 51 -45 76q-20 12 -50 20.5t-71 8.5q-14 -4 -27.5 -6.5t-27.5 -4.5h-2q-14 0 -14 15 q0 2 1 3t1 3q0 4 3 10t11 8q47 10 104.5 51t96.5 95q16 20 27.5 51t11.5 59q0 29 -16.5 50.5t-57.5 21.5q-31 0 -70 -18.5t-75.5 -47t-60 -58.5t-23.5 -54q0 -14 8 -23q2 -2 4 -7t2 -9q0 -2 -1 -3t-1 -3q-6 -6 -12 -6t-17 6q-10 8 -32.5 42.5t-22.5 61.5q0 2 1 4t1 4 q6 23 32.5 51.5t59.5 51.5q53 35 101.5 51t91.5 16q80 0 129 -45t49 -110q0 -37 -17.5 -77t-56.5 -79q-18 -18 -40.5 -33.5t-49.5 -30.5q14 -2 26.5 -3t24.5 -5q51 -12 79 -52t28 -89q0 -37 -17 -76q-29 -66 -109.5 -117t-221.5 -51h-21q-63 2 -103 32t-40 67z" />
<glyph unicode="&#xb4;" horiz-adv-x="591" d="M131 1042q0 2 2 5l289 237q6 6 16 6q25 0 53.5 -25.5t28.5 -43.5q0 -10 -8 -13l-356 -180q-2 0 -2 -1t-2 -1q-8 0 -14.5 6t-6.5 10z" />
<glyph unicode="&#xb5;" horiz-adv-x="686" d="M61 -319q0 16 1 32.5t1 30.5q4 164 6.5 332t4.5 330q2 92 7 178t13 152.5t19 92.5q10 25 36.5 42.5t71.5 17.5q31 0 64 -8q-6 -23 -22.5 -108t-26.5 -187q-6 -59 -9.5 -122t-3.5 -120q0 -100 14.5 -171t51.5 -71t63.5 39t43 101.5t26.5 130t12 125.5q4 78 10.5 170 t28.5 155q8 25 33.5 42.5t71.5 17.5q25 0 65 -11q-10 -47 -22.5 -127.5t-20.5 -176t-8 -187.5v-12q0 -33 2 -85.5t10 -110.5t24.5 -108.5t45.5 -76.5q-6 -2 -12.5 -3t-12.5 -1h-10q-70 0 -108.5 49t-54 124.5t-21.5 155.5q-8 -51 -22.5 -99t-31.5 -93q-20 -61 -65 -97 t-94 -36q-63 0 -105 59q8 -29 16.5 -84t18.5 -119.5t22.5 -123t30 -96.5t39.5 -38q0 -39 -28.5 -57t-61.5 -18q-49 0 -72.5 24.5t-32 64.5t-8.5 81z" />
<glyph unicode="&#xb6;" horiz-adv-x="1017" d="M78 915q0 84 49 170t133 161t188.5 120t217.5 45q51 0 102 -12q4 4 10 5t13 1q53 0 90 -13.5t37 -43.5q-6 -27 -21.5 -107t-35 -197.5t-38 -259t-32 -291t-17.5 -292.5q0 -27 -1 -57.5t-1 -63.5q0 -88 7 -177t28.5 -148.5t64.5 -59.5q20 0 37 15.5t23 33.5q6 16 16 16 t10 -16q0 -45 -27.5 -77t-86.5 -32q-72 0 -117 82h-14q-76 0 -122 61.5t-69.5 161t-32 216t-8.5 225.5q0 78 2 146.5t4 113.5q-221 14 -315 93t-94 181zM139 889q0 -74 69.5 -125t233.5 -51q10 0 22.5 1t24.5 1q4 98 16.5 210.5t30 218t33.5 175.5q-84 -25 -160.5 -73 t-138 -108.5t-96.5 -126t-35 -122.5zM561 295q0 -43 1 -81t3 -71q4 -51 10.5 -116.5t19.5 -126t36.5 -100.5t62.5 -40h2q6 0 11 2q-39 96 -53.5 242t-14.5 297q0 92 4 180t8 162q-6 0 -14 -1t-16 -1q-14 -2 -25.5 -2h-24.5q-4 -78 -7 -169t-3 -175zM575 721l43 6 q10 2 20.5 2h18.5l11 117q12 145 33.5 273t46.5 216q-8 2 -18.5 2h-20.5h-26.5t-27.5 -2q-6 -27 -16 -92t-22.5 -153.5t-24 -184.5t-17.5 -184z" />
<glyph unicode="&#xb7;" horiz-adv-x="565" d="M190 547q0 41 29 69.5t70 28.5t69.5 -28.5t28.5 -69.5q0 -39 -28.5 -68.5t-69.5 -29.5t-70 29.5t-29 68.5z" />
<glyph unicode="&#xb8;" horiz-adv-x="835" d="M270 -203q0 8 10.5 37t23.5 64.5t26.5 68.5t19.5 47q4 6 17.5 8.5t29.5 2.5t29 -3l14 -4q-14 -25 -29.5 -61.5t-27.5 -69t-23 -47.5q27 14 53.5 19.5t53.5 5.5q57 0 103 -24.5t73 -65.5t19 -90q-12 -90 -62.5 -141.5t-116.5 -71t-125 -19.5q-20 0 -38.5 3t-34.5 12 q-6 2 -6 12q0 18 12 14q8 -2 16 -2h17q41 0 86 18.5t76.5 61.5t31.5 117v6q0 41 -20.5 78t-61.5 37h-4q-27 0 -60.5 -11.5t-60.5 -25.5h-2q-6 0 -22.5 10t-16.5 14z" />
<glyph unicode="&#xb9;" horiz-adv-x="538" d="M109 999q0 14 10 19q29 18 73 69.5t64 100.5q-2 4 -2 14q0 20 16 33q16 12 36 21l20 10q23 0 32 -21.5t9 -48.5q0 -18 -2 -27l-19 -122q-8 -61 -14 -135t-6 -142q0 -88 10 -149.5t35 -61.5q0 -20 -18.5 -33.5t-40 -20.5t-31.5 -7q-14 0 -27.5 31.5t-13.5 95.5v20 q4 102 13 202.5t15 201.5q0 10 1 18t1 16q-27 -33 -58.5 -61.5t-64.5 -44.5q-2 -2 -10 -2q-12 0 -20 8q-8 6 -8 16z" />
<glyph unicode="&#xba;" horiz-adv-x="571" d="M117 870q0 68 6 107q8 55 30.5 114.5t67.5 99.5t119 40q51 0 80 -35t40 -90t11 -115q0 -55 -7 -105t-15 -83q-10 -41 -35 -90t-61 -84t-85 -35q-61 0 -94 44t-45 108.5t-12 123.5zM246 856q0 -61 13 -115.5t52 -54.5q25 0 42.5 25.5t28.5 58.5t15 55q4 23 8.5 53.5 t4.5 65.5q0 53 -11.5 102.5t-40.5 69.5q-20 14 -20 33q0 18 14 33q-2 0 -4 1t-4 1q-18 0 -31.5 -20.5t-23.5 -47.5q-14 -39 -22.5 -79t-12.5 -54q-2 -14 -5 -50t-3 -77z" />
<glyph unicode="&#xbb;" horiz-adv-x="743" d="M78 913v11q0 16 10 16q6 0 14 -6l30 -22q30 -23 76 -58t94 -73t86 -67.5t50 -41.5q8 -8 8 -37q0 -23 -6 -47.5t-16 -34.5q-4 -4 -27.5 -31.5t-58.5 -66.5t-72 -79t-65.5 -70t-40.5 -38q-9 -6 -19 -6q-20 0 -20 25v6q0 12 4 25.5t8 23.5l184 293q-12 12 -43.5 47t-69.5 76 t-69 74.5t-41 46.5q-12 16 -16 34zM307 961v4q0 25 12 24q6 0 15 -6l34 -29q35 -30 88.5 -74t110 -92.5t99.5 -85t57 -51.5q10 -10 10 -37t-9 -54.5t-19 -37.5q-4 -4 -37 -37.5t-77 -75.5t-83 -79t-55 -47q-13 -7 -21 -7q-20 0 -20 29q0 12 5 28.5t13 28.5l166 250 q-12 16 -51 59.5t-85 95.5t-84 95t-50 58q-8 8 -13.5 20t-5.5 21z" />
<glyph unicode="&#xbc;" horiz-adv-x="1241" d="M109 999q0 14 10 19q31 18 78 68.5t67 101.5q-2 4 -2 12q0 23 17 35q18 12 39 21l20 10q23 0 34 -21.5t11 -48.5q0 -18 -2 -27q-6 -31 -11 -61.5t-10 -60.5q-8 -63 -13 -140.5t-5 -148.5q0 -82 9 -140.5t34 -58.5q0 -20 -19.5 -33.5t-41 -20.5t-33.5 -7q-16 0 -29.5 31.5 t-13.5 95.5v20q4 102 14 202.5t17 201.5q0 10 1 19t1 17q-59 -74 -131 -108q-2 -2 -11 -2q-10 0 -22 8q-8 6 -8 16zM127 -160q0 10 6 19q84 152 178.5 324.5t193.5 354t193.5 355.5t175.5 324q14 27 46 26q12 0 22 -6t10 -18q0 -8 -6 -19q-82 -150 -177 -324t-194.5 -354 t-193.5 -353t-176 -325q-14 -28 -45 -28q-33 0 -33 24zM551 250q0 4 1 7t1 5q2 10 8 19.5t12 13.5l2 2q16 10 59.5 54t94.5 103.5t95 119t65 100.5q-2 4 -2 10q0 10 6 19.5t12 13.5q18 12 39 21l21 10q23 0 34 -21.5t11 -48.5q0 -18 -2 -27q-6 -31 -11.5 -61.5t-9.5 -61.5 q-6 -43 -9 -93t-7 -101q10 2 22.5 2h22.5q45 0 81 -14.5t36 -59.5q0 -4 -1.5 -8t-1.5 -8q-4 -29 -14 -43q-6 -8 -14 -8q-12 0 -15 12q-6 27 -49 41q-35 10 -69 10q0 -88 9 -151.5t36 -63.5q0 -20 -19.5 -34.5t-42 -21.5t-34.5 -7q-16 0 -30 31.5t-14 97.5v18q2 33 3.5 64.5 t3.5 64.5q-20 -2 -42 -4t-44 -6q-33 -4 -66 -10.5t-61 -10.5q-23 -2 -42.5 -5t-33.5 -3h-12q-16 2 -22.5 12.5t-6.5 20.5zM659 295q31 2 64 6t65 8l99 13l18 208v27q-47 -63 -117 -138t-129 -124z" />
<glyph unicode="&#xbd;" horiz-adv-x="1275" d="M102 -160q0 10 7 19q84 152 178 324.5t193.5 354t193.5 355.5t176 324q14 27 45 26q31 0 31 -24q0 -8 -6 -19l-740 -1356q-14 -28 -45 -28q-33 0 -33 24zM109 999q0 14 10 19q31 18 78 68.5t67 101.5q-2 4 -2 12q0 23 17 35q18 12 39 21l20 10q23 0 34 -21.5t11 -48.5 q0 -18 -2 -27q-6 -31 -11 -61.5t-10 -60.5q-8 -63 -13 -140.5t-5 -148.5q0 -82 9 -140.5t34 -58.5q0 -20 -19.5 -33.5t-41 -20.5t-33.5 -7q-16 0 -29.5 31.5t-13.5 95.5v20q4 102 14 202.5t17 201.5q0 10 1 19t1 17q-59 -74 -131 -108q-2 -2 -11 -2q-10 0 -22 8q-8 6 -8 16z M643 25q0 29 27 55q59 57 99 98t72.5 80t65.5 87t76 118q20 33 35.5 78t15.5 84q0 31 -13 51t-48 20h-6q-31 0 -69 -19.5t-72.5 -49t-58.5 -60t-24 -55.5q0 -14 11 -25q6 -6 6 -16q0 -4 -2 -6q-4 -8 -13 -8q-6 0 -16 6q-12 6 -35.5 41t-23.5 61v6q4 23 29.5 53.5t56.5 53.5 q51 39 101 56.5t95 17.5q82 0 135.5 -48.5t53.5 -125.5q0 -43 -20.5 -93.5t-65.5 -103.5q-20 -23 -40 -43.5t-40 -38.5q-20 -20 -41 -37.5t-41 -36.5q-39 -35 -77 -71.5t-73 -81.5q43 4 93.5 10t95.5 11t69 5q23 0 50.5 -1t50.5 -9q49 -14 49 -65q0 -4 -1 -9.5t-1 -9.5 q-4 -31 -12 -43q-5 -8 -15 -8q-8 0 -12 12q-2 12 -14.5 25.5t-28.5 15.5q-27 6 -61 6q-33 0 -70 -4t-74 -10l-106 -16q-12 0 -29 -5q-8 -12 -33 -12q-12 0 -20 2q-10 2 -16.5 13.5t-10.5 19.5q-2 6 -3 12t-1 13z" />
<glyph unicode="&#xbe;" horiz-adv-x="1277" d="M29 580q0 47 41 75.5t95 41t89 12.5h6q23 0 38 -5.5t15 -11.5q0 -12 -51 -24q-16 -4 -57 -18.5t-75 -34t-34 -42.5q0 -4 9.5 -12t44.5 -10h16q96 0 159.5 31.5t94.5 72.5q29 39 29 74q0 51 -48 76q-20 12 -49.5 20.5t-75.5 8.5q-14 -4 -27 -6.5t-28 -4.5h-2q-14 0 -14 15 q0 2 1 3t1 3q0 4 3 10t11 8q47 10 106.5 51t98.5 95q16 20 27.5 51t11.5 59q0 29 -16.5 50.5t-57.5 21.5q-31 0 -70.5 -18.5t-77.5 -47t-62.5 -58.5t-24.5 -54q0 -14 8 -23q2 -2 4 -6t2 -8q0 -6 -2 -8q-6 -6 -12 -6t-17 6q-10 8 -31.5 42.5t-21.5 61.5v8q4 23 31.5 52.5 t60.5 50.5q53 35 103.5 51t95.5 16q80 0 131 -45t51 -110q0 -80 -76 -156q-18 -18 -41.5 -33.5t-50.5 -30.5q14 -2 27.5 -3t25.5 -5q53 -12 81 -52t28 -89q0 -37 -16 -76q-29 -68 -112 -118t-228 -50h-21q-68 2 -107.5 32t-39.5 67zM215 -160q0 10 6 19q84 152 178.5 324.5 t193.5 354t193.5 355.5t176.5 324q14 27 45 26q31 0 30 -24q0 -8 -6 -19l-739 -1356q-14 -28 -45 -28q-33 0 -33 24zM649 250q0 4 1 7t1 5q4 16 13 25q2 4 5 6t5 4q16 10 59 54t95.5 104.5t96.5 120t64 98.5q-2 4 -2 10q0 23 19 33q16 12 36 21l21 10q25 0 35 -21.5 t10 -48.5v-13.5t-2 -13.5q-6 -31 -10 -61.5t-9 -61.5q-6 -43 -9 -93t-7 -101q10 2 22.5 2h22.5q45 0 81 -14.5t36 -59.5q0 -4 -1 -8t-1 -8q-4 -29 -14 -43q-6 -8 -17 -8q-10 0 -12 12q-6 27 -49 41q-35 10 -70 10q0 -88 9 -151.5t36 -63.5q0 -20 -20.5 -34.5t-43 -21.5 t-34.5 -7q-16 0 -28.5 31.5t-12.5 97.5v18q2 33 3 64.5t3 64.5q-20 -2 -43 -4t-45 -6q-33 -4 -65.5 -10.5t-61.5 -10.5q-23 -2 -42 -5t-34 -3h-12q-16 2 -22.5 12.5t-6.5 20.5zM758 295q31 2 63.5 6t65.5 8l100 13q4 53 9 105t8 103q0 6 1 12.5t1 14.5q-47 -63 -118 -138 t-130 -124z" />
<glyph unicode="&#xbf;" horiz-adv-x="749" d="M98 -98q0 82 34 151.5t84 127t99 100.5q66 57 120 106t87 133q14 41 15 72q0 35 -12.5 53.5t-30.5 26.5q-10 4 -11 12q0 12 17 18q4 2 14 3q23 0 44.5 -17.5t29.5 -44.5q4 -12 6 -25.5t2 -27.5q0 -98 -88 -219q-43 -59 -90 -141.5t-84 -163.5q-37 -82 -37 -148 q0 -72 38 -113t99 -41q70 0 118 39t76.5 98.5t39.5 118.5q4 14 14 15q16 0 16 -31v-6q-10 -143 -109.5 -226t-242.5 -83q-121 0 -184.5 62.5t-63.5 150.5zM399 981q0 41 29 69.5t70 28.5t69.5 -28.5t28.5 -69.5t-28.5 -69.5t-69.5 -28.5t-70 28.5t-29 69.5z" />
<glyph unicode="&#xc0;" horiz-adv-x="1286" d="M-37 973q0 57 28.5 111.5t86.5 84.5q4 2 8 2q12 0 12 -12t-10 -18q-33 -23 -47 -68t-14 -90q0 -68 42 -106.5t113 -53.5q59 182 181 321.5t284 225.5t334 105q20 2 38.5 3t35.5 1q121 0 173 -46.5t52 -113.5q0 -70 -45 -150q-14 -23 -29.5 -45t-31.5 -43 q-10 -80 -23.5 -226t-13.5 -312q0 -66 2 -131.5t10 -130.5q6 -51 16.5 -108.5t26.5 -109t37.5 -84t50.5 -32.5h4q16 0 29.5 10t15.5 23q2 14 12 14q14 0 15 -23v-14q0 -92 -88 -92h-13q-63 6 -110 62.5t-79 149.5t-50 206q-12 78 -19.5 160.5t-9.5 166.5 q-29 -102 -73 -204.5t-101 -189.5t-126 -145.5t-148 -72.5q-31 -6 -62 -6q-111 0 -186.5 74.5t-114.5 198.5t-39 270v28.5t2 28.5q2 45 9.5 88t15.5 84q-88 16 -144.5 65.5t-56.5 143.5zM295 500q0 -121 23.5 -223.5t72.5 -163t123 -60.5q8 0 16.5 1t16.5 3q68 12 128 75 t111.5 158t92.5 204.5t67 218.5q12 51 25.5 99t21.5 91l2 31q-98 -59 -214.5 -98t-233.5 -58.5t-223 -23.5q-18 -70 -25 -142q-2 -29 -3 -56.5t-1 -55.5zM340 813q104 4 222 20.5t232.5 54.5t206.5 101q4 51 11.5 95t15.5 79q2 6 19.5 11.5t39.5 5.5q18 0 38 -4.5t36 -16.5 l4 8t4 9q33 66 33 120q0 61 -42 102.5t-134 41.5q-12 0 -25.5 -1t-27.5 -3q-115 -14 -214.5 -71.5t-181 -144.5t-142 -191.5t-95.5 -215.5zM798 1829q0 16 24.5 38t44.5 22q9 0 15 -5l244 -202q2 -2 2 -4q0 -3 -5 -8t-12 -5q-2 0 -2 0.5t-1 0.5l-303 153q-7 2 -7 10z" />
<glyph unicode="&#xc1;" horiz-adv-x="1286" d="M-37 973q0 57 28.5 111.5t86.5 84.5q4 2 8 2q12 0 12 -12t-10 -18q-33 -23 -47 -68t-14 -90q0 -68 42 -106.5t113 -53.5q59 182 181 321.5t284 225.5t334 105q20 2 38.5 3t35.5 1q121 0 173 -46.5t52 -113.5q0 -70 -45 -150q-14 -23 -29.5 -45t-31.5 -43 q-10 -80 -23.5 -226t-13.5 -312q0 -66 2 -131.5t10 -130.5q6 -51 16.5 -108.5t26.5 -109t37.5 -84t50.5 -32.5h4q16 0 29.5 10t15.5 23q2 14 12 14q14 0 15 -23v-14q0 -92 -88 -92h-13q-63 6 -110 62.5t-79 149.5t-50 206q-12 78 -19.5 160.5t-9.5 166.5 q-29 -102 -73 -204.5t-101 -189.5t-126 -145.5t-148 -72.5q-31 -6 -62 -6q-111 0 -186.5 74.5t-114.5 198.5t-39 270v28.5t2 28.5q2 45 9.5 88t15.5 84q-88 16 -144.5 65.5t-56.5 143.5zM295 500q0 -121 23.5 -223.5t72.5 -163t123 -60.5q8 0 16.5 1t16.5 3q68 12 128 75 t111.5 158t92.5 204.5t67 218.5q12 51 25.5 99t21.5 91l2 31q-98 -59 -214.5 -98t-233.5 -58.5t-223 -23.5q-18 -70 -25 -142q-2 -29 -3 -56.5t-1 -55.5zM340 813q104 4 222 20.5t232.5 54.5t206.5 101q4 51 11.5 95t15.5 79q2 6 19.5 11.5t39.5 5.5q18 0 38 -4.5t36 -16.5 l4 8t4 9q33 66 33 120q0 61 -42 102.5t-134 41.5q-12 0 -25.5 -1t-27.5 -3q-115 -14 -214.5 -71.5t-181 -144.5t-142 -191.5t-95.5 -215.5zM949 1674q0 1 2 4l246 201q5 5 13 5q22 0 46 -21.5t24 -36.5q0 -9 -7 -11l-302 -153q-2 0 -2 -1t-2 -1q-7 0 -12.5 5t-5.5 9z" />
<glyph unicode="&#xc2;" horiz-adv-x="1286" d="M-37 973q0 57 28.5 111.5t86.5 84.5q4 2 8 2q12 0 12 -12t-10 -18q-33 -23 -47 -68t-14 -90q0 -68 42 -106.5t113 -53.5q59 182 181 321.5t284 225.5t334 105q20 2 38.5 3t35.5 1q121 0 173 -46.5t52 -113.5q0 -70 -45 -150q-14 -23 -29.5 -45t-31.5 -43 q-10 -80 -23.5 -226t-13.5 -312q0 -66 2 -131.5t10 -130.5q6 -51 16.5 -108.5t26.5 -109t37.5 -84t50.5 -32.5h4q16 0 29.5 10t15.5 23q2 14 12 14q14 0 15 -23v-14q0 -92 -88 -92h-13q-63 6 -110 62.5t-79 149.5t-50 206q-12 78 -19.5 160.5t-9.5 166.5 q-29 -102 -73 -204.5t-101 -189.5t-126 -145.5t-148 -72.5q-31 -6 -62 -6q-111 0 -186.5 74.5t-114.5 198.5t-39 270v28.5t2 28.5q2 45 9.5 88t15.5 84q-88 16 -144.5 65.5t-56.5 143.5zM295 500q0 -121 23.5 -223.5t72.5 -163t123 -60.5q8 0 16.5 1t16.5 3q68 12 128 75 t111.5 158t92.5 204.5t67 218.5q12 51 25.5 99t21.5 91l2 31q-98 -59 -214.5 -98t-233.5 -58.5t-223 -23.5q-18 -70 -25 -142q-2 -29 -3 -56.5t-1 -55.5zM340 813q104 4 222 20.5t232.5 54.5t206.5 101q4 51 11.5 95t15.5 79q2 6 19.5 11.5t39.5 5.5q18 0 38 -4.5t36 -16.5 l4 8t4 9q33 66 33 120q0 61 -42 102.5t-134 41.5q-12 0 -25.5 -1t-27.5 -3q-115 -14 -214.5 -71.5t-181 -144.5t-142 -191.5t-95.5 -215.5zM787 1641q0 2 2 4q29 31 68.5 77t79.5 91t69 75.5t31 32.5h14q55 -70 110.5 -139t112.5 -137q2 -2 2 -4q0 -4 -13.5 -7t-31.5 -3 q-20 0 -40.5 3t-28.5 11l-138 156q-43 -41 -88 -78t-86 -78q-6 -6 -17 -8t-24 -2q-23 0 -22 6z" />
<glyph unicode="&#xc3;" horiz-adv-x="1286" d="M-37 973q0 57 28.5 111.5t86.5 84.5q4 2 8 2q12 0 12 -12t-10 -18q-33 -23 -47 -68t-14 -90q0 -68 42 -106.5t113 -53.5q59 182 181 321.5t284 225.5t334 105q20 2 38.5 3t35.5 1q121 0 173 -46.5t52 -113.5q0 -70 -45 -150q-14 -23 -29.5 -45t-31.5 -43 q-10 -80 -23.5 -226t-13.5 -312q0 -66 2 -131.5t10 -130.5q6 -51 16.5 -108.5t26.5 -109t37.5 -84t50.5 -32.5h4q16 0 29.5 10t15.5 23q2 14 12 14q14 0 15 -23v-14q0 -92 -88 -92h-13q-63 6 -110 62.5t-79 149.5t-50 206q-12 78 -19.5 160.5t-9.5 166.5 q-29 -102 -73 -204.5t-101 -189.5t-126 -145.5t-148 -72.5q-31 -6 -62 -6q-111 0 -186.5 74.5t-114.5 198.5t-39 270v28.5t2 28.5q2 45 9.5 88t15.5 84q-88 16 -144.5 65.5t-56.5 143.5zM295 500q0 -121 23.5 -223.5t72.5 -163t123 -60.5q8 0 16.5 1t16.5 3q68 12 128 75 t111.5 158t92.5 204.5t67 218.5q12 51 25.5 99t21.5 91l2 31q-98 -59 -214.5 -98t-233.5 -58.5t-223 -23.5q-18 -70 -25 -142q-2 -29 -3 -56.5t-1 -55.5zM340 813q104 4 222 20.5t232.5 54.5t206.5 101q4 51 11.5 95t15.5 79q2 6 19.5 11.5t39.5 5.5q18 0 38 -4.5t36 -16.5 l4 8t4 9q33 66 33 120q0 61 -42 102.5t-134 41.5q-12 0 -25.5 -1t-27.5 -3q-115 -14 -214.5 -71.5t-181 -144.5t-142 -191.5t-95.5 -215.5zM806 1650q0 27 21.5 67.5t51 71t53.5 30.5q31 0 64.5 -23.5t69 -48.5t68.5 -25q27 0 46.5 25t34 54t25.5 42l6 4q6 0 9.5 -8.5 t3.5 -13.5q0 -33 -18.5 -79t-50 -82.5t-73.5 -36.5q-31 0 -64.5 24t-68.5 47.5t-72 23.5q-24 0 -45 -29.5t-36 -59.5q-5 -8 -10 -8q-14 0 -15 25z" />
<glyph unicode="&#xc4;" horiz-adv-x="1286" d="M-37 973q0 57 28.5 111.5t86.5 84.5q4 2 8 2q12 0 12 -12t-10 -18q-33 -23 -47 -68t-14 -90q0 -68 42 -106.5t113 -53.5q59 182 181 321.5t284 225.5t334 105q20 2 38.5 3t35.5 1q121 0 173 -46.5t52 -113.5q0 -70 -45 -150q-14 -23 -29.5 -45t-31.5 -43 q-10 -80 -23.5 -226t-13.5 -312q0 -66 2 -131.5t10 -130.5q6 -51 16.5 -108.5t26.5 -109t37.5 -84t50.5 -32.5h4q16 0 29.5 10t15.5 23q2 14 12 14q14 0 15 -23v-14q0 -92 -88 -92h-13q-63 6 -110 62.5t-79 149.5t-50 206q-12 78 -19.5 160.5t-9.5 166.5 q-29 -102 -73 -204.5t-101 -189.5t-126 -145.5t-148 -72.5q-31 -6 -62 -6q-111 0 -186.5 74.5t-114.5 198.5t-39 270v28.5t2 28.5q2 45 9.5 88t15.5 84q-88 16 -144.5 65.5t-56.5 143.5zM295 500q0 -121 23.5 -223.5t72.5 -163t123 -60.5q8 0 16.5 1t16.5 3q68 12 128 75 t111.5 158t92.5 204.5t67 218.5q12 51 25.5 99t21.5 91l2 31q-98 -59 -214.5 -98t-233.5 -58.5t-223 -23.5q-18 -70 -25 -142q-2 -29 -3 -56.5t-1 -55.5zM340 813q104 4 222 20.5t232.5 54.5t206.5 101q4 51 11.5 95t15.5 79q2 6 19.5 11.5t39.5 5.5q18 0 38 -4.5t36 -16.5 l4 8t4 9q33 66 33 120q0 61 -42 102.5t-134 41.5q-12 0 -25.5 -1t-27.5 -3q-115 -14 -214.5 -71.5t-181 -144.5t-142 -191.5t-95.5 -215.5zM813 1741q0 33 22.5 55.5t55.5 22.5q31 0 53 -22.5t22 -55.5q0 -31 -22 -54.5t-53 -23.5q-33 0 -55.5 23.5t-22.5 54.5zM1095 1741 q0 33 22.5 55.5t55.5 22.5q31 0 53.5 -22.5t22.5 -55.5q0 -31 -22.5 -54.5t-53.5 -23.5q-33 0 -55.5 23.5t-22.5 54.5z" />
<glyph unicode="&#xc5;" horiz-adv-x="1286" d="M-37 973q0 57 28.5 111.5t86.5 84.5q4 2 8 2q12 0 12 -12t-10 -18q-33 -23 -47 -68t-14 -90q0 -68 42 -106.5t113 -53.5q59 182 181 321.5t284 225.5t334 105q20 2 38.5 3t35.5 1q121 0 173 -46.5t52 -113.5q0 -70 -45 -150q-14 -23 -29.5 -45t-31.5 -43 q-10 -80 -23.5 -226t-13.5 -312q0 -66 2 -131.5t10 -130.5q6 -51 16.5 -108.5t26.5 -109t37.5 -84t50.5 -32.5h4q16 0 29.5 10t15.5 23q2 14 12 14q14 0 15 -23v-14q0 -92 -88 -92h-13q-63 6 -110 62.5t-79 149.5t-50 206q-12 78 -19.5 160.5t-9.5 166.5 q-29 -102 -73 -204.5t-101 -189.5t-126 -145.5t-148 -72.5q-31 -6 -62 -6q-111 0 -186.5 74.5t-114.5 198.5t-39 270v28.5t2 28.5q2 45 9.5 88t15.5 84q-88 16 -144.5 65.5t-56.5 143.5zM295 500q0 -121 23.5 -223.5t72.5 -163t123 -60.5q8 0 16.5 1t16.5 3q68 12 128 75 t111.5 158t92.5 204.5t67 218.5q12 51 25.5 99t21.5 91l2 31q-98 -59 -214.5 -98t-233.5 -58.5t-223 -23.5q-18 -70 -25 -142q-2 -29 -3 -56.5t-1 -55.5zM340 813q104 4 222 20.5t232.5 54.5t206.5 101q4 51 11.5 95t15.5 79q2 6 19.5 11.5t39.5 5.5q18 0 38 -4.5t36 -16.5 l4 8t4 9q33 66 33 120q0 61 -42 102.5t-134 41.5q-12 0 -25.5 -1t-27.5 -3q-115 -14 -214.5 -71.5t-181 -144.5t-142 -191.5t-95.5 -215.5zM844 1841q0 72 55 122t133 50t133.5 -50.5t55.5 -121.5q0 -72 -55.5 -123t-133.5 -51t-133 51t-55 123zM932 1843q0 -45 29.5 -76 t70.5 -31t71 31t30 76q0 43 -30 74.5t-71 31.5t-70.5 -31.5t-29.5 -74.5z" />
<glyph unicode="&#xc6;" horiz-adv-x="2390" d="M-23 772q0 47 27 84t64.5 61.5t68.5 34.5q4 2 10 2q14 0 15 -12q0 -12 -17 -20q-29 -12 -54 -51.5t-25 -73.5q0 -59 46 -99.5t111 -64.5q18 174 93 320.5t191 257t258 179t294 85.5q23 4 42 4h40q150 0 227.5 -62.5t91.5 -159.5q55 66 133 108t166 62.5t172 20.5 q152 0 238 -61.5t86 -145.5t-101.5 -170t-332.5 -131q-2 0 -6.5 -1t-8.5 -1q-31 0 -30 18q0 14 28 21q164 33 235.5 92t71.5 117q0 59 -62 104t-163 45q-70 0 -145.5 -21.5t-142 -63.5t-108.5 -101t-42 -135q0 -82 81 -142.5t255 -60.5q47 0 102.5 5t118.5 18h8q55 0 55 -39 q0 -23 -15 -47.5t-34.5 -42t-33.5 -17.5h-27q-100 0 -206.5 -20.5t-207 -66.5t-178.5 -118.5t-119 -177.5q-27 -68 -26 -119q0 -66 37.5 -102.5t99 -52t131.5 -15.5q72 0 145.5 11.5t128.5 25.5q147 37 268 105.5t175 132.5q47 55 47 102q0 49 -47 77t-121 28 q-96 0 -219 -54.5t-230 -177.5q-18 -23 -30 -22q-10 0 -11 12q0 12 10.5 31.5t32.5 46.5q63 72 150.5 123t178.5 79.5t169 28.5h4q102 0 156.5 -58t54.5 -140q0 -51 -20.5 -104.5t-63.5 -102.5q-63 -74 -176 -136.5t-255 -100.5t-296 -38q-109 0 -199 40t-142 115t-52 175 q0 49 16 111q25 88 82.5 162.5t135 133t162.5 96.5t163 52q-68 12 -136.5 28.5t-119.5 54.5t-70 108q-45 -70 -112.5 -132.5t-157.5 -109.5q-10 -86 -18.5 -179.5t-8.5 -183.5v-38.5t2 -38.5q4 -68 14.5 -145t33 -130t59.5 -57q37 -2 37 -29q0 -18 -18.5 -36.5t-45.5 -18.5 h-4q-63 0 -104 56t-66.5 151.5t-40.5 208.5l-4 32q-63 -119 -146 -207t-184 -106q-31 -6 -61 -6q-111 0 -186.5 74.5t-113.5 198.5t-38 267v27q-104 23 -172 74t-68 139zM375 498q0 -121 23.5 -222.5t71.5 -162t122 -60.5q10 0 18 1t17 3q63 12 120.5 69.5t106.5 144.5 t88 188q0 47 3 95t5 95q-143 -51 -295.5 -77.5t-279.5 -26.5v-47zM377 602q18 -2 39 -3t41 -1q117 0 248 25.5t249 70.5q12 139 33 263t41 206q2 6 19.5 11.5t39.5 5.5q25 0 50.5 -8.5t42.5 -30.5q-2 -33 -22.5 -132.5t-39.5 -234.5q72 47 126 118t84 152.5t30 157.5 q0 98 -57.5 168t-190.5 70q-14 0 -28.5 -1t-30.5 -3q-141 -16 -259 -97.5t-207 -202t-142.5 -258t-63.5 -266.5q0 -2 -1 -5t-1 -5z" />
<glyph unicode="&#xc7;" horiz-adv-x="1325" d="M74 506q0 137 42 273t117.5 257t180 215.5t230.5 148.5t267 54h31q74 -2 138.5 -26.5t104.5 -77t40 -142.5q0 -100 -59.5 -195t-158 -173t-217 -124t-239.5 -46q-8 0 -16.5 1t-18.5 1q-27 2 -38 20.5t-11 30.5q129 0 255 41t227.5 126t156.5 218q29 70 29 127 q0 59 -36 99t-122 44h-14q-82 0 -178.5 -46t-190.5 -130t-171 -198.5t-124 -255t-47 -297.5v-19q0 -162 50 -257t135 -136t186 -41h31.5t29.5 2q102 10 204.5 62.5t190.5 130t146.5 170t70.5 180.5q2 10 11 10q8 0 16 -6t8 -15v-2q0 -92 -38 -169.5t-87 -143.5 q-92 -123 -236.5 -198.5t-295.5 -92.5q-18 -2 -37 -3t-37 -1q-131 0 -243.5 51.5t-186.5 161t-92 283.5q-2 23 -3 45t-1 43zM506 -269q0 8 10.5 37t23.5 64.5t26.5 68.5t19.5 47q4 6 17.5 8.5t29.5 2.5t29 -3l14 -4q-14 -25 -29.5 -61.5t-27.5 -69t-23 -47.5 q27 14 53.5 19.5t53.5 5.5q57 0 103 -24.5t73 -65.5t19 -90q-12 -90 -62.5 -141.5t-116.5 -71t-125 -19.5q-20 0 -38.5 3t-34.5 12q-6 2 -6 12q0 18 12 14q8 -2 16 -2h17q41 0 86 18.5t76.5 61.5t31.5 117v6q0 41 -20.5 78t-61.5 37h-4q-27 0 -60.5 -11.5t-60.5 -25.5h-2 q-6 0 -22.5 10t-16.5 14z" />
<glyph unicode="&#xc8;" horiz-adv-x="1402" d="M-57 1188q0 70 57 120t158 50q59 0 123.5 -27.5t101.5 -62.5q25 -25 25 -37q0 -10 -15 -10q-12 0 -22 6q-51 31 -103.5 44t-103.5 13q-63 0 -101 -33.5t-38 -81.5q0 -43 40.5 -91t131 -82.5t237.5 -45.5q-10 37 -10 74q0 109 51 187.5t134 132t180.5 79t191.5 25.5 q152 0 239 -61.5t87 -145.5q0 -74 -78 -148.5t-248 -126t-446 -57.5q37 -43 110.5 -70.5t188.5 -27.5q47 0 102 5t119 18h8q55 0 55 -39q0 -33 -29.5 -70t-52.5 -37h-30q-102 0 -220 -18.5t-231 -61.5t-203 -114.5t-135 -180.5q-27 -66 -27 -116q0 -70 46.5 -109t120 -55.5 t155.5 -16.5q84 0 165 11.5t136 25.5q147 37 268 105.5t174 132.5q47 55 48 102q0 49 -47.5 77t-120.5 28q-96 0 -219 -54.5t-230 -177.5q-18 -23 -31 -22q-10 0 -10 12t10.5 31.5t32.5 46.5q63 72 150.5 123t179.5 79.5t168 28.5h4q102 0 156.5 -58t54.5 -140 q0 -51 -20.5 -104.5t-63.5 -102.5q-63 -74 -176 -136.5t-255 -100.5t-296 -38q-127 0 -237.5 33t-180.5 113q-29 35 -46 85t-17 111q0 55 14 107q27 92 98.5 166.5t166.5 130t192.5 90.5t175.5 49q-57 10 -117.5 23.5t-110 40t-77.5 75.5q-180 6 -293 49t-164 105.5 t-51 124.5zM498 1014q0 -37 14 -66h6q236 0 376 37t202.5 92.5t62.5 110.5q0 59 -61.5 103t-161.5 44q-70 0 -145.5 -21.5t-142 -63.5t-108.5 -101t-42 -135zM747 1798q0 16 24.5 38t44.5 22q9 0 15 -5l244 -202q2 -2 2 -4q0 -3 -5 -8t-12 -5q-2 0 -2 0.5t-1 0.5l-303 153 q-7 2 -7 10z" />
<glyph unicode="&#xc9;" horiz-adv-x="1402" d="M-57 1188q0 70 57 120t158 50q59 0 123.5 -27.5t101.5 -62.5q25 -25 25 -37q0 -10 -15 -10q-12 0 -22 6q-51 31 -103.5 44t-103.5 13q-63 0 -101 -33.5t-38 -81.5q0 -43 40.5 -91t131 -82.5t237.5 -45.5q-10 37 -10 74q0 109 51 187.5t134 132t180.5 79t191.5 25.5 q152 0 239 -61.5t87 -145.5q0 -74 -78 -148.5t-248 -126t-446 -57.5q37 -43 110.5 -70.5t188.5 -27.5q47 0 102 5t119 18h8q55 0 55 -39q0 -33 -29.5 -70t-52.5 -37h-30q-102 0 -220 -18.5t-231 -61.5t-203 -114.5t-135 -180.5q-27 -66 -27 -116q0 -70 46.5 -109t120 -55.5 t155.5 -16.5q84 0 165 11.5t136 25.5q147 37 268 105.5t174 132.5q47 55 48 102q0 49 -47.5 77t-120.5 28q-96 0 -219 -54.5t-230 -177.5q-18 -23 -31 -22q-10 0 -10 12t10.5 31.5t32.5 46.5q63 72 150.5 123t179.5 79.5t168 28.5h4q102 0 156.5 -58t54.5 -140 q0 -51 -20.5 -104.5t-63.5 -102.5q-63 -74 -176 -136.5t-255 -100.5t-296 -38q-127 0 -237.5 33t-180.5 113q-29 35 -46 85t-17 111q0 55 14 107q27 92 98.5 166.5t166.5 130t192.5 90.5t175.5 49q-57 10 -117.5 23.5t-110 40t-77.5 75.5q-180 6 -293 49t-164 105.5 t-51 124.5zM498 1014q0 -37 14 -66h6q236 0 376 37t202.5 92.5t62.5 110.5q0 59 -61.5 103t-161.5 44q-70 0 -145.5 -21.5t-142 -63.5t-108.5 -101t-42 -135zM897 1644q0 1 2 4l246 201q5 5 13 5q22 0 46 -21.5t24 -36.5q0 -9 -7 -11l-302 -153q-2 0 -2 -1t-2 -1 q-7 0 -12.5 5t-5.5 9z" />
<glyph unicode="&#xca;" horiz-adv-x="1402" d="M-57 1188q0 70 57 120t158 50q59 0 123.5 -27.5t101.5 -62.5q25 -25 25 -37q0 -10 -15 -10q-12 0 -22 6q-51 31 -103.5 44t-103.5 13q-63 0 -101 -33.5t-38 -81.5q0 -43 40.5 -91t131 -82.5t237.5 -45.5q-10 37 -10 74q0 109 51 187.5t134 132t180.5 79t191.5 25.5 q152 0 239 -61.5t87 -145.5q0 -74 -78 -148.5t-248 -126t-446 -57.5q37 -43 110.5 -70.5t188.5 -27.5q47 0 102 5t119 18h8q55 0 55 -39q0 -33 -29.5 -70t-52.5 -37h-30q-102 0 -220 -18.5t-231 -61.5t-203 -114.5t-135 -180.5q-27 -66 -27 -116q0 -70 46.5 -109t120 -55.5 t155.5 -16.5q84 0 165 11.5t136 25.5q147 37 268 105.5t174 132.5q47 55 48 102q0 49 -47.5 77t-120.5 28q-96 0 -219 -54.5t-230 -177.5q-18 -23 -31 -22q-10 0 -10 12t10.5 31.5t32.5 46.5q63 72 150.5 123t179.5 79.5t168 28.5h4q102 0 156.5 -58t54.5 -140 q0 -51 -20.5 -104.5t-63.5 -102.5q-63 -74 -176 -136.5t-255 -100.5t-296 -38q-127 0 -237.5 33t-180.5 113q-29 35 -46 85t-17 111q0 55 14 107q27 92 98.5 166.5t166.5 130t192.5 90.5t175.5 49q-57 10 -117.5 23.5t-110 40t-77.5 75.5q-180 6 -293 49t-164 105.5 t-51 124.5zM498 1014q0 -37 14 -66h6q236 0 376 37t202.5 92.5t62.5 110.5q0 59 -61.5 103t-161.5 44q-70 0 -145.5 -21.5t-142 -63.5t-108.5 -101t-42 -135zM735 1610q0 2 2 4q29 31 68.5 77t79.5 91t69 75.5t31 32.5h14q55 -70 110.5 -139t112.5 -137q2 -2 2 -4 q0 -4 -13.5 -7t-31.5 -3q-20 0 -40.5 3t-28.5 11l-138 156q-43 -41 -88 -78t-86 -78q-6 -6 -17 -8t-24 -2q-23 0 -22 6z" />
<glyph unicode="&#xcb;" horiz-adv-x="1402" d="M-57 1188q0 70 57 120t158 50q59 0 123.5 -27.5t101.5 -62.5q25 -25 25 -37q0 -10 -15 -10q-12 0 -22 6q-51 31 -103.5 44t-103.5 13q-63 0 -101 -33.5t-38 -81.5q0 -43 40.5 -91t131 -82.5t237.5 -45.5q-10 37 -10 74q0 109 51 187.5t134 132t180.5 79t191.5 25.5 q152 0 239 -61.5t87 -145.5q0 -74 -78 -148.5t-248 -126t-446 -57.5q37 -43 110.5 -70.5t188.5 -27.5q47 0 102 5t119 18h8q55 0 55 -39q0 -33 -29.5 -70t-52.5 -37h-30q-102 0 -220 -18.5t-231 -61.5t-203 -114.5t-135 -180.5q-27 -66 -27 -116q0 -70 46.5 -109t120 -55.5 t155.5 -16.5q84 0 165 11.5t136 25.5q147 37 268 105.5t174 132.5q47 55 48 102q0 49 -47.5 77t-120.5 28q-96 0 -219 -54.5t-230 -177.5q-18 -23 -31 -22q-10 0 -10 12t10.5 31.5t32.5 46.5q63 72 150.5 123t179.5 79.5t168 28.5h4q102 0 156.5 -58t54.5 -140 q0 -51 -20.5 -104.5t-63.5 -102.5q-63 -74 -176 -136.5t-255 -100.5t-296 -38q-127 0 -237.5 33t-180.5 113q-29 35 -46 85t-17 111q0 55 14 107q27 92 98.5 166.5t166.5 130t192.5 90.5t175.5 49q-57 10 -117.5 23.5t-110 40t-77.5 75.5q-180 6 -293 49t-164 105.5 t-51 124.5zM498 1014q0 -37 14 -66h6q236 0 376 37t202.5 92.5t62.5 110.5q0 59 -61.5 103t-161.5 44q-70 0 -145.5 -21.5t-142 -63.5t-108.5 -101t-42 -135zM762 1710q0 33 22.5 55.5t55.5 22.5q31 0 53 -22.5t22 -55.5q0 -31 -22 -54.5t-53 -23.5q-33 0 -55.5 23.5 t-22.5 54.5zM1044 1710q0 33 22.5 55.5t55.5 22.5q31 0 53.5 -22.5t22.5 -55.5q0 -31 -22.5 -54.5t-53.5 -23.5q-33 0 -55.5 23.5t-22.5 54.5z" />
<glyph unicode="&#xcc;" horiz-adv-x="976" d="M-12 403v34t2 34q2 31 13 60.5t38 39.5q12 6 29 7q14 0 32.5 -8.5t38.5 -28.5q45 -41 124 -84t175.5 -80t190.5 -62q23 70 40 151t31 171q18 111 26.5 219.5t8.5 202.5q0 66 -4 121t-10 92q-8 53 -31.5 95t-66.5 42q-59 0 -95 -51t-51.5 -135t-15.5 -183 q0 -109 16.5 -217t43 -190t57.5 -113q12 -12 12 -20q0 -12 -21 -13q-23 0 -36 17q-47 51 -84 140t-58.5 197.5t-21.5 217.5q0 106 24.5 198.5t77.5 152.5t139 67h25q78 0 128 -38t76.5 -101.5t37 -141.5t10.5 -156q0 -76 -6 -143.5t-11 -114.5q-14 -143 -44.5 -268 t-77.5 -223q29 -4 55 -7t49 -3q35 0 61 6q37 10 56.5 23.5t32.5 27.5q12 14 26 14q20 0 21 -18v-4q0 -39 -74 -71t-219 -32h-41q-70 -119 -164 -187.5t-215 -68.5h-12q-106 0 -174 40t-103 104.5t-48 140.5t-13 147zM92 406q2 -92 23.5 -180.5t76 -145.5t156.5 -57 q92 0 153.5 58t102.5 161q-88 16 -184 43.5t-182 60.5t-146 60zM394 1827q0 16 24.5 38t44.5 22q9 0 15 -5l244 -202q2 -2 2 -4q0 -3 -5 -8t-12 -5q-2 0 -2 0.5t-1 0.5l-303 153q-7 2 -7 10z" />
<glyph unicode="&#xcd;" horiz-adv-x="976" d="M-12 403v34t2 34q2 31 13 60.5t38 39.5q12 6 29 7q14 0 32.5 -8.5t38.5 -28.5q45 -41 124 -84t175.5 -80t190.5 -62q23 70 40 151t31 171q18 111 26.5 219.5t8.5 202.5q0 66 -4 121t-10 92q-8 53 -31.5 95t-66.5 42q-59 0 -95 -51t-51.5 -135t-15.5 -183 q0 -109 16.5 -217t43 -190t57.5 -113q12 -12 12 -20q0 -12 -21 -13q-23 0 -36 17q-47 51 -84 140t-58.5 197.5t-21.5 217.5q0 106 24.5 198.5t77.5 152.5t139 67h25q78 0 128 -38t76.5 -101.5t37 -141.5t10.5 -156q0 -76 -6 -143.5t-11 -114.5q-14 -143 -44.5 -268 t-77.5 -223q29 -4 55 -7t49 -3q35 0 61 6q37 10 56.5 23.5t32.5 27.5q12 14 26 14q20 0 21 -18v-4q0 -39 -74 -71t-219 -32h-41q-70 -119 -164 -187.5t-215 -68.5h-12q-106 0 -174 40t-103 104.5t-48 140.5t-13 147zM92 406q2 -92 23.5 -180.5t76 -145.5t156.5 -57 q92 0 153.5 58t102.5 161q-88 16 -184 43.5t-182 60.5t-146 60zM545 1672q0 1 2 4l246 201q5 5 13 5q22 0 46 -21.5t24 -36.5q0 -9 -7 -11l-302 -153q-2 0 -2 -1t-2 -1q-7 0 -12.5 5t-5.5 9z" />
<glyph unicode="&#xce;" horiz-adv-x="976" d="M-12 403v34t2 34q2 31 13 60.5t38 39.5q12 6 29 7q14 0 32.5 -8.5t38.5 -28.5q45 -41 124 -84t175.5 -80t190.5 -62q23 70 40 151t31 171q18 111 26.5 219.5t8.5 202.5q0 66 -4 121t-10 92q-8 53 -31.5 95t-66.5 42q-59 0 -95 -51t-51.5 -135t-15.5 -183 q0 -109 16.5 -217t43 -190t57.5 -113q12 -12 12 -20q0 -12 -21 -13q-23 0 -36 17q-47 51 -84 140t-58.5 197.5t-21.5 217.5q0 106 24.5 198.5t77.5 152.5t139 67h25q78 0 128 -38t76.5 -101.5t37 -141.5t10.5 -156q0 -76 -6 -143.5t-11 -114.5q-14 -143 -44.5 -268 t-77.5 -223q29 -4 55 -7t49 -3q35 0 61 6q37 10 56.5 23.5t32.5 27.5q12 14 26 14q20 0 21 -18v-4q0 -39 -74 -71t-219 -32h-41q-70 -119 -164 -187.5t-215 -68.5h-12q-106 0 -174 40t-103 104.5t-48 140.5t-13 147zM92 406q2 -92 23.5 -180.5t76 -145.5t156.5 -57 q92 0 153.5 58t102.5 161q-88 16 -184 43.5t-182 60.5t-146 60zM383 1639q0 2 2 4q29 31 68.5 77t79.5 91t69 75.5t31 32.5h14q55 -70 110.5 -139t112.5 -137q2 -2 2 -4q0 -4 -13.5 -7t-31.5 -3q-20 0 -40.5 3t-28.5 11l-138 156q-43 -41 -88 -78t-86 -78q-6 -6 -17 -8 t-24 -2q-23 0 -22 6z" />
<glyph unicode="&#xcf;" horiz-adv-x="976" d="M-12 403v34t2 34q2 31 13 60.5t38 39.5q12 6 29 7q14 0 32.5 -8.5t38.5 -28.5q45 -41 124 -84t175.5 -80t190.5 -62q23 70 40 151t31 171q18 111 26.5 219.5t8.5 202.5q0 66 -4 121t-10 92q-8 53 -31.5 95t-66.5 42q-59 0 -95 -51t-51.5 -135t-15.5 -183 q0 -109 16.5 -217t43 -190t57.5 -113q12 -12 12 -20q0 -12 -21 -13q-23 0 -36 17q-47 51 -84 140t-58.5 197.5t-21.5 217.5q0 106 24.5 198.5t77.5 152.5t139 67h25q78 0 128 -38t76.5 -101.5t37 -141.5t10.5 -156q0 -76 -6 -143.5t-11 -114.5q-14 -143 -44.5 -268 t-77.5 -223q29 -4 55 -7t49 -3q35 0 61 6q37 10 56.5 23.5t32.5 27.5q12 14 26 14q20 0 21 -18v-4q0 -39 -74 -71t-219 -32h-41q-70 -119 -164 -187.5t-215 -68.5h-12q-106 0 -174 40t-103 104.5t-48 140.5t-13 147zM92 406q2 -92 23.5 -180.5t76 -145.5t156.5 -57 q92 0 153.5 58t102.5 161q-88 16 -184 43.5t-182 60.5t-146 60zM410 1739q0 33 22.5 55.5t55.5 22.5q31 0 53 -22.5t22 -55.5q0 -31 -22 -54.5t-53 -23.5q-33 0 -55.5 23.5t-22.5 54.5zM692 1739q0 33 22.5 55.5t55.5 22.5q31 0 53.5 -22.5t22.5 -55.5q0 -31 -22.5 -54.5 t-53.5 -23.5q-33 0 -55.5 23.5t-22.5 54.5z" />
<glyph unicode="&#xd0;" horiz-adv-x="1789" d="M0 1044q0 82 50 145.5t133 113t184 81.5q123 41 265 66t286 25q170 0 331.5 -38t290.5 -124q115 -76 182.5 -189.5t67.5 -259.5q0 -180 -78 -336.5t-211 -275.5t-297 -185.5t-336 -66.5q-57 0 -88.5 25.5t-31.5 50.5q0 16 14 27.5t45 11.5q170 0 329.5 63.5t288.5 173 t205 250.5t76 297q0 115 -49 192.5t-129 129.5q-117 74 -268.5 106.5t-309.5 32.5q-141 0 -276 -22.5t-248 -57.5q-82 -27 -154.5 -66.5t-116.5 -88t-44 -101.5q0 -51 42 -83t107 -32q68 0 153 36t173 118q4 4 6 4q6 0 6 -10q0 -12 -9 -32.5t-28 -37.5q-72 -66 -160 -97.5 t-170 -31.5q-20 0 -41.5 2t-39.5 6q-70 16 -110 65.5t-40 112.5zM385 528q0 8 4 21q4 10 15.5 23.5t27.5 13.5h158q14 135 36.5 262t43.5 217q12 53 22 107.5t31 101.5q2 6 9 8t13 2q14 0 46 -6t62 -18.5t36 -30.5v-10q-47 -137 -93 -299t-73 -334h156q16 0 22 -10.5 t6 -20.5q0 -8 -4 -20q-4 -8 -15 -22.5t-28 -14.5h-147q-6 -49 -8.5 -99.5t-2.5 -99.5v-31q0 -84 6.5 -173t34.5 -144h-6q-49 0 -77.5 38t-45.5 83q-20 57 -27 129.5t-7 154.5q0 35 1 70t3 72h-172q-27 0 -27 30z" />
<glyph unicode="&#xd1;" d="M-78 1206q0 90 23.5 170t74.5 133q33 35 72 50.5t80 15.5q63 0 122.5 -31t98.5 -78q66 -82 108 -191.5t61.5 -229t19.5 -234.5q0 -27 -1 -53.5t-3 -52.5q35 145 82 273t107 226.5t128 151.5q111 84 211 84q111 0 181.5 -94.5t70.5 -249.5q0 -45 -6 -95 q-20 -141 -61.5 -293.5t-69.5 -295.5q-8 -39 -19.5 -114t-11.5 -153q0 -66 13.5 -126t47 -97t92.5 -37q47 0 77 29t42 72q6 20 21 20q12 0 12 -14v-4q0 -61 -47 -110.5t-129 -49.5q-141 0 -201.5 114.5t-60.5 301.5q0 98 14 210.5t41 235.5q6 25 24.5 97.5t35 166 t16.5 179.5q0 80 -21.5 138t-81.5 70q-8 2 -17 3.5t-19 1.5q-74 0 -135.5 -56.5t-110.5 -148.5t-86 -202t-62.5 -218.5t-40 -197.5t-20.5 -140q-8 -82 -16.5 -182.5t-18.5 -218.5q-2 -29 -39 -54.5t-74 -25.5h-6q-33 0 -59.5 13t-26.5 34q16 82 31.5 210t24.5 271 q4 72 10 170t6 205q0 123 -12.5 244.5t-43 226t-87.5 170.5q-51 57 -107 57q-47 0 -86 -45t-55 -137q-2 -20 -5 -44t-3 -50q0 -94 23.5 -205t64.5 -209t94 -158q4 -4 4 -10t-12 -6q-14 0 -41 11.5t-49 37.5q-90 102 -139.5 242.5t-49.5 275.5zM503 1605q0 27 21.5 67.5 t51 71t53.5 30.5q31 0 64.5 -23.5t69 -48.5t68.5 -25q27 0 46.5 25t34 54t25.5 42l6 4q6 0 9.5 -8.5t3.5 -13.5q0 -33 -18.5 -79t-50 -82.5t-73.5 -36.5q-31 0 -64.5 24t-68.5 47.5t-72 23.5q-24 0 -45 -29.5t-36 -59.5q-5 -8 -10 -8q-14 0 -15 25z" />
<glyph unicode="&#xd2;" d="M8 811q0 51 23.5 86t55.5 57.5t58 30.5q2 0 4.5 1t4.5 1q14 0 14 -16q0 -12 -14 -19q-25 -10 -46.5 -49t-21.5 -78q0 -61 38 -107t93 -79q10 147 62.5 290.5t144.5 259.5t224 184.5t302 68.5q197 0 291 -92.5t94 -227.5q0 -96 -30 -176q61 -129 61 -297q0 -129 -39 -257 t-118 -233.5t-197.5 -170t-276.5 -64.5q-131 0 -228 51.5t-161.5 140.5t-97.5 203.5t-33 239.5q-90 33 -148.5 95.5t-58.5 156.5zM379 502q0 -141 37 -262t114.5 -195t198.5 -74q111 0 205 65.5t164.5 172t109.5 234.5t39 253q0 33 -3 64t-7 59q-82 -109 -209 -176.5 t-267 -98t-263 -30.5q-59 0 -119 6v-18zM381 580q31 -8 61 -11.5t50 -3.5q96 0 201.5 22.5t204.5 70t177 118t121 168.5q-37 78 -103.5 133.5t-166.5 75.5q-8 2 -8 8q0 14 22 15h21q84 0 151.5 -31t116.5 -84q6 37 6 76q0 94 -46 150t-111.5 82t-121.5 26q-127 0 -229 -72 t-176 -190.5t-117 -263t-53 -289.5zM716 1792q0 16 24.5 38t44.5 22q9 0 15 -5l244 -202q2 -2 2 -4q0 -3 -5 -8t-12 -5q-2 0 -2 0.5t-1 0.5l-303 153q-7 2 -7 10z" />
<glyph unicode="&#xd3;" d="M8 811q0 51 23.5 86t55.5 57.5t58 30.5q2 0 4.5 1t4.5 1q14 0 14 -16q0 -12 -14 -19q-25 -10 -46.5 -49t-21.5 -78q0 -61 38 -107t93 -79q10 147 62.5 290.5t144.5 259.5t224 184.5t302 68.5q197 0 291 -92.5t94 -227.5q0 -96 -30 -176q61 -129 61 -297q0 -129 -39 -257 t-118 -233.5t-197.5 -170t-276.5 -64.5q-131 0 -228 51.5t-161.5 140.5t-97.5 203.5t-33 239.5q-90 33 -148.5 95.5t-58.5 156.5zM379 502q0 -141 37 -262t114.5 -195t198.5 -74q111 0 205 65.5t164.5 172t109.5 234.5t39 253q0 33 -3 64t-7 59q-82 -109 -209 -176.5 t-267 -98t-263 -30.5q-59 0 -119 6v-18zM381 580q31 -8 61 -11.5t50 -3.5q96 0 201.5 22.5t204.5 70t177 118t121 168.5q-37 78 -103.5 133.5t-166.5 75.5q-8 2 -8 8q0 14 22 15h21q84 0 151.5 -31t116.5 -84q6 37 6 76q0 94 -46 150t-111.5 82t-121.5 26q-127 0 -229 -72 t-176 -190.5t-117 -263t-53 -289.5zM867 1638q0 1 2 4l246 201q5 5 13 5q22 0 46 -21.5t24 -36.5q0 -9 -7 -11l-302 -153q-2 0 -2 -1t-2 -1q-7 0 -12.5 5t-5.5 9z" />
<glyph unicode="&#xd4;" d="M8 811q0 51 23.5 86t55.5 57.5t58 30.5q2 0 4.5 1t4.5 1q14 0 14 -16q0 -12 -14 -19q-25 -10 -46.5 -49t-21.5 -78q0 -61 38 -107t93 -79q10 147 62.5 290.5t144.5 259.5t224 184.5t302 68.5q197 0 291 -92.5t94 -227.5q0 -96 -30 -176q61 -129 61 -297q0 -129 -39 -257 t-118 -233.5t-197.5 -170t-276.5 -64.5q-131 0 -228 51.5t-161.5 140.5t-97.5 203.5t-33 239.5q-90 33 -148.5 95.5t-58.5 156.5zM379 502q0 -141 37 -262t114.5 -195t198.5 -74q111 0 205 65.5t164.5 172t109.5 234.5t39 253q0 33 -3 64t-7 59q-82 -109 -209 -176.5 t-267 -98t-263 -30.5q-59 0 -119 6v-18zM381 580q31 -8 61 -11.5t50 -3.5q96 0 201.5 22.5t204.5 70t177 118t121 168.5q-37 78 -103.5 133.5t-166.5 75.5q-8 2 -8 8q0 14 22 15h21q84 0 151.5 -31t116.5 -84q6 37 6 76q0 94 -46 150t-111.5 82t-121.5 26q-127 0 -229 -72 t-176 -190.5t-117 -263t-53 -289.5zM705 1604q0 2 2 4q29 31 68.5 77t79.5 91t69 75.5t31 32.5h14q55 -70 110.5 -139t112.5 -137q2 -2 2 -4q0 -4 -13.5 -7t-31.5 -3q-20 0 -40.5 3t-28.5 11l-138 156q-43 -41 -88 -78t-86 -78q-6 -6 -17 -8t-24 -2q-23 0 -22 6z" />
<glyph unicode="&#xd5;" d="M8 811q0 51 23.5 86t55.5 57.5t58 30.5q2 0 4.5 1t4.5 1q14 0 14 -16q0 -12 -14 -19q-25 -10 -46.5 -49t-21.5 -78q0 -61 38 -107t93 -79q10 147 62.5 290.5t144.5 259.5t224 184.5t302 68.5q197 0 291 -92.5t94 -227.5q0 -96 -30 -176q61 -129 61 -297q0 -129 -39 -257 t-118 -233.5t-197.5 -170t-276.5 -64.5q-131 0 -228 51.5t-161.5 140.5t-97.5 203.5t-33 239.5q-90 33 -148.5 95.5t-58.5 156.5zM379 502q0 -141 37 -262t114.5 -195t198.5 -74q111 0 205 65.5t164.5 172t109.5 234.5t39 253q0 33 -3 64t-7 59q-82 -109 -209 -176.5 t-267 -98t-263 -30.5q-59 0 -119 6v-18zM381 580q31 -8 61 -11.5t50 -3.5q96 0 201.5 22.5t204.5 70t177 118t121 168.5q-37 78 -103.5 133.5t-166.5 75.5q-8 2 -8 8q0 14 22 15h21q84 0 151.5 -31t116.5 -84q6 37 6 76q0 94 -46 150t-111.5 82t-121.5 26q-127 0 -229 -72 t-176 -190.5t-117 -263t-53 -289.5zM724 1613q0 27 21.5 67.5t51 71t53.5 30.5q31 0 64.5 -23.5t69 -48.5t68.5 -25q27 0 46.5 25t34 54t25.5 42l6 4q6 0 9.5 -8.5t3.5 -13.5q0 -33 -18.5 -79t-50 -82.5t-73.5 -36.5q-31 0 -64.5 24t-68.5 47.5t-72 23.5q-24 0 -45 -29.5 t-36 -59.5q-5 -8 -10 -8q-14 0 -15 25z" />
<glyph unicode="&#xd6;" d="M8 811q0 51 23.5 86t55.5 57.5t58 30.5q2 0 4.5 1t4.5 1q14 0 14 -16q0 -12 -14 -19q-25 -10 -46.5 -49t-21.5 -78q0 -61 38 -107t93 -79q10 147 62.5 290.5t144.5 259.5t224 184.5t302 68.5q197 0 291 -92.5t94 -227.5q0 -96 -30 -176q61 -129 61 -297q0 -129 -39 -257 t-118 -233.5t-197.5 -170t-276.5 -64.5q-131 0 -228 51.5t-161.5 140.5t-97.5 203.5t-33 239.5q-90 33 -148.5 95.5t-58.5 156.5zM379 502q0 -141 37 -262t114.5 -195t198.5 -74q111 0 205 65.5t164.5 172t109.5 234.5t39 253q0 33 -3 64t-7 59q-82 -109 -209 -176.5 t-267 -98t-263 -30.5q-59 0 -119 6v-18zM381 580q31 -8 61 -11.5t50 -3.5q96 0 201.5 22.5t204.5 70t177 118t121 168.5q-37 78 -103.5 133.5t-166.5 75.5q-8 2 -8 8q0 14 22 15h21q84 0 151.5 -31t116.5 -84q6 37 6 76q0 94 -46 150t-111.5 82t-121.5 26q-127 0 -229 -72 t-176 -190.5t-117 -263t-53 -289.5zM731 1704q0 33 22.5 55.5t55.5 22.5q31 0 53 -22.5t22 -55.5q0 -31 -22 -54.5t-53 -23.5q-33 0 -55.5 23.5t-22.5 54.5zM1013 1704q0 33 22.5 55.5t55.5 22.5q31 0 53.5 -22.5t22.5 -55.5q0 -31 -22.5 -54.5t-53.5 -23.5 q-33 0 -55.5 23.5t-22.5 54.5z" />
<glyph unicode="&#xd7;" horiz-adv-x="1050" d="M281 963q0 12 11 22t21 12q4 0 10.5 1t14.5 1q10 0 22.5 -2t18.5 -12l194 -256l197 256q6 10 18.5 12t22.5 2q8 0 14 -1t9 -1q10 -2 21 -12t11 -20q0 -6 -6 -17l-227 -297l225 -295q4 -4 4 -12q0 -14 -14 -23.5t-25 -13.5q-6 -2 -20 -2q-8 0 -18.5 3t-16.5 11l-195 254 l-194 -254q-6 -8 -15.5 -11t-19.5 -3q-14 0 -18 2q-12 4 -26.5 13.5t-14.5 23.5q0 8 4 12l225 295l-227 297q-6 10 -6 15z" />
<glyph unicode="&#xd8;" horiz-adv-x="1366" d="M8 811q0 51 23.5 86t55.5 57.5t58 30.5q2 0 4.5 1t4.5 1q14 0 14 -16q0 -12 -14 -19q-25 -10 -46.5 -49t-21.5 -78q0 -63 38 -109t93 -77q10 147 61.5 289.5t144.5 259.5t225 185.5t302 68.5q68 0 123 -12l25 61q12 27 30 27q20 0 21 -23q0 -6 -4 -18l-25 -60 q109 -37 162 -114.5t53 -180.5q0 -49 -8 -93t-22 -85q61 -129 61 -295q0 -129 -39 -257t-118 -233.5t-197.5 -170t-276.5 -64.5q-51 0 -97 9.5t-87 23.5l-51 -131q-9 -25 -29 -25q-23 0 -22 23q0 4 1 8t3 8q10 31 24.5 65t28.5 72q-96 49 -161.5 138.5t-97.5 203t-34 238.5 q-90 35 -147.5 97.5t-57.5 156.5zM377 498q0 -143 38.5 -264t116.5 -191l193 494q-59 -12 -116.5 -17.5t-110.5 -5.5q-61 0 -121 6v-22zM381 578q62 -13 111 -13q127 0 258 37q55 139 109 277.5t102 263.5q-8 4 -16.5 6t-18.5 4q-8 0 -8 8q0 14 22 15h33l80 202 q-55 16 -97 17q-129 0 -231 -72t-176 -191.5t-116 -264t-52 -289.5zM573 12q33 -18 72 -29.5t84 -11.5q111 0 205 64.5t163.5 171t108.5 234.5t39 253q0 33 -2 63.5t-8 59.5q-78 -102 -199 -167.5t-254 -100.5zM811 621q125 45 229.5 124.5t155.5 198.5q-29 59 -76 107.5 t-112 74.5zM1024 1171q63 -10 114.5 -38.5t90.5 -71.5q6 37 6 76q0 84 -41 139t-96 84z" />
<glyph unicode="&#xd9;" horiz-adv-x="1316" d="M-6 684q0 51 16.5 90t36.5 57q2 2 6 3q6 0 6 -11q0 -10 -8 -26q-16 -27 -16 -78q0 -8 1 -17.5t3 -17.5q10 -33 34.5 -48t51.5 -15q63 0 123 38q0 37 5 108t18.5 161t35 185t51.5 179q41 109 102.5 174.5t125.5 65.5q45 0 63.5 -39t18.5 -111q0 -121 -35 -227 t-89.5 -199.5t-113.5 -177.5q-4 -63 -6 -125.5t-2 -122.5q0 -137 15.5 -251.5t52 -184t102.5 -69.5q6 0 12 1t14 3q59 12 112.5 70.5t97.5 146.5t78 193.5t59 213.5q10 47 22 100.5t23 106.5q14 158 35.5 290t48.5 210q2 6 9 7t13 1q53 0 82 -16.5t47 -59.5 q-8 -33 -26.5 -133t-39 -239.5t-36 -293t-15.5 -292.5v-23q0 -55 3.5 -118.5t13.5 -122t30.5 -95t57.5 -36.5q20 0 42.5 7t27.5 15h14q-2 -55 -35 -83t-76 -28q-47 0 -95 37t-71 113q-27 90 -38 215t-11 262v27.5t2 27.5q-27 -98 -66.5 -197t-91 -183t-111.5 -140.5 t-130 -70.5q-25 -6 -49 -7q-76 0 -131.5 53.5t-90 146.5t-53 212t-22.5 250q-66 -41 -127 -41q-39 0 -83 29.5t-44 99.5zM436 854q78 117 126 261.5t48 273.5q0 61 -14 61q-8 0 -20.5 -18.5t-23.5 -42t-17 -37.5q-37 -92 -62 -225.5t-37 -272.5zM628 1784q0 16 24.5 38 t44.5 22q9 0 15 -5l244 -202q2 -2 2 -4q0 -3 -5 -8t-12 -5q-2 0 -2 0.5t-1 0.5l-303 153q-7 2 -7 10z" />
<glyph unicode="&#xda;" horiz-adv-x="1316" d="M-6 684q0 51 16.5 90t36.5 57q2 2 6 3q6 0 6 -11q0 -10 -8 -26q-16 -27 -16 -78q0 -8 1 -17.5t3 -17.5q10 -33 34.5 -48t51.5 -15q63 0 123 38q0 37 5 108t18.5 161t35 185t51.5 179q41 109 102.5 174.5t125.5 65.5q45 0 63.5 -39t18.5 -111q0 -121 -35 -227 t-89.5 -199.5t-113.5 -177.5q-4 -63 -6 -125.5t-2 -122.5q0 -137 15.5 -251.5t52 -184t102.5 -69.5q6 0 12 1t14 3q59 12 112.5 70.5t97.5 146.5t78 193.5t59 213.5q10 47 22 100.5t23 106.5q14 158 35.5 290t48.5 210q2 6 9 7t13 1q53 0 82 -16.5t47 -59.5 q-8 -33 -26.5 -133t-39 -239.5t-36 -293t-15.5 -292.5v-23q0 -55 3.5 -118.5t13.5 -122t30.5 -95t57.5 -36.5q20 0 42.5 7t27.5 15h14q-2 -55 -35 -83t-76 -28q-47 0 -95 37t-71 113q-27 90 -38 215t-11 262v27.5t2 27.5q-27 -98 -66.5 -197t-91 -183t-111.5 -140.5 t-130 -70.5q-25 -6 -49 -7q-76 0 -131.5 53.5t-90 146.5t-53 212t-22.5 250q-66 -41 -127 -41q-39 0 -83 29.5t-44 99.5zM436 854q78 117 126 261.5t48 273.5q0 61 -14 61q-8 0 -20.5 -18.5t-23.5 -42t-17 -37.5q-37 -92 -62 -225.5t-37 -272.5zM779 1629q0 1 2 4l246 201 q5 5 13 5q22 0 46 -21.5t24 -36.5q0 -9 -7 -11l-302 -153q-2 0 -2 -1t-2 -1q-7 0 -12.5 5t-5.5 9z" />
<glyph unicode="&#xdb;" horiz-adv-x="1316" d="M-6 684q0 51 16.5 90t36.5 57q2 2 6 3q6 0 6 -11q0 -10 -8 -26q-16 -27 -16 -78q0 -8 1 -17.5t3 -17.5q10 -33 34.5 -48t51.5 -15q63 0 123 38q0 37 5 108t18.5 161t35 185t51.5 179q41 109 102.5 174.5t125.5 65.5q45 0 63.5 -39t18.5 -111q0 -121 -35 -227 t-89.5 -199.5t-113.5 -177.5q-4 -63 -6 -125.5t-2 -122.5q0 -137 15.5 -251.5t52 -184t102.5 -69.5q6 0 12 1t14 3q59 12 112.5 70.5t97.5 146.5t78 193.5t59 213.5q10 47 22 100.5t23 106.5q14 158 35.5 290t48.5 210q2 6 9 7t13 1q53 0 82 -16.5t47 -59.5 q-8 -33 -26.5 -133t-39 -239.5t-36 -293t-15.5 -292.5v-23q0 -55 3.5 -118.5t13.5 -122t30.5 -95t57.5 -36.5q20 0 42.5 7t27.5 15h14q-2 -55 -35 -83t-76 -28q-47 0 -95 37t-71 113q-27 90 -38 215t-11 262v27.5t2 27.5q-27 -98 -66.5 -197t-91 -183t-111.5 -140.5 t-130 -70.5q-25 -6 -49 -7q-76 0 -131.5 53.5t-90 146.5t-53 212t-22.5 250q-66 -41 -127 -41q-39 0 -83 29.5t-44 99.5zM436 854q78 117 126 261.5t48 273.5q0 61 -14 61q-8 0 -20.5 -18.5t-23.5 -42t-17 -37.5q-37 -92 -62 -225.5t-37 -272.5zM617 1596q0 2 2 4 q29 31 68.5 77t79.5 91t69 75.5t31 32.5h14q55 -70 110.5 -139t112.5 -137q2 -2 2 -4q0 -4 -13.5 -7t-31.5 -3q-20 0 -40.5 3t-28.5 11l-138 156q-43 -41 -88 -78t-86 -78q-6 -6 -17 -8t-24 -2q-23 0 -22 6z" />
<glyph unicode="&#xdc;" horiz-adv-x="1316" d="M-6 684q0 51 16.5 90t36.5 57q2 2 6 3q6 0 6 -11q0 -10 -8 -26q-16 -27 -16 -78q0 -8 1 -17.5t3 -17.5q10 -33 34.5 -48t51.5 -15q63 0 123 38q0 37 5 108t18.5 161t35 185t51.5 179q41 109 102.5 174.5t125.5 65.5q45 0 63.5 -39t18.5 -111q0 -121 -35 -227 t-89.5 -199.5t-113.5 -177.5q-4 -63 -6 -125.5t-2 -122.5q0 -137 15.5 -251.5t52 -184t102.5 -69.5q6 0 12 1t14 3q59 12 112.5 70.5t97.5 146.5t78 193.5t59 213.5q10 47 22 100.5t23 106.5q14 158 35.5 290t48.5 210q2 6 9 7t13 1q53 0 82 -16.5t47 -59.5 q-8 -33 -26.5 -133t-39 -239.5t-36 -293t-15.5 -292.5v-23q0 -55 3.5 -118.5t13.5 -122t30.5 -95t57.5 -36.5q20 0 42.5 7t27.5 15h14q-2 -55 -35 -83t-76 -28q-47 0 -95 37t-71 113q-27 90 -38 215t-11 262v27.5t2 27.5q-27 -98 -66.5 -197t-91 -183t-111.5 -140.5 t-130 -70.5q-25 -6 -49 -7q-76 0 -131.5 53.5t-90 146.5t-53 212t-22.5 250q-66 -41 -127 -41q-39 0 -83 29.5t-44 99.5zM436 854q78 117 126 261.5t48 273.5q0 61 -14 61q-8 0 -20.5 -18.5t-23.5 -42t-17 -37.5q-37 -92 -62 -225.5t-37 -272.5zM643 1696q0 33 22.5 55.5 t55.5 22.5q31 0 53 -22.5t22 -55.5q0 -31 -22 -54.5t-53 -23.5q-33 0 -55.5 23.5t-22.5 54.5zM925 1696q0 33 22.5 55.5t55.5 22.5q31 0 53.5 -22.5t22.5 -55.5q0 -31 -22.5 -54.5t-53.5 -23.5q-33 0 -55.5 23.5t-22.5 54.5z" />
<glyph unicode="&#xdd;" horiz-adv-x="1564" d="M33 831q0 57 8 119t25 125q23 84 63.5 171t102 162t144.5 120t187 45q74 0 115 -38t58.5 -101.5t17.5 -141.5q0 -92 -17.5 -191.5t-39 -182t-33.5 -130.5q-6 -25 -23.5 -84t-37 -138t-33 -160.5t-13.5 -153.5q0 -76 22.5 -128t79.5 -56h11q74 0 147.5 59t140 160.5 t122 229.5t91.5 263q33 119 45.5 225.5t20.5 189.5t25.5 130t58.5 49q8 0 15 -10l7 -10h3q6 0 12 -42t10 -97.5t7 -99.5t5 -48q6 -14 15.5 -66.5t23.5 -142.5q16 -106 30.5 -209.5t27.5 -202.5l8 5q29 16 53.5 20t40.5 4t29.5 -4t15.5 -20q0 -8 -9 -12.5t-20 -4.5 q-29 -2 -60.5 -14t-49.5 -25q12 -125 12 -286q0 -109 -15.5 -239t-51 -259t-98 -235.5t-157 -171t-227.5 -64.5q-96 0 -154.5 39t-83 102.5t-24.5 138.5q0 133 60.5 261.5t134.5 234.5q109 158 218 263.5t234 187.5q-4 31 -10 96t-15.5 144t-17.5 155t-14 129 q-16 -53 -36.5 -112.5t-43.5 -125.5q-49 -133 -110.5 -258t-136.5 -223t-162 -156.5t-183 -58.5h-16q-98 6 -133 86t-35 186q0 84 13 170t29.5 160t24.5 113q4 20 16.5 80.5t28 144.5t25.5 177t10 175q0 102 -22.5 172t-83.5 70q-66 0 -121 -54.5t-99 -141.5t-76 -189 t-48.5 -201.5t-16.5 -175.5q0 -51 8.5 -87t26.5 -46q14 -8 15 -21q0 -25 -27 -24q-14 0 -27 12q-27 31 -45 102.5t-18 165.5zM788 -553q0 -61 16.5 -118.5t53.5 -95.5t98 -38q102 0 173 50t116 136.5t70.5 193t36 220t10.5 219.5q0 94 -5 175t-11 135q-88 -55 -185.5 -155.5 t-182.5 -223.5t-137.5 -253t-52.5 -245zM949 1629q0 1 2 4l246 201q5 5 13 5q22 0 46 -21.5t24 -36.5q0 -9 -7 -11l-302 -153q-2 0 -2 -1t-2 -1q-7 0 -12.5 5t-5.5 9z" />
<glyph unicode="&#xde;" horiz-adv-x="1284" d="M86 1135q0 55 20 84q23 29 73 54t120 44q23 141 44.5 249.5t39.5 162.5q4 6 10 7t15 1q53 0 80.5 -16.5t46.5 -59.5q-6 -20 -20.5 -105.5t-37.5 -207.5q61 6 141 6q98 0 208 -14.5t206 -50.5t155.5 -101.5t59.5 -167.5q0 -113 -55 -220.5t-153.5 -193.5t-228.5 -137 t-282 -51q-45 0 -90 5t-92 15q-8 -80 -14 -149.5t-8 -122.5q0 -20 -1 -45t-1 -49q0 -70 7 -139.5t27.5 -115.5t61.5 -46q20 0 42.5 8t28.5 16h15q-4 -55 -38 -83.5t-77 -28.5q-47 0 -94 36.5t-68 112.5q-14 55 -20 141t-6 193q0 143 10 314t27.5 347.5t37.5 337.5 q-57 -25 -93 -55.5t-36 -71.5q0 -8 3.5 -16t5.5 -18q4 -12 4 -17q0 -14 -10 -14q-12 0 -31 26q-12 16 -22.5 56.5t-10.5 79.5zM354 518q43 -6 90 -6q121 0 247 40t232.5 112.5t172 170t65.5 212.5q0 84 -54 130t-138 63t-178 17q-98 0 -189.5 -13t-144.5 -23 q-27 -164 -54.5 -349.5t-48.5 -353.5z" />
<glyph unicode="&#xdf;" horiz-adv-x="1130" d="M-291 -516q0 12 2 16q27 -49 80 -49h6q90 0 153.5 61.5t100.5 155.5q20 51 40 128t35 159t24 143q31 219 37 436.5t22 434.5q14 162 92 266t189.5 156.5t222.5 52.5q92 0 171 -34t127 -100.5t48 -164.5q0 -113 -63.5 -206t-160 -158.5t-192.5 -96.5q84 -2 163 -16.5 t143.5 -48t102.5 -94t38 -152.5q0 -100 -51.5 -177t-131.5 -130.5t-170 -81t-168 -27.5q-76 0 -129 27.5t-53 83.5v4q0 59 61.5 136t169 143.5t246.5 92.5q6 2 12.5 2h10.5q20 0 20 -8q0 -14 -33 -20q-78 -14 -149.5 -52t-127.5 -84t-89 -90.5t-33 -72.5q0 -43 74 -43 q53 0 128 24.5t146.5 70.5t118.5 109.5t47 139.5q0 74 -43 120t-106.5 69.5t-128 32.5t-110.5 10t-52 1q-6 -2 -19 -2q-27 0 -37 15.5t-10 31.5q0 41 25 47q63 14 144 55.5t156 101t124 134t49 156.5q0 57 -33 104t-87 76t-118 29q-82 0 -166.5 -59.5t-148 -198.5 t-82.5 -379q-8 -94 -18.5 -202.5t-24.5 -217.5q-14 -121 -27.5 -235.5t-33.5 -227.5q-29 -170 -93.5 -273.5t-150.5 -149.5t-182 -46q-39 0 -73 17.5t-34 54.5z" />
<glyph unicode="&#xe0;" horiz-adv-x="757" d="M39 324v20q0 82 14.5 181.5t51 189.5t101 148.5t165.5 58.5q39 0 70.5 -17.5t45.5 -50.5q14 16 39 26.5t60 10.5q12 0 27.5 -2t31.5 -6q-12 -47 -28.5 -129t-27.5 -179.5t-11 -189.5v-8q0 -39 4 -92.5t14 -104.5t28.5 -86t47.5 -35h2q16 0 35.5 16.5t42.5 61.5 q31 59 57 154q4 18 16 18q10 0 11 -24v-9q-4 -53 -29 -120.5t-69 -116.5t-105 -49q-63 0 -102 40t-60.5 102.5t-30 127t-8.5 113.5q-25 -92 -62.5 -180.5t-82.5 -144.5t-99 -56h-2q-49 0 -81.5 46t-49 122t-16.5 164zM190 362q0 -23 1.5 -45t3.5 -43q4 -61 23.5 -87.5 t39.5 -26.5q33 0 60.5 47t50 114.5t39.5 131.5q25 94 33 191t34 192q-25 27 -55 26q-45 0 -92 -45t-74 -102q-33 -72 -48.5 -168t-15.5 -185zM198 1239q0 16 24.5 38t44.5 22q9 0 15 -5l244 -202q2 -2 2 -4q0 -3 -5 -8t-12 -5q-2 0 -2 0.5t-1 0.5l-303 153q-7 2 -7 10z" />
<glyph unicode="&#xe1;" horiz-adv-x="757" d="M39 324v20q0 82 14.5 181.5t51 189.5t101 148.5t165.5 58.5q39 0 70.5 -17.5t45.5 -50.5q14 16 39 26.5t60 10.5q12 0 27.5 -2t31.5 -6q-12 -47 -28.5 -129t-27.5 -179.5t-11 -189.5v-8q0 -39 4 -92.5t14 -104.5t28.5 -86t47.5 -35h2q16 0 35.5 16.5t42.5 61.5 q31 59 57 154q4 18 16 18q10 0 11 -24v-9q-4 -53 -29 -120.5t-69 -116.5t-105 -49q-63 0 -102 40t-60.5 102.5t-30 127t-8.5 113.5q-25 -92 -62.5 -180.5t-82.5 -144.5t-99 -56h-2q-49 0 -81.5 46t-49 122t-16.5 164zM190 362q0 -23 1.5 -45t3.5 -43q4 -61 23.5 -87.5 t39.5 -26.5q33 0 60.5 47t50 114.5t39.5 131.5q25 94 33 191t34 192q-25 27 -55 26q-45 0 -92 -45t-74 -102q-33 -72 -48.5 -168t-15.5 -185zM349 1085q0 1 2 4l246 201q5 5 13 5q22 0 46 -21.5t24 -36.5q0 -9 -7 -11l-302 -153q-2 0 -2 -1t-2 -1q-7 0 -12.5 5t-5.5 9z" />
<glyph unicode="&#xe2;" horiz-adv-x="757" d="M39 324v20q0 82 14.5 181.5t51 189.5t101 148.5t165.5 58.5q39 0 70.5 -17.5t45.5 -50.5q14 16 39 26.5t60 10.5q12 0 27.5 -2t31.5 -6q-12 -47 -28.5 -129t-27.5 -179.5t-11 -189.5v-8q0 -39 4 -92.5t14 -104.5t28.5 -86t47.5 -35h2q16 0 35.5 16.5t42.5 61.5 q31 59 57 154q4 18 16 18q10 0 11 -24v-9q-4 -53 -29 -120.5t-69 -116.5t-105 -49q-63 0 -102 40t-60.5 102.5t-30 127t-8.5 113.5q-25 -92 -62.5 -180.5t-82.5 -144.5t-99 -56h-2q-49 0 -81.5 46t-49 122t-16.5 164zM187 1051q0 2 2 4q29 31 68.5 77t79.5 91t69 75.5 t31 32.5h14q55 -70 110.5 -139t112.5 -137q2 -2 2 -4q0 -4 -13.5 -7t-31.5 -3q-20 0 -40.5 3t-28.5 11l-138 156q-43 -41 -88 -78t-86 -78q-6 -6 -17 -8t-24 -2q-23 0 -22 6zM190 362q0 -23 1.5 -45t3.5 -43q4 -61 23.5 -87.5t39.5 -26.5q33 0 60.5 47t50 114.5t39.5 131.5 q25 94 33 191t34 192q-25 27 -55 26q-45 0 -92 -45t-74 -102q-33 -72 -48.5 -168t-15.5 -185z" />
<glyph unicode="&#xe3;" horiz-adv-x="757" d="M39 324v20q0 82 14.5 181.5t51 189.5t101 148.5t165.5 58.5q39 0 70.5 -17.5t45.5 -50.5q14 16 39 26.5t60 10.5q12 0 27.5 -2t31.5 -6q-12 -47 -28.5 -129t-27.5 -179.5t-11 -189.5v-8q0 -39 4 -92.5t14 -104.5t28.5 -86t47.5 -35h2q16 0 35.5 16.5t42.5 61.5 q31 59 57 154q4 18 16 18q10 0 11 -24v-9q-4 -53 -29 -120.5t-69 -116.5t-105 -49q-63 0 -102 40t-60.5 102.5t-30 127t-8.5 113.5q-25 -92 -62.5 -180.5t-82.5 -144.5t-99 -56h-2q-49 0 -81.5 46t-49 122t-16.5 164zM190 362q0 -23 1.5 -45t3.5 -43q4 -61 23.5 -87.5 t39.5 -26.5q33 0 60.5 47t50 114.5t39.5 131.5q25 94 33 191t34 192q-25 27 -55 26q-45 0 -92 -45t-74 -102q-33 -72 -48.5 -168t-15.5 -185zM206 1060q0 27 21.5 67.5t51 71t53.5 30.5q31 0 64.5 -23.5t69 -48.5t68.5 -25q27 0 46.5 25t34 54t25.5 42l6 4q6 0 9.5 -8.5 t3.5 -13.5q0 -33 -18.5 -79t-50 -82.5t-73.5 -36.5q-31 0 -64.5 24t-68.5 47.5t-72 23.5q-24 0 -45 -29.5t-36 -59.5q-5 -8 -10 -8q-14 0 -15 25z" />
<glyph unicode="&#xe4;" horiz-adv-x="757" d="M39 324v20q0 82 14.5 181.5t51 189.5t101 148.5t165.5 58.5q39 0 70.5 -17.5t45.5 -50.5q14 16 39 26.5t60 10.5q12 0 27.5 -2t31.5 -6q-12 -47 -28.5 -129t-27.5 -179.5t-11 -189.5v-8q0 -39 4 -92.5t14 -104.5t28.5 -86t47.5 -35h2q16 0 35.5 16.5t42.5 61.5 q31 59 57 154q4 18 16 18q10 0 11 -24v-9q-4 -53 -29 -120.5t-69 -116.5t-105 -49q-63 0 -102 40t-60.5 102.5t-30 127t-8.5 113.5q-25 -92 -62.5 -180.5t-82.5 -144.5t-99 -56h-2q-49 0 -81.5 46t-49 122t-16.5 164zM190 362q0 -23 1.5 -45t3.5 -43q4 -61 23.5 -87.5 t39.5 -26.5q33 0 60.5 47t50 114.5t39.5 131.5q25 94 33 191t34 192q-25 27 -55 26q-45 0 -92 -45t-74 -102q-33 -72 -48.5 -168t-15.5 -185zM213 1151q0 33 22.5 55.5t55.5 22.5q31 0 53 -22.5t22 -55.5q0 -31 -22 -54.5t-53 -23.5q-33 0 -55.5 23.5t-22.5 54.5zM495 1151 q0 33 22.5 55.5t55.5 22.5q31 0 53.5 -22.5t22.5 -55.5q0 -31 -22.5 -54.5t-53.5 -23.5q-33 0 -55.5 23.5t-22.5 54.5z" />
<glyph unicode="&#xe5;" horiz-adv-x="757" d="M39 324v20q0 82 14.5 181.5t51 189.5t101 148.5t165.5 58.5q39 0 70.5 -17.5t45.5 -50.5q14 16 39 26.5t60 10.5q12 0 27.5 -2t31.5 -6q-12 -47 -28.5 -129t-27.5 -179.5t-11 -189.5v-8q0 -39 4 -92.5t14 -104.5t28.5 -86t47.5 -35h2q16 0 35.5 16.5t42.5 61.5 q31 59 57 154q4 18 16 18q10 0 11 -24v-9q-4 -53 -29 -120.5t-69 -116.5t-105 -49q-63 0 -102 40t-60.5 102.5t-30 127t-8.5 113.5q-25 -92 -62.5 -180.5t-82.5 -144.5t-99 -56h-2q-49 0 -81.5 46t-49 122t-16.5 164zM190 362q0 -23 1.5 -45t3.5 -43q4 -61 23.5 -87.5 t39.5 -26.5q33 0 60.5 47t50 114.5t39.5 131.5q25 94 33 191t34 192q-25 27 -55 26q-45 0 -92 -45t-74 -102q-33 -72 -48.5 -168t-15.5 -185zM244 1252q0 72 55 122t133 50t133.5 -50.5t55.5 -121.5q0 -72 -55.5 -123t-133.5 -51t-133 51t-55 123zM332 1254q0 -45 29.5 -76 t70.5 -31t71 31t30 76q0 43 -30 74.5t-71 31.5t-70.5 -31.5t-29.5 -74.5z" />
<glyph unicode="&#xe6;" horiz-adv-x="937" d="M47 324q0 63 10.5 143t33 160t62.5 146.5t99 107.5t141 41q41 0 71 -16.5t44 -51.5q16 43 50 57.5t67 14.5q39 0 59 -11q-4 -10 -11 -36.5t-13 -48.5l-7 -21q39 53 82 74.5t94 21.5h11q59 0 83.5 -43t24.5 -90v-6q0 -111 -50 -191.5t-126 -130t-158 -67.5 q0 -43 4.5 -99.5t19.5 -110.5t46 -89t86 -35q33 0 70 14q90 31 137 197q6 25 20 25t15 -29q0 -12 -6 -37q-33 -113 -99.5 -182.5t-179.5 -69.5q-109 0 -166 50t-78.5 129t-25.5 165v35v43t2 41l-6 -8q-20 -74 -48 -148.5t-62 -137t-73 -100.5t-82 -38h-2q-49 0 -79.5 46 t-45 122t-14.5 164zM199 306.5q0 -15.5 2 -32.5q4 -61 20.5 -87.5t36.5 -26.5q27 0 53.5 34.5t49 90t41 114t30.5 108.5t17 73l47 256q-25 27 -58 26q-45 0 -92 -45t-76 -102q-39 -78 -55 -182.5t-16 -194.5v-31.5zM616 424q66 16 114 64.5t77 114t31 132.5v13 q0 35 -12.5 67.5t-43.5 32.5h-2q-37 0 -64.5 -36t-46 -91t-30.5 -114.5t-17.5 -108.5t-5.5 -72v-2z" />
<glyph unicode="&#xe7;" horiz-adv-x="532" d="M51 310.5v29.5q0 84 17.5 180t58.5 181t108.5 138.5t165.5 53.5q59 0 97.5 -46t38.5 -106q0 -63 -20.5 -93t-49.5 -30q-49 0 -49 105q0 41 -12.5 76t-47.5 35q-39 0 -64.5 -38t-41.5 -96.5t-25.5 -123t-12.5 -121t-3 -86.5v-9q0 -82 16.5 -153.5t55.5 -114.5t104 -43 q121 0 180 205q6 25 23 25q14 0 14 -29q0 -14 -6 -37q-33 -113 -100.5 -182.5t-180.5 -69.5q-94 0 -150 46t-82 119t-32 155q-2 14 -2 29.5zM221 -203q0 8 10.5 37t23.5 64.5t26.5 68.5t19.5 47q4 6 17.5 8.5t29.5 2.5t29 -3l14 -4q-14 -25 -29.5 -61.5t-27.5 -69t-23 -47.5 q27 14 53.5 19.5t53.5 5.5q57 0 103 -24.5t73 -65.5t19 -90q-12 -90 -62.5 -141.5t-116.5 -71t-125 -19.5q-20 0 -38.5 3t-34.5 12q-6 2 -6 12q0 18 12 14q8 -2 16 -2h17q41 0 86 18.5t76.5 61.5t31.5 117v6q0 41 -20.5 78t-61.5 37h-4q-27 0 -60.5 -11.5t-60.5 -25.5h-2 q-6 0 -22.5 10t-16.5 14z" />
<glyph unicode="&#xe8;" horiz-adv-x="538" d="M53 346q0 98 20.5 197.5t64.5 181.5t111.5 132t160.5 50q66 0 102.5 -39t36.5 -114q0 -102 -50 -181t-126 -128.5t-158 -67.5v-10q0 -84 17.5 -157t57.5 -117t105 -44q80 0 123 66.5t68 169.5q2 8 7 15t9 7q18 0 16 -26q-6 -55 -24.5 -104.5t-38.5 -84.5q-39 -63 -93 -97 t-134 -34q-98 0 -158.5 60.5t-88.5 149.5t-28 175zM149 1239q0 16 24.5 38t44.5 22q9 0 15 -5l244 -202q2 -2 2 -4q0 -3 -5 -8t-12 -5q-2 0 -2 0.5t-1 0.5l-303 153q-7 2 -7 10zM217 424q66 16 115 64.5t76.5 114t27.5 132.5v10q0 37 -11 70t-42 33q-37 0 -64.5 -36t-47 -91 t-32 -114.5t-17.5 -108.5t-5 -72v-2z" />
<glyph unicode="&#xe9;" horiz-adv-x="538" d="M53 346q0 98 20.5 197.5t64.5 181.5t111.5 132t160.5 50q66 0 102.5 -39t36.5 -114q0 -102 -50 -181t-126 -128.5t-158 -67.5v-10q0 -84 17.5 -157t57.5 -117t105 -44q80 0 123 66.5t68 169.5q2 8 7 15t9 7q18 0 16 -26q-6 -55 -24.5 -104.5t-38.5 -84.5q-39 -63 -93 -97 t-134 -34q-98 0 -158.5 60.5t-88.5 149.5t-28 175zM217 424q66 16 115 64.5t76.5 114t27.5 132.5v10q0 37 -11 70t-42 33q-37 0 -64.5 -36t-47 -91t-32 -114.5t-17.5 -108.5t-5 -72v-2zM299 1085q0 1 2 4l246 201q5 5 13 5q22 0 46 -21.5t24 -36.5q0 -9 -7 -11l-302 -153 q-2 0 -2 -1t-2 -1q-7 0 -12.5 5t-5.5 9z" />
<glyph unicode="&#xea;" horiz-adv-x="538" d="M53 346q0 98 20.5 197.5t64.5 181.5t111.5 132t160.5 50q66 0 102.5 -39t36.5 -114q0 -102 -50 -181t-126 -128.5t-158 -67.5v-10q0 -84 17.5 -157t57.5 -117t105 -44q80 0 123 66.5t68 169.5q2 8 7 15t9 7q18 0 16 -26q-6 -55 -24.5 -104.5t-38.5 -84.5q-39 -63 -93 -97 t-134 -34q-98 0 -158.5 60.5t-88.5 149.5t-28 175zM137 1051q0 2 2 4q29 31 68.5 77t79.5 91t69 75.5t31 32.5h14q55 -70 110.5 -139t112.5 -137q2 -2 2 -4q0 -4 -13.5 -7t-31.5 -3q-20 0 -40.5 3t-28.5 11l-138 156q-43 -41 -88 -78t-86 -78q-6 -6 -17 -8t-24 -2 q-23 0 -22 6zM217 424q66 16 115 64.5t76.5 114t27.5 132.5v10q0 37 -11 70t-42 33q-37 0 -64.5 -36t-47 -91t-32 -114.5t-17.5 -108.5t-5 -72v-2z" />
<glyph unicode="&#xeb;" horiz-adv-x="538" d="M53 346q0 98 20.5 197.5t64.5 181.5t111.5 132t160.5 50q66 0 102.5 -39t36.5 -114q0 -102 -50 -181t-126 -128.5t-158 -67.5v-10q0 -84 17.5 -157t57.5 -117t105 -44q80 0 123 66.5t68 169.5q2 8 7 15t9 7q18 0 16 -26q-6 -55 -24.5 -104.5t-38.5 -84.5q-39 -63 -93 -97 t-134 -34q-98 0 -158.5 60.5t-88.5 149.5t-28 175zM164 1151q0 33 22.5 55.5t55.5 22.5q31 0 53 -22.5t22 -55.5q0 -31 -22 -54.5t-53 -23.5q-33 0 -55.5 23.5t-22.5 54.5zM217 424q66 16 115 64.5t76.5 114t27.5 132.5v10q0 37 -11 70t-42 33q-37 0 -64.5 -36t-47 -91 t-32 -114.5t-17.5 -108.5t-5 -72v-2zM446 1151q0 33 22.5 55.5t55.5 22.5q31 0 53.5 -22.5t22.5 -55.5q0 -31 -22.5 -54.5t-53.5 -23.5q-33 0 -55.5 23.5t-22.5 54.5z" />
<glyph unicode="&#xec;" horiz-adv-x="354" d="M-25 1239q0 16 24.5 38t44.5 22q9 0 15 -5l244 -202q2 -2 2 -4q0 -3 -5 -8t-12 -5q-2 0 -2 0.5t-1 0.5l-303 153q-7 2 -7 10zM37 416q0 88 9 171t22.5 145.5t25.5 88.5q12 25 40 46.5t75 21.5q27 0 53 -6q-20 -72 -49 -199t-29 -281q0 -53 2 -113.5t10.5 -112.5t26 -85 t45.5 -33h2q16 0 36 16.5t42 61.5q31 59 58 154q4 18 16 18q10 0 10 -24v-9q-4 -53 -28.5 -120.5t-69 -116.5t-105.5 -49q-74 0 -115.5 62.5t-59 159.5t-17.5 204z" />
<glyph unicode="&#xed;" horiz-adv-x="354" d="M37 416q0 88 9 171t22.5 145.5t25.5 88.5q12 25 40 46.5t75 21.5q27 0 53 -6q-20 -72 -49 -199t-29 -281q0 -53 2 -113.5t10.5 -112.5t26 -85t45.5 -33h2q16 0 36 16.5t42 61.5q31 59 58 154q4 18 16 18q10 0 10 -24v-9q-4 -53 -28.5 -120.5t-69 -116.5t-105.5 -49 q-74 0 -115.5 62.5t-59 159.5t-17.5 204zM125 1085q0 1 2 4l246 201q5 5 13 5q22 0 46 -21.5t24 -36.5q0 -9 -7 -11l-302 -153q-2 0 -2 -1t-2 -1q-7 0 -12.5 5t-5.5 9z" />
<glyph unicode="&#xee;" horiz-adv-x="354" d="M-37 1051q0 2 2 4q29 31 68.5 77t79.5 91t69 75.5t31 32.5h14q55 -70 110.5 -139t112.5 -137q2 -2 2 -4q0 -4 -13.5 -7t-31.5 -3q-20 0 -40.5 3t-28.5 11l-138 156q-43 -41 -88 -78t-86 -78q-6 -6 -17 -8t-24 -2q-23 0 -22 6zM37 416q0 88 9 171t22.5 145.5t25.5 88.5 q12 25 40 46.5t75 21.5q27 0 53 -6q-20 -72 -49 -199t-29 -281q0 -53 2 -113.5t10.5 -112.5t26 -85t45.5 -33h2q16 0 36 16.5t42 61.5q31 59 58 154q4 18 16 18q10 0 10 -24v-9q-4 -53 -28.5 -120.5t-69 -116.5t-105.5 -49q-74 0 -115.5 62.5t-59 159.5t-17.5 204z" />
<glyph unicode="&#xef;" horiz-adv-x="354" d="M-10 1151q0 33 22.5 55.5t55.5 22.5q31 0 53 -22.5t22 -55.5q0 -31 -22 -54.5t-53 -23.5q-33 0 -55.5 23.5t-22.5 54.5zM37 416q0 88 9 171t22.5 145.5t25.5 88.5q12 25 40 46.5t75 21.5q27 0 53 -6q-20 -72 -49 -199t-29 -281q0 -53 2 -113.5t10.5 -112.5t26 -85 t45.5 -33h2q16 0 36 16.5t42 61.5q31 59 58 154q4 18 16 18q10 0 10 -24v-9q-4 -53 -28.5 -120.5t-69 -116.5t-105.5 -49q-74 0 -115.5 62.5t-59 159.5t-17.5 204zM272 1151q0 33 22.5 55.5t55.5 22.5q31 0 53.5 -22.5t22.5 -55.5q0 -31 -22.5 -54.5t-53.5 -23.5 q-33 0 -55.5 23.5t-22.5 54.5z" />
<glyph unicode="&#xf0;" horiz-adv-x="692" d="M51 438q0 119 32 227.5t95.5 179t163.5 70.5q59 0 108.5 -28.5t61.5 -61.5q4 -12 4 -20q0 -20 -10 -36.5t-25 -16.5q-12 0 -24 20q-14 25 -46 60.5t-73 35.5q-31 0 -57.5 -45t-45 -114.5t-28.5 -145.5q-2 -16 -4 -56t-2 -89q0 -72 8 -148.5t30.5 -129t65.5 -52.5 q39 0 71 39t55.5 100.5t42 129t29.5 126t15 90.5q10 72 16.5 143.5t6.5 141.5q0 113 -18.5 212t-61.5 171l-156 -131q-8 -6 -16 -6q-10 0 -18.5 10t-12.5 19q-4 12 -4 26q0 8 2 16.5t10 14.5l142 121q-80 80 -209 80q-27 0 -52.5 -9.5t-54.5 -19.5q-4 -2 -12 -2 q-18 0 -19 16q0 10 10.5 20.5t37.5 16.5q82 20 155 21q125 0 213 -64l127 111q8 8 19 8q10 0 20 -11.5t14 -21.5q0 -2 1 -8t1 -12q0 -23 -10 -35l-106 -90q63 -76 95 -186.5t32 -241.5v-19q0 -74 -14.5 -183.5t-43 -228t-73.5 -222t-106.5 -168t-141.5 -64.5 q-78 0 -131.5 63.5t-81 165t-27.5 211.5z" />
<glyph unicode="&#xf1;" horiz-adv-x="706" d="M43 78v17t2 20q4 37 9 102.5t8.5 147t3.5 163.5q0 86 -5.5 163t-17.5 122q16 4 43 22.5t55 24.5q6 2 17 2q35 0 44 -37t9 -90q0 -37 -1 -87t-5 -87q23 66 49.5 114t56.5 93q31 47 66 93t94 46q61 0 79.5 -41t18.5 -90q0 -27 -2 -50.5t-4 -43.5q0 -14 -6 -74.5t-12 -141.5 t-6 -163q0 -23 2 -62.5t8 -79.5t21.5 -67.5t41.5 -27.5q16 0 37 12q23 16 40.5 42.5t27.5 53.5q8 18 16 41t15 47q8 25 22 25q10 0 10 -21v-8q0 -14 -5 -36.5t-13 -45.5q-25 -76 -73 -132t-134 -56q-57 0 -89 44t-46 113q-8 39 -11 78t-3 78q0 96 13 191.5t13 183.5 q0 29 -7 54.5t-32 25.5t-59 -47q-35 -45 -72 -132.5t-61.5 -197t-24.5 -223.5q0 -70 12 -142q-14 -10 -36.5 -20t-40.5 -10q-29 0 -48.5 21.5t-19.5 72.5zM73 1060q0 27 21.5 67.5t51 71t53.5 30.5q31 0 64.5 -23.5t69 -48.5t68.5 -25q27 0 46.5 25t34 54t25.5 42l6 4 q6 0 9.5 -8.5t3.5 -13.5q0 -33 -18.5 -79t-50 -82.5t-73.5 -36.5q-31 0 -64.5 24t-68.5 47.5t-72 23.5q-24 0 -45 -29.5t-36 -59.5q-5 -8 -10 -8q-14 0 -15 25z" />
<glyph unicode="&#xf2;" horiz-adv-x="602" d="M57 381q0 51 4.5 95t6.5 77q10 86 44.5 173t102.5 145.5t178 58.5q76 0 118 -49.5t59.5 -128t17.5 -164.5t-11.5 -167t-25.5 -130q-16 -63 -53 -136t-91 -124t-126 -51q-70 0 -114 36.5t-67.5 96t-33 130t-9.5 138.5zM159 1280q0 16 24.5 38t44.5 22q9 0 15 -5l244 -202 q2 -2 2 -4q0 -3 -5 -8t-12 -5q-2 0 -2 0.5t-1 0.5l-303 153q-7 2 -7 10zM233 395q0 -70 9.5 -139.5t34 -116.5t71.5 -47q43 0 73 41t50.5 94.5t28.5 89.5q8 33 13 82.5t5 104.5q0 84 -18.5 165t-67.5 113q-25 16 -24 39q0 16 12 30.5t20 20.5q-20 14 -39 15q-37 0 -65.5 -41 t-48 -98.5t-30.5 -109.5t-13 -73q-2 -23 -6.5 -68.5t-4.5 -101.5z" />
<glyph unicode="&#xf3;" horiz-adv-x="602" d="M57 381q0 51 4.5 95t6.5 77q10 86 44.5 173t102.5 145.5t178 58.5q76 0 118 -49.5t59.5 -128t17.5 -164.5t-11.5 -167t-25.5 -130q-16 -63 -53 -136t-91 -124t-126 -51q-70 0 -114 36.5t-67.5 96t-33 130t-9.5 138.5zM233 395q0 -70 9.5 -139.5t34 -116.5t71.5 -47 q43 0 73 41t50.5 94.5t28.5 89.5q8 33 13 82.5t5 104.5q0 84 -18.5 165t-67.5 113q-25 16 -24 39q0 16 12 30.5t20 20.5q-20 14 -39 15q-37 0 -65.5 -41t-48 -98.5t-30.5 -109.5t-13 -73q-2 -23 -6.5 -68.5t-4.5 -101.5zM310 1126q0 1 2 4l246 201q5 5 13 5q22 0 46 -21.5 t24 -36.5q0 -9 -7 -11l-302 -153q-2 0 -2 -1t-2 -1q-7 0 -12.5 5t-5.5 9z" />
<glyph unicode="&#xf4;" horiz-adv-x="602" d="M57 381q0 51 4.5 95t6.5 77q10 86 44.5 173t102.5 145.5t178 58.5q76 0 118 -49.5t59.5 -128t17.5 -164.5t-11.5 -167t-25.5 -130q-16 -63 -53 -136t-91 -124t-126 -51q-70 0 -114 36.5t-67.5 96t-33 130t-9.5 138.5zM148 1092q0 2 2 4q29 31 68.5 77t79.5 91t69 75.5 t31 32.5h14q55 -70 110.5 -139t112.5 -137q2 -2 2 -4q0 -4 -13.5 -7t-31.5 -3q-20 0 -40.5 3t-28.5 11l-138 156q-43 -41 -88 -78t-86 -78q-6 -6 -17 -8t-24 -2q-23 0 -22 6zM233 395q0 -70 9.5 -139.5t34 -116.5t71.5 -47q43 0 73 41t50.5 94.5t28.5 89.5q8 33 13 82.5 t5 104.5q0 84 -18.5 165t-67.5 113q-25 16 -24 39q0 16 12 30.5t20 20.5q-20 14 -39 15q-37 0 -65.5 -41t-48 -98.5t-30.5 -109.5t-13 -73q-2 -23 -6.5 -68.5t-4.5 -101.5z" />
<glyph unicode="&#xf5;" horiz-adv-x="602" d="M57 381q0 51 4.5 95t6.5 77q10 86 44.5 173t102.5 145.5t178 58.5q76 0 118 -49.5t59.5 -128t17.5 -164.5t-11.5 -167t-25.5 -130q-16 -63 -53 -136t-91 -124t-126 -51q-70 0 -114 36.5t-67.5 96t-33 130t-9.5 138.5zM167 1101q0 27 21.5 67.5t51 71t53.5 30.5 q31 0 64.5 -23.5t69 -48.5t68.5 -25q27 0 46.5 25t34 54t25.5 42l6 4q6 0 9.5 -8.5t3.5 -13.5q0 -33 -18.5 -79t-50 -82.5t-73.5 -36.5q-31 0 -64.5 24t-68.5 47.5t-72 23.5q-24 0 -45 -29.5t-36 -59.5q-5 -8 -10 -8q-14 0 -15 25zM233 395q0 -70 9.5 -139.5t34 -116.5 t71.5 -47q43 0 73 41t50.5 94.5t28.5 89.5q8 33 13 82.5t5 104.5q0 84 -18.5 165t-67.5 113q-25 16 -24 39q0 16 12 30.5t20 20.5q-20 14 -39 15q-37 0 -65.5 -41t-48 -98.5t-30.5 -109.5t-13 -73q-2 -23 -6.5 -68.5t-4.5 -101.5z" />
<glyph unicode="&#xf6;" horiz-adv-x="602" d="M57 381q0 51 4.5 95t6.5 77q10 86 44.5 173t102.5 145.5t178 58.5q76 0 118 -49.5t59.5 -128t17.5 -164.5t-11.5 -167t-25.5 -130q-16 -63 -53 -136t-91 -124t-126 -51q-70 0 -114 36.5t-67.5 96t-33 130t-9.5 138.5zM174 1192q0 33 22.5 55.5t55.5 22.5q31 0 53 -22.5 t22 -55.5q0 -31 -22 -54.5t-53 -23.5q-33 0 -55.5 23.5t-22.5 54.5zM233 395q0 -70 9.5 -139.5t34 -116.5t71.5 -47q43 0 73 41t50.5 94.5t28.5 89.5q8 33 13 82.5t5 104.5q0 84 -18.5 165t-67.5 113q-25 16 -24 39q0 16 12 30.5t20 20.5q-20 14 -39 15q-37 0 -65.5 -41 t-48 -98.5t-30.5 -109.5t-13 -73q-2 -23 -6.5 -68.5t-4.5 -101.5zM456 1192q0 33 22.5 55.5t55.5 22.5q31 0 53.5 -22.5t22.5 -55.5q0 -31 -22.5 -54.5t-53.5 -23.5q-33 0 -55.5 23.5t-22.5 54.5z" />
<glyph unicode="&#xf7;" horiz-adv-x="946" d="M152 578q0 8 4 20q4 10 14 23.5t27 13.5h589q16 0 21.5 -9.5t5.5 -19.5q0 -8 -4 -20q-2 -10 -13.5 -23.5t-29.5 -13.5h-588q-14 0 -20 9t-6 20zM377 322q0 41 29.5 69.5t68.5 28.5q41 0 69.5 -29t28.5 -69q0 -39 -28.5 -69t-69.5 -30q-39 0 -68.5 30t-29.5 69zM377 856 q0 41 29.5 69.5t68.5 28.5q41 0 69.5 -28.5t28.5 -69.5q0 -39 -28.5 -68.5t-69.5 -29.5q-39 0 -68.5 29.5t-29.5 68.5z" />
<glyph unicode="&#xf8;" horiz-adv-x="624" d="M45 381q0 51 3 95t7 77q10 86 45 173t102.5 145.5t178.5 58.5q37 0 65.5 -13.5t49.5 -35.5l41 106q8 27 30 27q20 0 21 -23q0 -6 -4 -18l-54 -139q25 -49 35 -115t10 -135q0 -25 -1 -49.5t-3 -49.5q51 -57 123 -57q55 0 109 41q12 10 22 10q8 0 9 -10q0 -18 -11 -25 q-33 -31 -69.5 -45t-73.5 -14q-63 0 -117 37q-4 -39 -11 -73t-13 -58q-18 -63 -54 -136t-90.5 -124t-126.5 -51q-20 0 -37.5 4t-33.5 10l-64 -168q-9 -25 -29 -25q-23 0 -22 23q0 4 1 8t3 8l70 176q-43 35 -68 95.5t-34 131t-9 138.5zM221 393q0 -43 3.5 -87t11.5 -85 l206 524q4 10 6.5 17.5t6.5 13.5l14 39q-12 27 -31.5 48.5t-50.5 21.5q-35 0 -62.5 -41t-48 -98.5t-32 -108.5t-13.5 -72q-2 -23 -6 -69.5t-4 -102.5zM260 147q27 -55 76 -55q43 0 72.5 41t50 94.5t28.5 89.5q6 29 10.5 66t6.5 88q-20 16 -36.5 56t-25.5 85z" />
<glyph unicode="&#xf9;" horiz-adv-x="759" d="M57 342q0 90 7.5 186.5t19.5 177t29 123.5q10 25 37.5 43.5t72.5 18.5q31 0 62 -8q-6 -23 -23.5 -107t-30.5 -186q-8 -72 -14 -146.5t-6 -140.5q0 -84 14.5 -140.5t46.5 -56.5q39 0 69 46.5t52.5 116t34.5 139.5q18 102 32.5 219.5t33.5 201.5q6 25 35.5 43.5t74.5 18.5 q31 0 62 -8q-16 -45 -32 -135.5t-26 -199t-10 -214.5q0 -53 5 -116.5t22.5 -109t50.5 -45.5h2q16 0 35.5 16.5t42.5 61.5q16 29 28.5 68t26.5 84q8 18 16 18q10 0 11 -24v-8q-4 -53 -29 -121t-69 -117t-105 -49q-70 0 -111 50t-59.5 123t-22.5 140q-14 -53 -32.5 -106.5 t-44.5 -94.5q-74 -112 -160 -112q-45 0 -81 37t-52 112q-8 35 -11.5 88.5t-3.5 112.5zM190 1239q0 16 24.5 38t44.5 22q9 0 15 -5l244 -202q2 -2 2 -4q0 -3 -5 -8t-12 -5q-2 0 -2 0.5t-1 0.5l-303 153q-7 2 -7 10z" />
<glyph unicode="&#xfa;" horiz-adv-x="759" d="M57 342q0 90 7.5 186.5t19.5 177t29 123.5q10 25 37.5 43.5t72.5 18.5q31 0 62 -8q-6 -23 -23.5 -107t-30.5 -186q-8 -72 -14 -146.5t-6 -140.5q0 -84 14.5 -140.5t46.5 -56.5q39 0 69 46.5t52.5 116t34.5 139.5q18 102 32.5 219.5t33.5 201.5q6 25 35.5 43.5t74.5 18.5 q31 0 62 -8q-16 -45 -32 -135.5t-26 -199t-10 -214.5q0 -53 5 -116.5t22.5 -109t50.5 -45.5h2q16 0 35.5 16.5t42.5 61.5q16 29 28.5 68t26.5 84q8 18 16 18q10 0 11 -24v-8q-4 -53 -29 -121t-69 -117t-105 -49q-70 0 -111 50t-59.5 123t-22.5 140q-14 -53 -32.5 -106.5 t-44.5 -94.5q-74 -112 -160 -112q-45 0 -81 37t-52 112q-8 35 -11.5 88.5t-3.5 112.5zM340 1085q0 1 2 4l246 201q5 5 13 5q22 0 46 -21.5t24 -36.5q0 -9 -7 -11l-302 -153q-2 0 -2 -1t-2 -1q-7 0 -12.5 5t-5.5 9z" />
<glyph unicode="&#xfb;" horiz-adv-x="759" d="M59 354v39q2 43 4.5 122t13.5 166t36 148q10 25 37.5 43.5t72.5 18.5q31 0 62 -8q-6 -23 -22.5 -107t-29.5 -186q-8 -72 -14 -146.5t-6 -140.5q0 -84 13.5 -140.5t45.5 -56.5q35 0 61.5 36t47 93.5t34 122t21.5 123t13 94.5q6 66 15 134.5t30 119.5q10 25 37.5 43.5 t72.5 18.5q31 0 62 -8q-12 -47 -27.5 -131t-27 -182.5t-13.5 -192.5v-43q0 -53 5 -116.5t22.5 -109t50.5 -45.5h2q16 0 35.5 16.5t42.5 61.5q16 29 28.5 68t26.5 84q8 18 16 18q10 0 11 -24v-8q-4 -53 -29 -121t-69 -117t-105 -49q-70 0 -111 50t-59.5 123t-22.5 140 q-20 -80 -55 -150.5t-84 -114.5t-113 -44h-12q-39 4 -62.5 42t-35.5 94t-16.5 115.5t-4.5 106.5zM164 1104q0 2 2 4q29 31 68.5 77t79.5 91t69 75.5t31 32.5h14q55 -70 110.5 -139t112.5 -137q2 -2 2 -4q0 -4 -13.5 -7t-31.5 -3q-20 0 -40.5 3t-28.5 11l-138 156 q-43 -41 -88 -78t-86 -78q-6 -6 -17 -8t-24 -2q-23 0 -22 6z" />
<glyph unicode="&#xfc;" horiz-adv-x="759" d="M57 342q0 90 7.5 186.5t19.5 177t29 123.5q10 25 37.5 43.5t72.5 18.5q31 0 62 -8q-6 -23 -23.5 -107t-30.5 -186q-8 -72 -14 -146.5t-6 -140.5q0 -84 14.5 -140.5t46.5 -56.5q39 0 69 46.5t52.5 116t34.5 139.5q18 102 32.5 219.5t33.5 201.5q6 25 35.5 43.5t74.5 18.5 q31 0 62 -8q-16 -45 -32 -135.5t-26 -199t-10 -214.5q0 -53 5 -116.5t22.5 -109t50.5 -45.5h2q16 0 35.5 16.5t42.5 61.5q16 29 28.5 68t26.5 84q8 18 16 18q10 0 11 -24v-8q-4 -53 -29 -121t-69 -117t-105 -49q-70 0 -111 50t-59.5 123t-22.5 140q-14 -53 -32.5 -106.5 t-44.5 -94.5q-74 -112 -160 -112q-45 0 -81 37t-52 112q-8 35 -11.5 88.5t-3.5 112.5zM205 1151q0 33 22.5 55.5t55.5 22.5q31 0 53 -22.5t22 -55.5q0 -31 -22 -54.5t-53 -23.5q-33 0 -55.5 23.5t-22.5 54.5zM487 1151q0 33 22.5 55.5t55.5 22.5q31 0 53.5 -22.5t22.5 -55.5 q0 -31 -22.5 -54.5t-53.5 -23.5q-33 0 -55.5 23.5t-22.5 54.5z" />
<glyph unicode="&#xfd;" horiz-adv-x="677" d="M-72 -557q0 63 22.5 135t57.5 139q49 92 126 170t159 138.5t141 97.5q0 27 -2 87t-5 137t-9 149q-16 -90 -46 -178.5t-71 -180.5q-10 -23 -32.5 -57.5t-51.5 -60t-61 -25.5q-25 0 -47 20q-20 18 -34 64.5t-21 106t-10 121t-3 110.5q0 23 1 40t1 29q2 43 5 102.5t11.5 120 t24.5 103.5q31 78 121 78h19t18 -2q6 -2 11 -3t5 -7q0 -4 -2 -7q-20 -49 -34.5 -127.5t-23 -169t-8.5 -172.5q0 -41 2.5 -78.5t6.5 -66.5q6 -35 16 -63.5t27 -28.5q12 0 30 24q41 57 69 136t43 163t19 156q2 45 4.5 94t24.5 88q27 47 67 57.5t68 10.5h25q31 0 31 -12 q0 -4 -9 -13q-20 -18 -31.5 -71.5t-15.5 -126t-4 -150.5q0 -88 2 -169t2 -126v-22q59 35 103.5 56.5t66.5 21.5q4 0 6 -1t5 -1q10 -2 10 -17q0 -6 -4 -13t-13 -7q-25 -2 -66.5 -25.5t-76.5 -53.5t-35 -52v-25q0 -285 -58.5 -471t-155.5 -277.5t-212 -91.5q-113 0 -161 56.5 t-48 140.5zM20 -559q0 -68 25 -110t70 -42h6q72 0 122 47.5t83.5 124t55 166.5t33 179.5t15.5 160t6 105.5q-33 -18 -100.5 -75.5t-140 -142.5t-121.5 -194q-27 -59 -40.5 -115.5t-13.5 -103.5zM281 1085q0 1 2 4l246 201q5 5 13 5q22 0 46 -21.5t24 -36.5q0 -9 -7 -11 l-302 -153q-2 0 -2 -1t-2 -1q-7 0 -12.5 5t-5.5 9z" />
<glyph unicode="&#xfe;" horiz-adv-x="595" d="M63 -111q0 162 8.5 349.5t23 376t32.5 356.5t37.5 294t38.5 189q4 6 10 7t12 1q47 0 73 -17.5t40 -64.5q-4 -25 -18.5 -123t-32 -242.5t-37.5 -309.5q35 82 78 137t96 55q78 0 113.5 -71.5t44.5 -176.5q2 -20 3 -43.5t1 -50.5q0 -78 -10.5 -166t-36 -169t-70.5 -140.5 t-113 -79.5q-31 -10 -71 -10q-27 0 -55.5 7t-47.5 26q-2 -51 -5 -97.5t-3 -85.5q0 -20 -1 -43.5t-1 -48.5q0 -76 6 -153.5t25.5 -130t56.5 -52.5q16 0 36.5 9.5t27.5 17.5h12q-2 -59 -33 -90t-70 -31q-41 0 -82.5 40t-60.5 122q-14 68 -20.5 173t-6.5 236zM186 76q2 0 7 -4 q26 -27 61 -27q33 0 59 23q41 33 64.5 92t37 129.5t15.5 140.5q2 18 2 46v59q0 51 -5 103t-19.5 87t-42.5 35q-31 0 -57.5 -44t-46 -101.5t-32.5 -96.5q-12 -117 -23 -229.5t-20 -212.5z" />
<glyph unicode="&#xff;" horiz-adv-x="677" d="M-72 -557q0 63 22.5 135t57.5 139q49 92 126 170t159 138.5t141 97.5q0 27 -2 87t-5 137t-9 149q-16 -90 -46 -178.5t-71 -180.5q-10 -23 -32.5 -57.5t-51.5 -60t-61 -25.5q-25 0 -47 20q-20 18 -34 64.5t-21 106t-10 121t-3 110.5q0 23 1 40t1 29q2 43 5 102.5t11.5 120 t24.5 103.5q31 78 121 78h19t18 -2q6 -2 11 -3t5 -7q0 -4 -2 -7q-20 -49 -34.5 -127.5t-23 -169t-8.5 -172.5q0 -41 2.5 -78.5t6.5 -66.5q6 -35 16 -63.5t27 -28.5q12 0 30 24q41 57 69 136t43 163t19 156q2 45 4.5 94t24.5 88q27 47 67 57.5t68 10.5h25q31 0 31 -12 q0 -4 -9 -13q-20 -18 -31.5 -71.5t-15.5 -126t-4 -150.5q0 -88 2 -169t2 -126v-22q59 35 103.5 56.5t66.5 21.5q4 0 6 -1t5 -1q10 -2 10 -17q0 -6 -4 -13t-13 -7q-25 -2 -66.5 -25.5t-76.5 -53.5t-35 -52v-25q0 -285 -58.5 -471t-155.5 -277.5t-212 -91.5q-113 0 -161 56.5 t-48 140.5zM20 -559q0 -68 25 -110t70 -42h6q72 0 122 47.5t83.5 124t55 166.5t33 179.5t15.5 160t6 105.5q-33 -18 -100.5 -75.5t-140 -142.5t-121.5 -194q-27 -59 -40.5 -115.5t-13.5 -103.5zM146 1151q0 33 22.5 55.5t55.5 22.5q31 0 53 -22.5t22 -55.5q0 -31 -22 -54.5 t-53 -23.5q-33 0 -55.5 23.5t-22.5 54.5zM428 1151q0 33 22.5 55.5t55.5 22.5q31 0 53.5 -22.5t22.5 -55.5q0 -31 -22.5 -54.5t-53.5 -23.5q-33 0 -55.5 23.5t-22.5 54.5z" />
<glyph unicode="&#x152;" horiz-adv-x="2390" d="M8 811q0 51 23.5 86t55.5 57.5t58 30.5q2 0 4.5 1t4.5 1q14 0 14 -16q0 -12 -14 -19q-25 -10 -46.5 -49t-21.5 -78q0 -63 38 -109t93 -77q10 147 61.5 289.5t144.5 259.5t225 185.5t302 68.5q197 0 291 -92.5t94 -227.5q0 -49 -8 -92t-22 -84q61 -131 61 -303v-27.5 t-2 -27.5q82 72 180 120t187 62q-78 14 -155 34.5t-127 71t-50 148.5q0 109 51 187.5t134 132t180.5 79t191.5 25.5q152 0 237.5 -61.5t85.5 -145.5t-102 -170t-334 -131q-2 0 -5 -1t-7 -1q-31 0 -31 18q0 14 29 21q164 33 235.5 92t71.5 117q0 59 -62.5 104t-162.5 45 q-70 0 -145.5 -21.5t-142.5 -63.5t-108.5 -101t-41.5 -135q0 -82 80.5 -142.5t254.5 -60.5q47 0 102.5 5t119.5 18h8q55 0 55 -39q0 -20 -15.5 -46t-35 -43.5t-33.5 -17.5h-22q-113 0 -237 -26.5t-232.5 -87t-182.5 -158.5q-14 -51 -36.5 -102.5t-51.5 -98.5q-2 -8 -2 -15 v-14q0 -66 38 -102.5t99.5 -52t130.5 -15.5q72 0 146 11.5t129 25.5q147 37 268 105.5t174 132.5q49 59 49 104q0 47 -47 75t-123 28q-96 0 -219 -54.5t-229 -177.5q-18 -23 -31 -22q-10 0 -10 12q0 10 10 30.5t33 47.5q63 72 149 123t178.5 79.5t170.5 28.5h4 q102 0 156.5 -58t54.5 -140q0 -51 -20.5 -104.5t-63.5 -102.5q-63 -74 -176 -136.5t-255 -100.5t-296 -38q-141 0 -246 64.5t-135 177.5q-78 -90 -190.5 -146.5t-258.5 -56.5q-131 0 -229 51.5t-162.5 140.5t-97.5 202.5t-33 238.5q-90 35 -147.5 97.5t-57.5 156.5zM377 504 q0 -141 37 -263t115.5 -196t199.5 -74q111 0 205 64.5t163.5 171t108.5 234.5t39 253q0 33 -2 63.5t-8 59.5q-80 -106 -207 -174t-267 -98.5t-263 -30.5q-61 0 -121 6v-16zM381 578q62 -13 111 -13q96 0 201.5 22.5t204.5 70t177 118t121 168.5q-37 78 -103.5 133.5 t-166.5 75.5q-8 2 -8 8q0 14 22 15h18q86 0 154 -31t117 -84q2 18 4 36.5t2 39.5q0 94 -46 150t-111.5 82t-121.5 26q-129 0 -231 -72t-176 -191.5t-116 -264t-52 -289.5z" />
<glyph unicode="&#x153;" horiz-adv-x="997" d="M57 381q0 51 4.5 95t6.5 77q10 86 44.5 173t102.5 145.5t178 58.5q94 0 137 -74t54 -176q43 96 118.5 160.5t186.5 64.5h12q57 0 82 -43t25 -90v-6q0 -111 -50.5 -191.5t-126 -130t-157.5 -67.5v-10q0 -84 17.5 -157t58.5 -117t106 -44q121 0 180 205q6 23 21 22 q16 0 16 -26q0 -14 -6 -37q-33 -113 -99.5 -182.5t-179.5 -69.5q-70 0 -122 35t-86 86q-37 55 -54 135q-23 -57 -58.5 -112.5t-82.5 -90t-104 -34.5q-70 0 -114 36.5t-67.5 96t-33 130t-9.5 138.5zM233 395q0 -70 9.5 -139.5t34 -116.5t71.5 -47q43 0 73 41t50.5 94.5 t28.5 89.5q8 33 13 82.5t5 104.5q0 84 -18.5 165t-67.5 113q-25 16 -24 39q0 16 12 30.5t20 20.5q-20 14 -39 15q-37 0 -65.5 -41t-48 -98.5t-30.5 -109.5t-13 -73q-2 -23 -6.5 -68.5t-4.5 -101.5zM676 422q66 18 114 66.5t76.5 114t30.5 132.5v10q0 37 -12.5 70t-42.5 33 h-2q-37 0 -64.5 -36t-46 -91t-31 -114.5t-17.5 -108.5t-5 -72v-4z" />
<glyph unicode="&#x178;" horiz-adv-x="1564" d="M33 831q0 57 8 119t25 125q23 84 63.5 171t102 162t144.5 120t187 45q74 0 115 -38t58.5 -101.5t17.5 -141.5q0 -92 -17.5 -191.5t-39 -182t-33.5 -130.5q-6 -25 -23.5 -84t-37 -138t-33 -160.5t-13.5 -153.5q0 -76 22.5 -128t79.5 -56h11q74 0 147.5 59t140 160.5 t122 229.5t91.5 263q43 160 77 295t54 217l19 82q12 0 22 -22v2h3q6 0 12 -42t10 -97.5t7 -99.5t5 -48q6 -14 15.5 -66.5t23.5 -142.5q16 -106 30.5 -209.5t27.5 -202.5l8 5q29 16 53.5 20t40.5 4t29.5 -4t15.5 -20q0 -8 -9 -12.5t-20 -4.5q-29 -2 -60.5 -14t-49.5 -25 q12 -125 12 -286q0 -109 -15.5 -239t-51 -259t-98 -235.5t-157 -171t-227.5 -64.5q-96 0 -154.5 39t-83 102.5t-24.5 138.5q0 133 60.5 261.5t134.5 234.5q109 158 218 263.5t234 187.5q-4 31 -11 96t-15.5 144t-16.5 155t-16 129q-14 -53 -34.5 -112.5t-43.5 -125.5 q-49 -133 -110.5 -258t-136.5 -223t-162 -156.5t-183 -58.5h-16q-98 6 -133 86t-35 186q0 84 13 170t29.5 160t24.5 113q4 20 16.5 80.5t28 144.5t25.5 177t10 175q0 102 -22.5 172t-83.5 70q-66 0 -121 -54.5t-99 -141.5t-76 -189t-48.5 -201.5t-16.5 -175.5q0 -51 8.5 -87 t26.5 -46q14 -8 15 -21q0 -25 -27 -24q-14 0 -27 12q-27 31 -45 102.5t-18 165.5zM788 -553q0 -61 16.5 -118.5t53.5 -95.5t98 -38q102 0 173 50t116 136.5t70.5 193t36 220t10.5 219.5q0 94 -5 175t-11 135q-88 -55 -185.5 -155.5t-182.5 -223.5t-137.5 -253t-52.5 -245z M788 1657q0 37 26 62.5t63 25.5q35 0 61.5 -25.5t26.5 -62.5q0 -35 -26.5 -61.5t-61.5 -26.5q-37 0 -63 26.5t-26 61.5zM1081 1657q0 37 27 62.5t61 25.5q37 0 62.5 -25.5t25.5 -62.5q0 -35 -25.5 -61.5t-62.5 -26.5q-35 0 -61.5 26.5t-26.5 61.5z" />
<glyph unicode="&#x2c6;" horiz-adv-x="835" d="M164 1104q0 2 2 4q29 31 68.5 77t79.5 91t69 75.5t31 32.5h14q55 -70 110.5 -139t112.5 -137q2 -2 2 -4q0 -4 -13.5 -7t-31.5 -3q-20 0 -40.5 3t-28.5 11l-138 156q-43 -41 -88 -78t-86 -78q-6 -6 -17 -8t-24 -2q-23 0 -22 6z" />
<glyph unicode="&#x2dc;" horiz-adv-x="835" d="M135 1126q0 27 27.5 67t64.5 70.5t68 30.5q39 0 82 -23.5t88 -48t86 -24.5q35 0 59.5 24.5t43 53.5t32.5 41l8 4q8 0 12.5 -8t4.5 -13q0 -33 -23.5 -78.5t-64 -81.5t-93.5 -36q-39 0 -81.5 23.5t-87 47t-91.5 23.5q-31 0 -57.5 -29.5t-46.5 -58.5q-6 -8 -12 -8 q-18 0 -19 24z" />
<glyph unicode="&#x2000;" horiz-adv-x="1006" />
<glyph unicode="&#x2001;" horiz-adv-x="2013" />
<glyph unicode="&#x2002;" horiz-adv-x="1006" />
<glyph unicode="&#x2003;" horiz-adv-x="2013" />
<glyph unicode="&#x2004;" horiz-adv-x="671" />
<glyph unicode="&#x2005;" horiz-adv-x="503" />
<glyph unicode="&#x2006;" horiz-adv-x="335" />
<glyph unicode="&#x2007;" horiz-adv-x="335" />
<glyph unicode="&#x2008;" horiz-adv-x="251" />
<glyph unicode="&#x2009;" horiz-adv-x="402" />
<glyph unicode="&#x200a;" horiz-adv-x="111" />
<glyph unicode="&#x2010;" horiz-adv-x="735" d="M139 559q0 8 4 21q4 10 15.5 23t27.5 13h416q16 0 22.5 -10t6.5 -20q0 -8 -4 -21q-4 -8 -15.5 -22.5t-27.5 -14.5h-418q-27 0 -27 31z" />
<glyph unicode="&#x2011;" horiz-adv-x="735" d="M139 559q0 8 4 21q4 10 15.5 23t27.5 13h416q16 0 22.5 -10t6.5 -20q0 -8 -4 -21q-4 -8 -15.5 -22.5t-27.5 -14.5h-418q-27 0 -27 31z" />
<glyph unicode="&#x2012;" horiz-adv-x="735" d="M139 559q0 8 4 21q4 10 15.5 23t27.5 13h416q16 0 22.5 -10t6.5 -20q0 -8 -4 -21q-4 -8 -15.5 -22.5t-27.5 -14.5h-418q-27 0 -27 31z" />
<glyph unicode="&#x2013;" horiz-adv-x="1230" d="M164 559q0 8 4 21q4 10 15.5 23t27.5 13h823q16 0 22.5 -10t6.5 -20q0 -8 -4 -21q-4 -8 -15.5 -22.5t-27.5 -14.5h-826q-27 0 -26 31z" />
<glyph unicode="&#x2014;" horiz-adv-x="1738" d="M164 559q0 8 4 21q4 10 15.5 23t27.5 13h1386q16 0 22.5 -10t6.5 -20q0 -8 -4 -21q-4 -8 -15.5 -22.5t-27.5 -14.5h-1389q-27 0 -26 31z" />
<glyph unicode="&#x2018;" horiz-adv-x="215" d="M-2 1161q0 53 19.5 113.5t48 110t57.5 71.5q16 12 24 12q10 0 11 -10q0 -8 -6 -18q-45 -59 -61.5 -107.5t-16.5 -79.5v-15t2 -11q16 6 35 6q41 0 69.5 -28.5t28.5 -69.5q0 -39 -28.5 -69t-69.5 -30q-63 0 -88 37t-25 88z" />
<glyph unicode="&#x2019;" horiz-adv-x="215" d="M2 1358q0 41 28.5 69.5t69.5 28.5q61 0 85 -32.5t24 -80.5q0 -82 -33 -169t-88 -138q-15 -12 -25 -12q-12 0 -12 14q0 10 6 17q47 59 63.5 109t16.5 81q0 6 -1 11.5t-1 9.5q-14 -6 -35 -6q-41 0 -69.5 28.5t-28.5 69.5z" />
<glyph unicode="&#x201a;" horiz-adv-x="407" d="M156 98q0 41 29.5 70t68.5 29q63 0 85.5 -33t22.5 -80q0 -82 -32.5 -169t-87.5 -138q-15 -13 -23 -13q-12 0 -12 15q0 8 6 16q47 59 63.5 109.5t16.5 81.5q0 6 -1 11t-1 9q-18 -6 -37 -6q-39 0 -68.5 28.5t-29.5 69.5z" />
<glyph unicode="&#x201c;" horiz-adv-x="507" d="M-2 1161q0 53 19.5 113.5t48 110t57.5 71.5q16 12 24 12q10 0 11 -10q0 -8 -6 -18q-45 -59 -61.5 -107.5t-16.5 -79.5v-15t2 -11q16 6 35 6q41 0 69.5 -28.5t28.5 -69.5q0 -39 -28.5 -69t-69.5 -30q-63 0 -88 37t-25 88zM279 1161q0 53 19 113.5t48 110t57 71.5 q16 12 27 12q10 0 10 -12q0 -6 -6 -16q-47 -61 -63.5 -110.5t-16.5 -82.5q0 -6 1 -11t1 -9q16 6 35 6q41 0 69.5 -28.5t28.5 -69.5q0 -39 -28.5 -69t-69.5 -30q-63 0 -87.5 37t-24.5 88z" />
<glyph unicode="&#x201d;" horiz-adv-x="524" d="M2 1358q0 41 28.5 69.5t69.5 28.5q61 0 85 -32.5t24 -80.5q0 -82 -33 -169t-88 -138q-15 -12 -25 -12q-12 0 -12 14q0 10 6 17q47 59 63.5 109t16.5 81q0 6 -1 11.5t-1 9.5q-14 -6 -35 -6q-41 0 -69.5 28.5t-28.5 69.5zM283 1358q0 41 29.5 69.5t68.5 28.5q63 0 88 -36 t25 -89t-19.5 -113.5t-48.5 -109.5t-57 -72q-15 -12 -25 -12t-10 12q0 10 6 19q47 59 62.5 107t15.5 79q0 18 -2 25q-14 -6 -35 -6q-39 0 -68.5 28.5t-29.5 69.5z" />
<glyph unicode="&#x201e;" horiz-adv-x="749" d="M156 98q0 41 29.5 70t68.5 29q63 0 85.5 -33t22.5 -80q0 -82 -32.5 -169t-87.5 -138q-15 -13 -23 -13q-12 0 -12 15q0 8 6 16q47 59 63.5 109.5t16.5 81.5q0 6 -1 11t-1 9q-18 -6 -37 -6q-39 0 -68.5 28.5t-29.5 69.5zM438 98q0 41 29 70t70 29q61 0 85.5 -36t24.5 -89 t-19.5 -113.5t-47 -110t-56.5 -71.5q-14 -13 -26 -13q-10 0 -11 13q0 10 7 18q47 59 63 109.5t16 81.5q0 6 -1 11t-1 9q-18 -6 -34 -6q-41 0 -70 28.5t-29 69.5z" />
<glyph unicode="&#x2022;" horiz-adv-x="1134" d="M137 573q0 139 61.5 254t164 183.5t225.5 68.5q125 0 226 -68.5t162.5 -183t61.5 -254.5q0 -139 -61.5 -253.5t-162.5 -183t-226 -68.5q-123 0 -225.5 68.5t-164 183t-61.5 253.5z" />
<glyph unicode="&#x2026;" horiz-adv-x="1071" d="M160 88q0 41 28.5 69.5t69.5 28.5t69.5 -28.5t28.5 -69.5t-28.5 -69.5t-69.5 -28.5t-69.5 28.5t-28.5 69.5zM489 88q0 41 29 69.5t70 28.5t69.5 -28.5t28.5 -69.5t-28.5 -69.5t-69.5 -28.5t-70 28.5t-29 69.5zM821 88q0 41 29 69.5t70 28.5t69.5 -28.5t28.5 -69.5 t-28.5 -69.5t-69.5 -28.5t-70 28.5t-29 69.5z" />
<glyph unicode="&#x202f;" horiz-adv-x="402" />
<glyph unicode="&#x2039;" horiz-adv-x="849" d="M281 629q0 35 10 45q12 12 49 41.5t84 66.5t92 72t75 58l30 22q10 6 14 6q10 0 10 -18v-9q0 -18 -16 -34q-8 -12 -39 -46t-70 -75t-70.5 -76t-43.5 -47l184 -293q8 -12 11 -27.5t3 -27.5q-4 -25 -22 -25q-8 0 -19 6q-12 8 -40.5 38t-64.5 70t-71 79t-58.5 66.5 t-27.5 31.5q-10 8 -15 30.5t-5 45.5z" />
<glyph unicode="&#x203a;" horiz-adv-x="679" d="M178 913v11q0 16 10 16q6 0 15 -6l29 -22q30 -23 76 -58t94.5 -73t85 -67.5t49.5 -41.5q10 -10 10 -39q0 -23 -7.5 -46.5t-17.5 -33.5q-4 -4 -27.5 -31.5t-58.5 -66.5t-70.5 -79t-64.5 -70t-41 -38q-8 -6 -18 -6q-18 0 -23 25q0 12 3 27.5t11 27.5l185 293q-12 12 -44 47 t-71 76t-68.5 74.5t-39.5 46.5q-16 16 -17 34z" />
<glyph unicode="&#x205f;" horiz-adv-x="503" />
<glyph unicode="&#x20ac;" horiz-adv-x="1277" d="M43 598q0 10 2 16q4 10 14.5 21.5t26.5 11.5h121q4 74 18 148h-155q-27 0 -27 28q0 10 2 15q4 8 14.5 19t24.5 11h158q45 154 135 282t220 205t290 77h8q68 0 134.5 -19.5t110.5 -67t44 -133.5q0 -59 -27 -89.5t-51 -30.5q-18 0 -33.5 16t-15.5 49q0 4 2 10.5t2 10.5 q4 12 3 25.5t-1 23.5q0 57 -27.5 95t-105.5 38q-86 0 -181.5 -63.5t-177.5 -174t-133 -254.5h436q23 0 23 -24q0 -12 -2 -19q-4 -8 -13.5 -19t-25.5 -11h-440q-18 -76 -25 -148h422q12 0 17.5 -8t5.5 -18q0 -12 -2 -17q-4 -8 -13.5 -19.5t-25.5 -11.5h-410q0 -41 4 -80.5 t10 -80.5q29 -180 124 -273.5t218 -93.5q94 0 195.5 58.5t189.5 170.5q14 16 33 46t35 62t23 50q14 41 30 41q10 0 19.5 -23.5t9.5 -48.5q0 -8 -2 -16l-4 -16q-14 -53 -43 -101q-82 -137 -220.5 -212.5t-283.5 -75.5q-106 0 -206.5 44t-176.5 136t-111 235q-20 86 -24 178 h-135q-27 0 -27 25z" />
<glyph unicode="&#x2122;" horiz-adv-x="1372" d="M39 1337v6q2 25 46 39.5t113.5 20.5t145.5 6q94 0 182 -8t129 -19q37 -10 37 -24q0 -8 -22 -8q-14 0 -43 6q-27 6 -90 6q-55 0 -122 -4t-125.5 -9.5t-88.5 -9.5q-2 -14 -43 -28.5t-76 -18.5h-6q-20 0 -28.5 15.5t-8.5 29.5zM313 854v53q0 76 6.5 160t16.5 152 q-14 4 -19 24q0 4 -1 8t-1 6q0 29 10.5 56.5t14.5 32.5q4 4 16 4q18 0 43 -10.5t25 -26.5v-4q-25 -109 -50.5 -234t-25.5 -223v-2q0 -12 3 -38t9.5 -47.5t14.5 -21.5t16 15q0 2 1 2h1q8 0 8 -25q0 -10 -5 -20t-19 -10q-8 0 -12 2q-18 6 -29.5 31.5t-16 58t-6.5 57.5z M600 764q0 55 12.5 134t31 163t40 156.5t40.5 118.5t34 46q10 0 32.5 -16t24.5 -27q0 -10 5 -56t13.5 -106.5t20.5 -119t29.5 -97t38.5 -38.5q31 0 64.5 42t65 105.5t59.5 127t46.5 107.5t22.5 48q2 2 8 2q14 0 33.5 -11.5t19.5 -21.5v-2q-10 -55 -24.5 -157.5t-14.5 -207.5 q0 -63 7.5 -120.5t25.5 -98.5q6 -16 22 -16q4 0 7.5 1t5.5 1q6 -6 6 -14q0 -18 -23 -19q-12 0 -26.5 10.5t-26.5 34.5q-14 33 -27.5 91.5t-21.5 130t-8 141.5v33.5t2 31.5q-18 -57 -47 -118.5t-64 -106.5t-71 -53q-6 -2 -12.5 -2h-12.5q-49 0 -81 40t-50.5 99t-28.5 118.5 t-16 98.5q-23 -66 -52.5 -153t-51 -177t-21.5 -162q0 -14 1 -28.5t3 -26.5v-6q0 -12 -8 -12q-14 0 -25 30q-8 18 -8 62z" />
<glyph unicode="&#x25fc;" horiz-adv-x="921" d="M0 0v922h922v-922h-922z" />
<glyph unicode="&#xfb04;" horiz-adv-x="1484" d="M84 8v93.5t2 139.5t4 232q2 90 8 204t19.5 233.5t35 233t53.5 204t78 143.5t107 53q51 0 82 -32.5t45 -79t14 -86.5q0 -94 -27.5 -212t-73.5 -245t-99 -250t-105 -227q-2 -20 -3 -29.5t-1 -30.5q29 -2 58.5 -14t46.5 -35q12 -2 27.5 -2h31.5q25 0 49.5 1t42.5 3 q41 4 77 19.5t67 35.5l4 113q2 90 8 204t19.5 233.5t35 233t53 204t77.5 143.5t108 53q51 0 81.5 -32.5t45 -79t14.5 -86.5q0 -94 -27.5 -212t-73.5 -245t-99.5 -250t-104.5 -227q-2 -14 -3 -29.5t-1 -32.5q12 4 24 4q29 0 60 -14q14 -6 26.5 -16.5t20.5 -20.5 q12 -2 27.5 -2h31.5q25 0 49.5 1t42.5 3q39 2 84 23q-2 47 -3 96t-1 102q0 127 7.5 262.5t22.5 263.5t38 228q12 51 37.5 116.5t69.5 114t104 48.5q70 0 95.5 -42t25.5 -98q0 -111 -23.5 -247t-85.5 -302q-31 -86 -73 -173t-83 -158q-2 -16 -2 -34v-34q0 -70 5.5 -141.5 t18.5 -132t37.5 -97.5t63.5 -37q45 0 73 38t42 73q8 18 15.5 41t15.5 47q8 23 22 23q10 0 11 -23v-4q0 -14 -5.5 -36.5t-13.5 -45.5q-25 -76 -72 -130t-133 -54q-74 0 -116.5 47t-63 113.5t-25.5 123.5q0 4 -1 7.5t-1 5.5q-43 -14 -96 -22.5t-106 -10.5q53 -53 84.5 -133 t46 -168t14.5 -166q0 -123 -24.5 -227.5t-72.5 -169t-118 -64.5q-74 0 -117 34t-65.5 86t-32.5 112.5t-14 115.5q-2 35 -4 123t-2 209v112.5t2 194.5q-63 -39 -140 -47q-16 -2 -40.5 -3t-53.5 -1h-8q57 -53 90 -134t48.5 -171t15.5 -170q0 -123 -25 -227.5t-73 -169 t-118 -64.5q-74 0 -116.5 34t-65 86t-33 112.5t-14.5 115.5q-2 35 -4 123t-2 209zM213 16q0 -186 13.5 -332.5t38 -230.5t57.5 -84q37 0 65.5 45t45 119t16.5 162q0 66 -5.5 147.5t-20.5 163.5t-49 149.5t-91 102.5q-12 2 -29.5 4t-34.5 4q-2 -27 -4 -100.5t-2 -149.5z M236 535q72 154 127 311.5t86 324.5q8 45 13 87t5 75q0 41 -8 65.5t-25 26.5h-2q-25 0 -47.5 -44t-38.5 -115q-39 -174 -66.5 -360.5t-43.5 -370.5zM750 16q0 -186 13 -332.5t37.5 -230.5t57.5 -84q37 0 65.5 45t45 119t16.5 162q0 66 -5 147.5t-21.5 163.5t-50.5 148.5 t-91 101.5q-39 6 -63 18q-2 -66 -3 -130t-1 -128zM772 535q72 154 127 311.5t86 324.5q8 45 13.5 87t5.5 75q0 41 -8.5 65.5t-24.5 26.5h-2q-25 0 -47.5 -44t-38.5 -115q-39 -174 -67 -360.5t-44 -370.5zM1260 627q53 109 98 230.5t72.5 240.5t27.5 215q0 59 -9 98t-34 39 q-23 0 -42 -46t-35.5 -122t-30 -163t-22.5 -172t-14 -149.5t-7 -92.5q0 -12 -1 -31.5t-3 -46.5z" />
</font>
</defs>
</svg>
